/* XPM */
static char * char_back_xpm[] = {
"32 32 505 2",
"  	c #5E8732",
". 	c #406930",
"+ 	c #3D652E",
"@ 	c #5A8230",
"# 	c #8FA937",
"$ 	c #93AE39",
"% 	c #94AF39",
"& 	c #3C622D",
"* 	c #3A5E2A",
"= 	c #3D2808",
"- 	c #5B4A0D",
"; 	c #67551B",
"> 	c #4C3907",
", 	c #4E3B08",
"' 	c #463209",
") 	c #31240A",
"! 	c #54782C",
"~ 	c #3B622D",
"{ 	c #567B2D",
"] 	c #473310",
"^ 	c #664907",
"/ 	c #B4863E",
"( 	c #D3B888",
"_ 	c #EBCB7D",
": 	c #BE931B",
"< 	c #AC7E0A",
"[ 	c #9C650A",
"} 	c #783606",
"| 	c #3C0F04",
"1 	c #36270F",
"2 	c #3A5F2B",
"3 	c #54792C",
"4 	c #4E3612",
"5 	c #935D07",
"6 	c #D3AA45",
"7 	c #F6E0B1",
"8 	c #EEEBE7",
"9 	c #FAE1A9",
"0 	c #E0B63B",
"a 	c #A27005",
"b 	c #A26E0A",
"c 	c #864607",
"d 	c #773006",
"e 	c #631904",
"f 	c #423811",
"g 	c #385D2A",
"h 	c #627524",
"i 	c #885B07",
"j 	c #D7AD3C",
"k 	c #FCD66B",
"l 	c #EEEAE5",
"m 	c #F9DFA4",
"n 	c #F4CB49",
"o 	c #C79D2C",
"p 	c #B2860A",
"q 	c #A6740B",
"r 	c #814007",
"s 	c #773206",
"t 	c #501404",
"u 	c #581504",
"v 	c #27431D",
"w 	c #365A29",
"x 	c #5D4112",
"y 	c #A3760A",
"z 	c #CFA533",
"A 	c #FBD35E",
"B 	c #FADD98",
"C 	c #F6CC4E",
"D 	c #D9B03D",
"E 	c #D0A635",
"F 	c #B18509",
"G 	c #A4710A",
"H 	c #511504",
"I 	c #440F04",
"J 	c #462A0F",
"K 	c #365928",
"L 	c #385C29",
"M 	c #1E2F0F",
"N 	c #351605",
"O 	c #854E08",
"P 	c #AD7F0B",
"Q 	c #CAA12F",
"R 	c #F6CD4F",
"S 	c #D3A937",
"T 	c #E3BA44",
"U 	c #BD9220",
"V 	c #B2860B",
"W 	c #AC7D0B",
"X 	c #996009",
"Y 	c #712E05",
"Z 	c #3F0F04",
"` 	c #511304",
" .	c #280804",
"..	c #12220E",
"+.	c #375B29",
"@.	c #587E2E",
"#.	c #434B15",
"$.	c #614A11",
"%.	c #613405",
"&.	c #A6201F",
"*.	c #861F16",
"=.	c #854C07",
"-.	c #AD810E",
";.	c #BC9120",
">.	c #B58A14",
",.	c #BB901D",
"'.	c #A26F09",
").	c #A6750B",
"!.	c #9B640A",
"~.	c #753105",
"{.	c #803C07",
"].	c #591704",
"^.	c #670906",
"/.	c #850808",
"(.	c #421004",
"_.	c #40230C",
":.	c #1E2911",
"<.	c #8AA335",
"[.	c #3D622D",
"}.	c #44300E",
"|.	c #935B09",
"1.	c #AF830C",
"2.	c #866407",
"3.	c #AA2020",
"4.	c #C01D1C",
"5.	c #6F160D",
"6.	c #542706",
"7.	c #8C5308",
"8.	c #AA800B",
"9.	c #9E6F0A",
"0.	c #986609",
"a.	c #966209",
"b.	c #864408",
"c.	c #824007",
"d.	c #4E1805",
"e.	c #5F0806",
"f.	c #AD0C0C",
"g.	c #880908",
"h.	c #4A1204",
"i.	c #641804",
"j.	c #661E04",
"k.	c #453C10",
"l.	c #3C622C",
"m.	c #406830",
"n.	c #282A10",
"o.	c #90530E",
"p.	c #BF9423",
"q.	c #5F3606",
"r.	c #B92222",
"s.	c #DE2F2C",
"t.	c #BB1A19",
"u.	c #701712",
"v.	c #6C1C12",
"w.	c #6C1A12",
"x.	c #6C1912",
"y.	c #6C1812",
"z.	c #5B0D09",
"A.	c #6B1410",
"B.	c #AC0D0C",
"C.	c #B10C0C",
"D.	c #9B0A0A",
"E.	c #3F0E04",
"F.	c #661904",
"G.	c #6B2104",
"H.	c #853F07",
"I.	c #692205",
"J.	c #2A310F",
"K.	c #5D8631",
"L.	c #27260E",
"M.	c #9D661F",
"N.	c #F6CD51",
"O.	c #C49920",
"P.	c #B28609",
"Q.	c #835E08",
"R.	c #840607",
"S.	c #BA2322",
"T.	c #D42927",
"U.	c #E2302D",
"V.	c #E3302D",
"W.	c #E3312E",
"X.	c #DB2C29",
"Y.	c #C8201E",
"Z.	c #D22624",
"`.	c #B4100F",
" +	c #99090A",
".+	c #850908",
"++	c #4B1004",
"@+	c #6C2105",
"#+	c #843E07",
"$+	c #8C4608",
"%+	c #6B2305",
"&+	c #20210D",
"*+	c #3F6830",
"=+	c #6B7C26",
"-+	c #7E5016",
";+	c #E0B968",
">+	c #F0D495",
",+	c #C69B17",
"'+	c #A57203",
")+	c #825D06",
"!+	c #5E3605",
"~+	c #87040A",
"{+	c #AE2221",
"]+	c #B02322",
"^+	c #981314",
"/+	c #A71D1D",
"(+	c #900C0E",
"_+	c #850508",
":+	c #400C04",
"<+	c #521A04",
"[+	c #772D06",
"}+	c #8E5408",
"|+	c #945509",
"1+	c #823B07",
"2+	c #561B04",
"3+	c #697A26",
"4+	c #486322",
"5+	c #785851",
"6+	c #D5C3B2",
"7+	c #F0D599",
"8+	c #E3BA3F",
"9+	c #C29725",
"0+	c #A47104",
"a+	c #876408",
"b+	c #653405",
"c+	c #633004",
"d+	c #653105",
"e+	c #643105",
"f+	c #653106",
"g+	c #683106",
"h+	c #7C3406",
"i+	c #894B07",
"j+	c #A4710B",
"k+	c #A36E0A",
"l+	c #894C07",
"m+	c #531904",
"n+	c #466122",
"o+	c #3F682F",
"p+	c #384E22",
"q+	c #675653",
"r+	c #A58F75",
"s+	c #C99C30",
"t+	c #E4BB44",
"u+	c #EAC149",
"v+	c #B88C18",
"w+	c #A77608",
"x+	c #A67507",
"y+	c #A77509",
"z+	c #A7760A",
"A+	c #A8760B",
"B+	c #A8770B",
"C+	c #A4720B",
"D+	c #9C620A",
"E+	c #7B4A07",
"F+	c #401304",
"G+	c #496423",
"H+	c #3F672F",
"I+	c #547A2C",
"J+	c #39461E",
"K+	c #4E330B",
"L+	c #9A6D24",
"M+	c #C2972C",
"N+	c #ECC34B",
"O+	c #F0C74E",
"P+	c #F1C84F",
"Q+	c #D4AA38",
"R+	c #DBB23E",
"S+	c #C69B2B",
"T+	c #B1850B",
"U+	c #AF820C",
"V+	c #965A09",
"W+	c #854F0C",
"X+	c #45220D",
"Y+	c #3D471E",
"Z+	c #547A2D",
"`+	c #2F4F22",
" @	c #BC9571",
".@	c #927154",
"+@	c #3D2A01",
"@@	c #614E1C",
"#@	c #86561E",
"$@	c #9C651F",
"%@	c #9D651F",
"&@	c #955B16",
"*@	c #975D18",
"=@	c #925611",
"-@	c #743A05",
";@	c #462F05",
">@	c #301401",
",@	c #8D6D50",
"'@	c #C09874",
")@	c #2D4D21",
"!@	c #986939",
"~@	c #80582E",
"{@	c #1B1108",
"]@	c #050404",
"^@	c #170704",
"/@	c #210E04",
"(@	c #180704",
"_@	c #060404",
":@	c #1A1107",
"<@	c #7C552D",
"[@	c #9B6B3A",
"}@	c #446423",
"|@	c #4C6F28",
"1@	c #62360B",
"2@	c #A26C34",
"3@	c #643E1A",
"4@	c #140804",
"5@	c #030404",
"6@	c #000304",
"7@	c #040404",
"8@	c #000103",
"9@	c #000203",
"0@	c #120804",
"a@	c #613B18",
"b@	c #A26D35",
"c@	c #653C0C",
"d@	c #325426",
"e@	c #768C2C",
"f@	c #364F1B",
"g@	c #6A3C0B",
"h@	c #261004",
"i@	c #200D04",
"j@	c #4A2305",
"k@	c #000003",
"l@	c #583B1C",
"m@	c #4E3519",
"n@	c #482104",
"o@	c #220F04",
"p@	c #230F04",
"q@	c #6B380A",
"r@	c #57681F",
"s@	c #315225",
"t@	c #305024",
"u@	c #101C05",
"v@	c #271204",
"w@	c #5A2D05",
"x@	c #000000",
"y@	c #6A4B25",
"z@	c #5F4320",
"A@	c #582B04",
"B@	c #2A1304",
"C@	c #0E1905",
"D@	c #2F4F23",
"E@	c #314F23",
"F@	c #8C612E",
"G@	c #3E1408",
"H@	c #941011",
"I@	c #B22522",
"J@	c #9F1617",
"K@	c #890106",
"L@	c #8B0609",
"M@	c #401108",
"N@	c #8D632E",
"O@	c #324E23",
"P@	c #2D4B21",
"Q@	c #723F17",
"R@	c #E1AE80",
"S@	c #652C20",
"T@	c #D82B28",
"U@	c #E3312D",
"V@	c #DD2D2A",
"W@	c #C11A19",
"X@	c #B30B0C",
"Y@	c #592419",
"Z@	c #E0AE80",
"`@	c #754419",
" #	c #2C4A21",
".#	c #203918",
"+#	c #AA753D",
"@#	c #846045",
"##	c #AC1C18",
"$#	c #E1302D",
"%#	c #DD2E2B",
"&#	c #BD1817",
"*#	c #A41310",
"=#	c #835E44",
"-#	c #AC763E",
";#	c #1F3717",
">#	c #5D8632",
",#	c #4C6123",
"'#	c #443624",
")#	c #E0B185",
"!#	c #624331",
"~#	c #B11413",
"{#	c #DF2F2C",
"]#	c #E02F2C",
"^#	c #BF1A18",
"/#	c #AA0B0B",
"(#	c #5F3E2D",
"_#	c #E1B286",
":#	c #493B26",
"<#	c #4B5F23",
"[#	c #305023",
"}#	c #9D7041",
"|#	c #EDC098",
"1#	c #CF9A66",
"2#	c #453022",
"3#	c #563761",
"4#	c #B31914",
"5#	c #D32D28",
"6#	c #BF201C",
"7#	c #A70C05",
"8#	c #A70C04",
"9#	c #593661",
"0#	c #412D23",
"a#	c #CD9863",
"b#	c #EDC199",
"c#	c #A07243",
"d#	c #6F8429",
"e#	c #2F4E22",
"f#	c #BC926A",
"g#	c #F4DCCA",
"h#	c #BA9475",
"i#	c #555890",
"j#	c #718AEF",
"k#	c #070189",
"l#	c #060088",
"m#	c #2D3788",
"n#	c #283088",
"o#	c #000088",
"p#	c #7089EE",
"q#	c #545993",
"r#	c #B89171",
"s#	c #F4DDCB",
"t#	c #C0956D",
"u#	c #446323",
"v#	c #365A28",
"w#	c #7B5B28",
"x#	c #C4986E",
"y#	c #604F45",
"z#	c #A6B2F1",
"A#	c #6176FF",
"B#	c #3D4EFF",
"C#	c #2B36FF",
"D#	c #6981FF",
"E#	c #647BFF",
"F#	c #475BFF",
"G#	c #5F75FF",
"H#	c #A6B2F2",
"I#	c #5C4D47",
"J#	c #C5996F",
"K#	c #7D5C29",
"L#	c #355928",
"M#	c #29461E",
"N#	c #491600",
"O#	c #855A2E",
"P#	c #ADAAAD",
"Q#	c #B0B2F5",
"R#	c #ABB2FB",
"S#	c #303FEB",
"T#	c #5A6FB7",
"U#	c #576CE9",
"V#	c #AEB8FB",
"W#	c #B0B3F6",
"X#	c #AEABAF",
"Y#	c #865C31",
"Z#	c #4B1800",
"`#	c #27441C",
" $	c #3D5A1F",
".$	c #97632E",
"+$	c #E1AC7A",
"@$	c #5F4A36",
"#$	c #CAB19B",
"$$	c #89889C",
"%$	c #1B3087",
"&$	c #4C6E27",
"*$	c #495886",
"=$	c #86869C",
"-$	c #CAB19C",
";$	c #5E4A36",
">$	c #E1AD7B",
",$	c #9A652F",
"'$	c #607222",
")$	c #28451E",
"!$	c #854E1D",
"~$	c #CB935E",
"{$	c #925C33",
"]$	c #DDAC7E",
"^$	c #414E14",
"/$	c #89A234",
"($	c #283D12",
"_$	c #DCAB7D",
":$	c #935D34",
"<$	c #CB945E",
"[$	c #87501E",
"}$	c #3B571E",
"|$	c #3E652E",
"1$	c #444C19",
"2$	c #8A4E19",
"3$	c #B4793D",
"4$	c #9A643E",
"5$	c #324919",
"6$	c #334B1A",
"7$	c #98633D",
"8$	c #B47A3D",
"9$	c #8B4F1A",
"0$	c #3A3B17",
"a$	c #3E662F",
"b$	c #313817",
"c$	c #3B3116",
"d$	c #303415",
"e$	c #3E662E",
"f$	c #313616",
"  . . . . . . . . . . . . + + @ + + + # $   .   % . . . . . . . ",
".     . . . % % % . . & * = - ; > , ' ) ! ~ .     % % . . . .   ",
". . %   . . %       { ] ^ / ( _ : < [ } | 1 2 .       % . .     ",
". .   . .       . 3 4 5 6 7 8 9 0 a b c d e f g . .     . .   . ",
"% . . . . . . . . h i j k l m n o p q r s t u v . . .   . . . . ",
"    . % % % . . w x y z A B C D E F b G r H I J K   % . % . . . ",
"    %     . . L M N O P Q R S T U V W X Y Z `  ...+.. .   . . % ",
". .     . @.#.$.%.&.*.=.-.;.>.,.'.).!.~.{.].^./.(._.:.<.. . %   ",
". .   . [.}.|.1.2.3.4.5.6.7.8.9.0.a.b.c.d.e.f.g.h.i.j.k.l.%     ",
". % . m.n.o.p.p q q.r.s.t.u.v.w.x.y.z.A.B.C.D.E.F.G.H.I.J.K.  . ",
".     m.L.M.N.O.P.Q.R.S.T.U.V.V.W.X.Y.Z.`. +.+++@+#+$+%+&+*+. . ",
"%   . . =+-+;+>+,+'+)+!+~+{+]+]+]+^+/+(+_+:+<+[+}+|+1+2+3+m.. . ",
"  . .     4+5+6+7+8+9+0+a+b+c+c+c+d+e+f+g+h+i+j+k+l+m+n+m.. .   ",
". . . . . o+p+q+r+s+t+u+v+w+x+x+y+y+z+A+A+B+C+D+E+F+G+H+  % % . ",
". % % % . . H+I+J+K+L+M+N+O+O+P+Q+R+S+T+U+V+W+X+Y+Z+H+. .   % % ",
"%     . . .     `+ @.@+@@@#@$@%@&@*@=@-@;@>@,@'@)@. . . . .     ",
"    .   % % .   `+!@~@{@]@^@/@/@/@/@/@(@_@:@<@[@}@. . %   . . % ",
"  . . .   % % . |@1@2@3@4@5@6@7@8@9@6@5@0@a@b@c@d@. %     . %   ",
". . . . .     .   e@f@g@h@i@j@k@l@m@n@o@p@q@r@s@. %     .       ",
". .   % % . . . .     t@u@v@w@x@y@z@A@B@C@D@. . . . . . .     . ",
"  . . . % % % . .   . E@F@G@H@I@J@K@L@M@N@O@. . . . . . . . . . ",
"  . . . .     % % . P@Q@R@S@T@U@V@W@X@Y@Z@`@ #. . . % % . . .   ",
". . . . . .       % .#+#@###$#$#$#%#&#*#=#-#;#% . %     . . %   ",
". . . . . . . . >#,#'#)#!#~#{#$#]#{#^#/#(#_#:#<#*+    . . %     ",
". . . . % %   . [#}#|#1#2#3#4#5#6#7#8#9#0#a#b#c#d#  . . %     . ",
"  . . %     . . e#f#g#h#i#j#k#l#m#n#o#p#q#r#s#t#u#. .       . . ",
". .       . . . v#w#x#y#z#A#B#C#D#E#F#G#H#I#J#K#L#. . . . . . . ",
". .   . . . . . . M#N#O#P#Q#R#S#T#U#V#W#X#Y#Z#`#. % % % . . .   ",
". . . . % . . . %  $.$+$@$#$$$%$&$*$=$-$;$>$,$'$%     . . .     ",
". . . .   % . %   )$!$~${$]$^$/$. @.($_$:$<$[$}$    .   % % .   ",
"%   . . .   %     |$1$2$3$4$5$% %   6$7$8$9$0$+   . . .   % % . ",
"  . . . . .     . . a$b$c$d$e$    . a$f$c$f$a$. . . . . .     . "};
