/* XPM */
static char * char_left_xpm[] = {
"32 32 439 2",
"  	c #5E8732",
". 	c #406930",
"+ 	c #3F672F",
"@ 	c #5C8431",
"# 	c #91AC38",
"$ 	c #94AF39",
"% 	c #3E662F",
"& 	c #3B622D",
"* 	c #3A3816",
"= 	c #51430E",
"- 	c #6B5F39",
"; 	c #686353",
"> 	c #5B4B12",
", 	c #433209",
"' 	c #3D340F",
") 	c #577D2E",
"! 	c #3D652E",
"~ 	c #36461E",
"{ 	c #471C05",
"] 	c #8E5808",
"^ 	c #AC7C16",
"/ 	c #DABA74",
"( 	c #D5C3A8",
"_ 	c #BC9226",
": 	c #9B6508",
"< 	c #965E09",
"[ 	c #4D2105",
"} 	c #363818",
"| 	c #3D642D",
"1 	c #466524",
"2 	c #27421D",
"3 	c #210004",
"4 	c #571F05",
"5 	c #795707",
"6 	c #6D3309",
"7 	c #B21318",
"8 	c #B30E0A",
"9 	c #B51A20",
"0 	c #98590F",
"a 	c #916407",
"b 	c #9C6609",
"c 	c #6A2805",
"d 	c #414A19",
"e 	c #325325",
"f 	c #203817",
"g 	c #754107",
"h 	c #977000",
"i 	c #987200",
"j 	c #987303",
"k 	c #7E4A06",
"l 	c #773808",
"m 	c #811817",
"n 	c #821717",
"o 	c #801817",
"p 	c #BB2523",
"q 	c #C32D24",
"r 	c #7F4806",
"s 	c #7A3406",
"t 	c #6B2905",
"u 	c #323516",
"v 	c #375827",
"w 	c #6B3E0D",
"x 	c #DAB146",
"y 	c #EFC861",
"z 	c #E2DDD7",
"A 	c #E2DEDA",
"B 	c #ECD29E",
"C 	c #F0C64D",
"D 	c #B4861B",
"E 	c #A67C0B",
"F 	c #9A6B0A",
"G 	c #864607",
"H 	c #6A2D0D",
"I 	c #6E1A12",
"J 	c #D12C29",
"K 	c #B2281F",
"L 	c #7F3807",
"M 	c #432006",
"N 	c #3D632D",
"O 	c #3A5928",
"P 	c #7E5D13",
"Q 	c #E0B642",
"R 	c #C2982C",
"S 	c #905313",
"T 	c #8A4E2E",
"U 	c #864D2F",
"V 	c #864C20",
"W 	c #874B0F",
"X 	c #884508",
"Y 	c #884407",
"Z 	c #975F09",
"` 	c #AC7E0B",
" .	c #AA7C0B",
"..	c #905709",
"+.	c #543507",
"@.	c #95221A",
"#.	c #982118",
"$.	c #621804",
"%.	c #23250F",
"&.	c #3C1A04",
"*.	c #B7852D",
"=.	c #C79E33",
"-.	c #753902",
";.	c #551204",
">.	c #4A0F04",
",.	c #000004",
"'.	c #461F03",
").	c #531504",
"!.	c #531204",
"~.	c #682705",
"{.	c #813A07",
"].	c #813B07",
"^.	c #A5730B",
"/.	c #A6720B",
"(.	c #8A5C08",
"_.	c #5B3B05",
":.	c #511604",
"<.	c #363B10",
"[.	c #3F682F",
"}.	c #3B4A20",
"|.	c #744304",
"1.	c #6E3F03",
"2.	c #440904",
"3.	c #0F0504",
"4.	c #2A1304",
"5.	c #562905",
"6.	c #4B2001",
"7.	c #A0652D",
"8.	c #33210E",
"9.	c #000304",
"0.	c #270604",
"a.	c #440C04",
"b.	c #460E04",
"c.	c #762F06",
"d.	c #834307",
"e.	c #A16C0A",
"f.	c #A46F0A",
"g.	c #764307",
"h.	c #242D0E",
"i.	c #92AC38",
"j.	c #6C7D27",
"k.	c #210304",
"l.	c #000404",
"m.	c #1E0D04",
"n.	c #723807",
"o.	c #361602",
"p.	c #8D5E2D",
"q.	c #C18544",
"r.	c #7F4615",
"s.	c #080504",
"t.	c #4F2605",
"u.	c #512705",
"v.	c #320904",
"w.	c #481404",
"x.	c #712705",
"y.	c #8A4D08",
"z.	c #A6740B",
"A.	c #79440A",
"B.	c #405C20",
"C.	c #89A234",
"D.	c #18270C",
"E.	c #663A0A",
"F.	c #452005",
"G.	c #230F04",
"H.	c #7A3C07",
"I.	c #4E2100",
"J.	c #D3A075",
"K.	c #FAC697",
"L.	c #C58C54",
"M.	c #7C4211",
"N.	c #0F0604",
"O.	c #6E3606",
"P.	c #411E05",
"Q.	c #040404",
"R.	c #0C0404",
"S.	c #460F04",
"T.	c #681D04",
"U.	c #894A08",
"V.	c #A3750B",
"W.	c #384516",
"X.	c #3F6830",
"Y.	c #577E2E",
"Z.	c #415E21",
"`.	c #425E21",
" +	c #0A0504",
".+	c #513514",
"++	c #343231",
"@+	c #8E735F",
"#+	c #E5B07F",
"$+	c #FFCD9E",
"%+	c #F9C697",
"&+	c #A37038",
"*+	c #230500",
"=+	c #653106",
"-+	c #532705",
";+	c #100704",
">+	c #521304",
",+	c #681C04",
"'+	c #8B4608",
")+	c #3F5D21",
"!+	c #2A471F",
"~+	c #050505",
"{+	c #C4A791",
"]+	c #7B665F",
"^+	c #B8A8A2",
"/+	c #DDA879",
"(+	c #F9C99D",
"_+	c #A09B99",
":+	c #9D8178",
"<+	c #270000",
"[+	c #7C3C05",
"}+	c #291204",
"|+	c #400E04",
"1+	c #641904",
"2+	c #803A07",
"3+	c #7B3D07",
"4+	c #3E5B20",
"5+	c #385D2A",
"6+	c #172811",
"7+	c #DCDCDD",
"8+	c #552700",
"9+	c #724700",
"0+	c #E9B481",
"a+	c #FFCC9E",
"b+	c #FBCA9E",
"c+	c #BDADA7",
"d+	c #B7B1AF",
"e+	c #847B79",
"f+	c #99622B",
"g+	c #35200D",
"h+	c #000104",
"i+	c #3C0D04",
"j+	c #461004",
"k+	c #671E04",
"l+	c #3D5A20",
"m+	c #203717",
"n+	c #C4A389",
"o+	c #D0CFCF",
"p+	c #DDC9BB",
"q+	c #FAC695",
"r+	c #FFCC9D",
"s+	c #F7C598",
"t+	c #441B00",
"u+	c #9C9D9E",
"v+	c #CCB6A7",
"w+	c #BD8340",
"x+	c #472C13",
"y+	c #6D3609",
"z+	c #5D1704",
"A+	c #7D3A07",
"B+	c #4B4314",
"C+	c #3C632D",
"D+	c #BB844B",
"E+	c #F9CBA3",
"F+	c #FECEA4",
"G+	c #FDCDA3",
"H+	c #E2DEDC",
"I+	c #D3C3B8",
"J+	c #C1894F",
"K+	c #C28745",
"L+	c #75593F",
"M+	c #E0AD81",
"N+	c #632B00",
"O+	c #4D1004",
"P+	c #381B09",
"Q+	c #312E11",
"R+	c #28441E",
"S+	c #7F4514",
"T+	c #C78E57",
"U+	c #EFBD91",
"V+	c #985924",
"W+	c #9A5920",
"X+	c #B4793B",
"Y+	c #EBB786",
"Z+	c #B1763C",
"`+	c #63360A",
" @	c #192E13",
".@	c #88A034",
"+@	c #5D8632",
"@@	c #2F461E",
"#@	c #774212",
"$@	c #B78658",
"%@	c #E7B283",
"&@	c #ECB785",
"*@	c #E5AF7B",
"=@	c #BD8140",
"-@	c #B37638",
";@	c #824A19",
">@	c #94642F",
",@	c #64370A",
"'@	c #335626",
")@	c #93AE39",
"!@	c #496A26",
"~@	c #49541C",
"{@	c #714619",
"]@	c #805828",
"^@	c #7D5215",
"/@	c #815829",
"(@	c #734C22",
"_@	c #592800",
":@	c #231204",
"<@	c #466624",
"[@	c #7C932F",
"}@	c #3E652E",
"|@	c #354F1B",
"1@	c #8B0D11",
"2@	c #C6C1C1",
"3@	c #50181A",
"4@	c #A0060A",
"5@	c #670206",
"6@	c #6F380D",
"7@	c #3F4D1A",
"8@	c #406830",
"9@	c #870F08",
"0@	c #D44B4A",
"a@	c #A25F4C",
"b@	c #D12B28",
"c@	c #B50F0E",
"d@	c #710000",
"e@	c #D8AB81",
"f@	c #5F4C31",
"g@	c #5B8330",
"h@	c #335526",
"i@	c #2C0303",
"j@	c #B7110C",
"k@	c #E1BBBA",
"l@	c #8D4A4A",
"m@	c #E0302D",
"n@	c #D12624",
"o@	c #830004",
"p@	c #A26E39",
"q@	c #C6915B",
"r@	c #253618",
"s@	c #798D2D",
"t@	c #704C22",
"u@	c #6F0003",
"v@	c #C71310",
"w@	c #CD8C8C",
"x@	c #BA3F3E",
"y@	c #E1302D",
"z@	c #D82B28",
"A@	c #BE1615",
"B@	c #590C0E",
"C@	c #ECBD91",
"D@	c #13250C",
"E@	c #385E2A",
"F@	c #473F25",
"G@	c #DFAB7A",
"H@	c #8E5622",
"I@	c #6F0000",
"J@	c #BC8B88",
"K@	c #993534",
"L@	c #C71F1D",
"M@	c #C9201E",
"N@	c #9E1313",
"O@	c #71330E",
"P@	c #F3C193",
"Q@	c #BC936F",
"R@	c #54340D",
"S@	c #839C32",
"T@	c #597A30",
"U@	c #7C6344",
"V@	c #4D3394",
"W@	c #5368E8",
"X@	c #8286E5",
"Y@	c #5E2B53",
"Z@	c #571120",
"`@	c #570D21",
" #	c #2E0011",
".#	c #A6713C",
"+#	c #EEDDD1",
"@#	c #F2BE8F",
"##	c #8E5E2A",
"$#	c #4A6C26",
"%#	c #53782B",
"&#	c #8F9091",
"*#	c #9C9AEF",
"=#	c #6D84FD",
"-#	c #313EED",
";#	c #728BEE",
">#	c #6177F8",
",#	c #0012B0",
"'#	c #7E4529",
")#	c #E9BB94",
"!#	c #AF7D48",
"~#	c #485E22",
"{#	c #2B4A20",
"]#	c #895C38",
"^#	c #8282CC",
"/#	c #2D4152",
"(#	c #3A4E72",
"_#	c #6D85EF",
":#	c #757FFF",
"<#	c #7C7CA3",
"[#	c #2D2C27",
"}#	c #2B441E",
"|#	c #3B5426",
"1#	c #8D663F",
"2#	c #AF8C6C",
"3#	c #D7A87B",
"4#	c #7C5E3A",
"5#	c #1E3682",
"6#	c #AEA0C2",
"7#	c #D0C2BB",
"8#	c #43433C",
"9#	c #6E8229",
"0#	c #5B2E0B",
"a#	c #C08E3D",
"b#	c #D2A068",
"c#	c #AA734A",
"d#	c #48280E",
"e#	c #3D642E",
"f#	c #4F4715",
"g#	c #C69364",
"h#	c #BD8349",
"i#	c #322A0E",
"j#	c #34270D",
"k#	c #534006",
"l#	c #4C3602",
"m#	c #340F01",
"n#	c #4D6C27",
"o#	c #93AD38",
"p#	c #859E33",
"q#	c #3E0000",
"r#	c #D4A27B",
"s#	c #F6C393",
"t#	c #B17E48",
"u#	c #3D561E",
"v#	c #3E662E",
"w#	c #87A033",
"x#	c #5A390A",
"y#	c #8C4C21",
"z#	c #AA7D2C",
"A#	c #6F3A13",
"B#	c #243B19",
"C#	c #50732A",
"D#	c #1F3416",
"E#	c #203617",
"F#	c #233C1A",
"  . . . . . . . . . . . . + + @ + + + # $   .   $ . . . . . . . ",
".     . . . $ $ $ . . % & * = - ; > , ' ) ! .     $ $ . . . .   ",
". . $   . . $       @ ~ { ] ^ / ( _ : < [ } | .       $ . .     ",
". .   . .       . 1 2 3 4 5 6 7 8 9 0 a b c d ! . .     . .   . ",
"$ . . . . . . e f g h i j k l m n o p q r s t u % . .   . . . . ",
"    . $ $ $ v w x y z A B C D E F G H I J K L M N   $ . $ . . . ",
"    $     O P Q R S T U V W X Y Z `  ...+.@.#.$.%.. . .   . . $ ",
". .     % &.*.=.-.;.>.,.,.'.).!.~.{.].^./.(._.:.<.. . $ . . $   ",
". .   . [.}.|.1.2.3.4.5.6.7.8.9.0.a.b.c.d.e.f.g.h.$ . $ . $     ",
". $ . . . i.j.k.l.m.n.o.p.q.r.s.t.u.9.v.w.x.y.z.A.B.. .       . ",
".     . . C.D.E.F.G.H.I.J.K.L.M.N.O.P.Q.R.S.T.U.V.W.X.. . . . . ",
"$   . . $ Y.Z.`. +.+++@+#+$+%+&+*+=+-+;+Q.l.>+,+'+H.)+. $ . . . ",
"  . .       . !+~+{+]+^+/+$+(+_+:+<+[+}+Q.l.|+1+2+3+4+  . . .   ",
". . . . . . . 5+6+7+8+9+0+a+b+c+d+e+f+g+h+l.i+j+k+3+l+.   $ $ . ",
". $ $ $ . . .   m+n+o+p+q+r+s+t+u+v+w+x+y+h+>+z+A+B+C+. .   $ $ ",
"$     . . .     m+D+E+F+r+r+G+H+I+J+K+L+M+N+O+P+Q+! . . . .     ",
"    .   $ $ .   R+S+T+K.$+r+r+U+V+W+X+Y+Z+`+ @.@+@. . $   . . $ ",
"  . . .   $ $ .   @@#@$@%@&@&@*@=@-@;@>@,@'@$   . . $     . $   ",
". . . . .     .   )@!@~@{@]@^@/@(@_@:@<@[@. $ . . $     .       ",
". .   $ $ . . . .     }@|@1@2@3@4@5@6@7@  . . . . . . . .     . ",
"  . . . $ $ $ . .   8@e 9@0@a@b@c@d@e@f@g@. . . . . . . . . . . ",
"  . . . .     $ $ . h@i@j@k@l@m@n@o@p@q@r@  . . . . $ $ . . .   ",
". . . . . .       s@t@u@v@w@x@y@z@A@B@C@D@E@. $ . $     . . $   ",
". . . . . . . .   F@G@H@I@J@K@L@M@N@O@P@Q@R@S@  .     . . $     ",
". . . . $ $   . . T@U@V@W@X@Y@Z@`@ #.#+#@###$#. $   . . $     . ",
"  . . $     . . . . %#&#*#=#-#;#>#,#'#)#!#~#X..   . .       . . ",
". .       . . . . . 5+{#]#^#/#(#_#:#<#[#}#. . . . . . . . . . . ",
". .   . . . . . . |#1#2#3#4#}@| 5#6#7#8#. . . . . $ $ $ . . .   ",
". . . . $ . . . 9#0#a#b#c#d#e#C+f#g#h#i#  . . $ $     . . .     ",
". . . .   $ . $ ) j#k#l#m#n#o#p#q#r#s#t#u#.         .   $ $ .   ",
"$   . . .   $     % g@v#v#X.  w#x#y#z#A#B#  . .   . . .   $ $ . ",
"  . . . . .     . . . . . . .   C#D#E#F#. . . . . . . . .     . "};
