/* XPM */
static char * char_front_xpm[] = {
"32 32 492 2",
"  	c #5E8732",
". 	c #406930",
"+ 	c #3F6830",
"@ 	c #335426",
"# 	c #325425",
"$ 	c #4B6D27",
"% 	c #325426",
"& 	c #7D942F",
"* 	c #94AF39",
"= 	c #305024",
"- 	c #2C461E",
"; 	c #7A5115",
"> 	c #BAA678",
", 	c #B9AB8E",
"' 	c #9E7E20",
") 	c #846307",
"! 	c #693906",
"~ 	c #48250A",
"{ 	c #415E21",
"] 	c #365928",
"^ 	c #466524",
"/ 	c #6C3A0A",
"( 	c #9C7617",
"_ 	c #E9BE4C",
": 	c #FFDC77",
"< 	c #E9C87C",
"[ 	c #BF9319",
"} 	c #A16B09",
"| 	c #8E4A08",
"1 	c #813C07",
"2 	c #6E3206",
"3 	c #43260E",
"4 	c #375B29",
"5 	c #486825",
"6 	c #6A370A",
"7 	c #A2720A",
"8 	c #63490B",
"9 	c #7A6526",
"0 	c #7E6827",
"a 	c #6E591A",
"b 	c #5A440B",
"c 	c #4F340C",
"d 	c #4B2D0B",
"e 	c #452405",
"f 	c #4E1D05",
"g 	c #621804",
"h 	c #422D0D",
"i 	c #395E2A",
"j 	c #3E652E",
"k 	c #6B7A25",
"l 	c #533F13",
"m 	c #5E5446",
"n 	c #93664A",
"o 	c #C1982D",
"p 	c #F1C951",
"q 	c #F0C951",
"r 	c #EDC54F",
"s 	c #B1861D",
"t 	c #7F4A0E",
"u 	c #4D3B12",
"v 	c #331D04",
"w 	c #395827",
"x 	c #3D652E",
"y 	c #395526",
"z 	c #584011",
"A 	c #A18859",
"B 	c #ECC65F",
"C 	c #E3D6C5",
"D 	c #DBD4CD",
"E 	c #E0B84E",
"F 	c #A87C0E",
"G 	c #A97D10",
"H 	c #AE8319",
"I 	c #DFB747",
"J 	c #BE932C",
"K 	c #D5AA3D",
"L 	c #9C6605",
"M 	c #694607",
"N 	c #422A0A",
"O 	c #55792C",
"P 	c #365425",
"Q 	c #734916",
"R 	c #D2A438",
"S 	c #E0C89F",
"T 	c #DABC85",
"U 	c #965E0C",
"V 	c #660C00",
"W 	c #600901",
"X 	c #530E04",
"Y 	c #520D04",
"Z 	c #540E04",
"` 	c #630B01",
" .	c #6E2204",
"..	c #803705",
"+.	c #935F08",
"@.	c #9F720A",
"#.	c #9A6309",
"$.	c #55320B",
"%.	c #375C29",
"&.	c #4A6825",
"*.	c #744A15",
"=.	c #D5A940",
"-.	c #C9A034",
";.	c #834500",
">.	c #690800",
",.	c #4E0A03",
"'.	c #4A1104",
").	c #400C04",
"!.	c #000104",
"~.	c #431E03",
"{.	c #361401",
"].	c #000003",
"^.	c #090404",
"/.	c #470E04",
"(.	c #4A1004",
"_.	c #571304",
":.	c #661304",
"<.	c #641004",
"[.	c #905F08",
"}.	c #9B670A",
"|.	c #59350F",
"1.	c #7F9630",
"2.	c #232B10",
"3.	c #A67614",
"4.	c #B78830",
"5.	c #7A4101",
"6.	c #520A04",
"7.	c #3E0D04",
"8.	c #160504",
"9.	c #1E0E04",
"0.	c #653106",
"a.	c #3E1A02",
"b.	c #955B24",
"c.	c #A77136",
"d.	c #4A3216",
"e.	c #1B0B04",
"f.	c #673306",
"g.	c #270804",
"h.	c #3E0E04",
"i.	c #5E1704",
"j.	c #661A04",
"k.	c #8B5907",
"l.	c #926609",
"m.	c #5E7022",
"n.	c #29461F",
"o.	c #96730E",
"p.	c #925808",
"q.	c #641F03",
"r.	c #2E0604",
"s.	c #200704",
"t.	c #000404",
"u.	c #040404",
"v.	c #2C1404",
"w.	c #7D3E06",
"x.	c #6C4720",
"y.	c #DAA370",
"z.	c #F6C291",
"A.	c #C18D59",
"B.	c #422C14",
"C.	c #512605",
"D.	c #6C3506",
"E.	c #000204",
"F.	c #290804",
"G.	c #601704",
"H.	c #6C2605",
"I.	c #986209",
"J.	c #81630E",
"K.	c #4C6E28",
"L.	c #1F3818",
"M.	c #A1770A",
"N.	c #692D05",
"O.	c #210704",
"P.	c #120504",
"Q.	c #020404",
"R.	c #1D0C04",
"S.	c #190B04",
"T.	c #7F4310",
"U.	c #301502",
"V.	c #9C7A5A",
"W.	c #FECB9B",
"X.	c #FFCC9D",
"Y.	c #FAC797",
"Z.	c #BD874F",
"`.	c #43240B",
" +	c #89460B",
".+	c #6A370D",
"++	c #000004",
"@+	c #150504",
"#+	c #260804",
"$+	c #824B06",
"%+	c #8F6B09",
"&+	c #2E4E23",
"*+	c #5F7123",
"=+	c #794109",
"-+	c #421E05",
";+	c #3A0D04",
">+	c #4B1104",
",+	c #743907",
"'+	c #452308",
")+	c #AB743A",
"!+	c #543716",
"~+	c #CC9864",
"{+	c #FCC999",
"]+	c #F8C595",
"^+	c #B8844C",
"/+	c #211203",
"(+	c #714C25",
"_+	c #986935",
":+	c #000000",
"<+	c #501304",
"[+	c #330B04",
"}+	c #2E1304",
"|+	c #845207",
"1+	c #86660C",
"2+	c #768C2C",
"3+	c #3F561E",
"4+	c #723706",
"5+	c #4D1204",
"6+	c #763A07",
"7+	c #411D04",
"8+	c #955D30",
"9+	c #878787",
"0+	c #A68F7E",
"a+	c #ECB784",
"b+	c #FFCD9E",
"c+	c #DFAA76",
"d+	c #928A85",
"e+	c #7D7E7E",
"f+	c #643E11",
"g+	c #8E5F2D",
"h+	c #000001",
"i+	c #030404",
"j+	c #5E1604",
"k+	c #3D2905",
"l+	c #886A0E",
"m+	c #476725",
"n+	c #2B4920",
"o+	c #233E1B",
"p+	c #050504",
"q+	c #743700",
"r+	c #8A5D31",
"s+	c #D1B7A5",
"t+	c #C9BEBA",
"u+	c #D4C1B2",
"v+	c #FFCD9D",
"w+	c #D2C0B8",
"x+	c #B8B7B7",
"y+	c #A4958E",
"z+	c #804D18",
"A+	c #471104",
"B+	c #3F591F",
"C+	c #54792C",
"D+	c #9A7B5E",
"E+	c #A5704A",
"F+	c #BD834A",
"G+	c #E1DEDD",
"H+	c #4B0F00",
"I+	c #967454",
"J+	c #FFCE9F",
"K+	c #FECB9C",
"L+	c #734519",
"M+	c #5D5D5D",
"N+	c #E4D9D2",
"O+	c #946222",
"P+	c #A18063",
"Q+	c #705943",
"R+	c #2E4D22",
"S+	c #5C8431",
"T+	c #2B481F",
"U+	c #A2784D",
"V+	c #AA6E3D",
"W+	c #BC8145",
"X+	c #F3CFB2",
"Y+	c #CFCFCE",
"Z+	c #E0CEC0",
"`+	c #FFCC9C",
" @	c #FFCC9E",
".@	c #D4CECA",
"+@	c #D6D0CB",
"@@	c #EDC4A0",
"#@	c #92632B",
"$@	c #AA7D51",
"%@	c #775737",
"&@	c #3C622D",
"*@	c #335526",
"=@	c #6C3A0F",
"-@	c #AF7337",
";@	c #9E5F27",
">@	c #CC955F",
",@	c #FACEA8",
"'@	c #FDCFA7",
")@	c #D0A27A",
"!@	c #A3755E",
"~@	c #9E6135",
"{@	c #A3682E",
"]@	c #A2672E",
"^@	c #51340E",
"/@	c #587F2F",
"(@	c #334D22",
"_@	c #434416",
":@	c #7C430B",
"<@	c #8E4F1A",
"[@	c #CB945D",
"}@	c #F7C395",
"|@	c #F9C596",
"1@	c #F0BC8E",
"2@	c #B67C40",
"3@	c #844207",
"4@	c #6B3C0F",
"5@	c #3F4214",
"6@	c #53752B",
"7@	c #3B561E",
"8@	c #231305",
"9@	c #7A3D08",
"0@	c #8D5725",
"a@	c #AC783C",
"b@	c #AC7639",
"c@	c #AC783D",
"d@	c #824817",
"e@	c #723907",
"f@	c #252E0B",
"g@	c #315124",
"h@	c #365828",
"i@	c #745324",
"j@	c #320705",
"k@	c #7C0000",
"l@	c #967172",
"m@	c #9A9F9F",
"n@	c #7A4C4D",
"o@	c #6E0206",
"p@	c #34200D",
"q@	c #715C26",
"r@	c #3A5F2B",
"s@	c #653B15",
"t@	c #D9A676",
"u@	c #641F17",
"v@	c #D72320",
"w@	c #DB7C7B",
"x@	c #D0A9A9",
"y@	c #CF5858",
"z@	c #B20F0F",
"A@	c #684C35",
"B@	c #D09D6E",
"C@	c #4D3410",
"D@	c #223B19",
"E@	c #A46D35",
"F@	c #9A7356",
"G@	c #A91C19",
"H@	c #E22925",
"I@	c #DF9493",
"J@	c #DCCBCB",
"K@	c #E06C6B",
"L@	c #B61212",
"M@	c #983226",
"N@	c #A17954",
"O@	c #8B5B29",
"P@	c #73872B",
"Q@	c #252113",
"R@	c #DEAF83",
"S@	c #5D3A2A",
"T@	c #B91615",
"U@	c #E12E2B",
"V@	c #D25857",
"W@	c #BE7575",
"X@	c #D94544",
"Y@	c #B81312",
"Z@	c #A30507",
"`@	c #8C6E51",
" #	c #C39973",
".#	c #17200A",
"+#	c #849B32",
"@#	c #4D6F28",
"##	c #916738",
"$#	c #E8B98F",
"%#	c #D09A66",
"&#	c #412C22",
"*#	c #612B4E",
"=#	c #BE0701",
"-#	c #DBA09F",
";#	c #DFDDDD",
">#	c #BA6F6F",
",#	c #A71018",
"'#	c #432B4E",
")#	c #6F4D27",
"!#	c #DFAD7E",
"~#	c #DBAA7C",
"{#	c #6A5028",
"]#	c #3C632D",
"^#	c #B68D67",
"/#	c #F4DDCB",
"(#	c #BD9675",
"_#	c #51558B",
":#	c #6E86EA",
"<#	c #28247A",
"[#	c #34387F",
"}#	c #374180",
"|#	c #3F497E",
"1#	c #2A2C89",
"2#	c #718AEC",
"3#	c #6A546B",
"4#	c #D1B5A0",
"5#	c #F6D4B8",
"6#	c #85674A",
"7#	c #8AA435",
"8#	c #385C29",
"9#	c #795828",
"0#	c #C6996F",
"a#	c #635146",
"b#	c #A3B0F3",
"c#	c #5E75FF",
"d#	c #5166F3",
"e#	c #5A6EEB",
"f#	c #6E86FF",
"g#	c #6C84E0",
"h#	c #4A5EFC",
"i#	c #7185FF",
"j#	c #95A1D9",
"k#	c #8F704F",
"l#	c #BA8C5E",
"m#	c #5A4D21",
"n#	c #5A8130",
"o#	c #2C4A20",
"p#	c #334F2A",
"q#	c #AAABB0",
"r#	c #B2B4F7",
"s#	c #A2A9E6",
"t#	c #3646B9",
"u#	c #5A6FBB",
"v#	c #2C35BC",
"w#	c #B7BFF2",
"x#	c #AEAFEE",
"y#	c #999C96",
"z#	c #2D4C21",
"A#	c #697D27",
"B#	c #403A26",
"C#	c #C8AE98",
"D#	c #7B7B98",
"E#	c #223B7A",
"F#	c #345727",
"G#	c #1A2891",
"H#	c #939095",
"I#	c #C2A68E",
"J#	c #0F1E09",
"K#	c #345627",
"L#	c #496925",
"M#	c #485419",
"N#	c #764214",
"O#	c #8E552D",
"P#	c #DBAB7F",
"Q#	c #1E3515",
"R#	c #3D642E",
"S#	c #88A134",
"T#	c #443921",
"U#	c #E2AF81",
"V#	c #7F400A",
"W#	c #653C15",
"X#	c #1D3014",
"Y#	c #859D32",
"Z#	c #4D7028",
"`#	c #643505",
" $	c #B07937",
".$	c #E9B685",
"+$	c #BE844A",
"@$	c #8C5730",
"#$	c #5D6F22",
"$$	c #383E17",
"%$	c #9C6235",
"&$	c #CD9661",
"*$	c #E0AD79",
"=$	c #A16828",
"-$	c #4C340B",
";$	c #4F7229",
">$	c #785B08",
",$	c #D8B143",
"'$	c #B68E2C",
")$	c #81480F",
"!$	c #2E3E1A",
"~$	c #5D8632",
"{$	c #5B8230",
"]$	c #3F3413",
"^$	c #8D5712",
"/$	c #C9A33B",
"($	c #C69F35",
"_$	c #58480E",
":$	c #59802F",
"<$	c #203918",
"[$	c #213918",
"}$	c #25401C",
"|$	c #3D642D",
"1$	c #213919",
"2$	c #203818",
"3$	c #3A602B",
"  . . . . . . . . . . . + @ # $ # % % & *   .   * . . . . . . . ",
".     . . . * * * . . = - ; > , ' ) ! ~ { ] .     * * . . . .   ",
". . *   . . *       ^ / ( _ : < [ } | 1 2 3 4 .       * . .     ",
". .   . .       . 5 6 7 8 9 0 a b c d e f g h i . .     . .   . ",
"* . . . . . . + j k l m n o p q q q r s t u v w x . .   . . . . ",
"    . * * * + y z A B C D E F G G G H I J K L M N O * . * . . . ",
"    *     . P Q R S T U V W X Y Y X Z `  ...+.@.#.$.%..   . . * ",
". .     . &.*.=.-.;.>.,.'.).!.~.{.].^./.(._.:.<.[.}.|.1.. . *   ",
". .   . . 2.3.4.5.6.7.8.9.0.a.b.c.d.e.f.!.g.h.i.j.k.l.m.. *     ",
". * . . n.o.p.q.r.s.t.u.v.w.x.y.z.A.B.C.D.E.t.F.G.H.I.J.K.    . ",
".     . L.M.N.O.P.Q.R.S.T.U.V.W.X.Y.Z.`. +.+++@+#+g $+%+&+. . . ",
"*   . . *+=+-+;+>+++,+'+)+!+~+{+X.]+^+/+(+_+:+<+[+}+|+1+2+. . . ",
"  . .     3+4+5+t.++6+7+8+9+0+a+b+c+d+e+f+g+h+i+j+k+l+m+. . .   ",
". . . . . . n+o+p+:+q+r+s+t+u+v+X.b+w+x+y+z+:+:+A+B+5 .   * * . ",
". * * * . . . C+:+D+E+F+G+H+I+J+X.K+L+M+N+O+P+Q+R+  . . .   * * ",
"*     . . .   S+T+U+V+W+X+Y+Z+`+X. @.@+@@@#@$@%@&@. . . . .     ",
"    .   * * .   *@=@-@;@>@,@'@X.X.X.)@!@~@{@]@^@/@. . *   . . * ",
"  . . .   * * .   (@_@:@<@[@}@|@|@|@1@2@3@4@5@6@. . *     . *   ",
". . . . .     .   *   7@8@9@0@a@b@c@d@e@f@g@* . . *     .       ",
". .   * * . . . .     h@i@j@k@l@m@n@o@p@q@r@. . . . . . .     . ",
"  . . . * * * . .   *@s@t@u@v@w@x@y@z@A@B@C@i . . . . . . . . . ",
"  . . . .     * * . D@E@F@G@H@I@J@K@L@M@N@O@g@. . . * * . . .   ",
". . . . . .       P@Q@R@S@T@U@V@W@X@Y@Z@`@ #.#+#. *     . . *   ",
". . . . . . . . @###$#%#&#*#=#-#;#>#,#'#)#!#~#{#]#    . . *     ",
". . . . * *   . # ^#/#(#_#:#<#[#}#|#1#2#3#4#5#6#7#  . . *     . ",
"  . . *     . . 8#9#0#a#b#c#d#e#f#g#h#i#j#k#l#m#n#. .       . . ",
". .       . . . . 4 o#p#q#r#s#t#u#v#w#x#y#z#o#]#. . . . . . . . ",
". .   . . . . . . . . A#B#C#D#E#F#G#H#I#J#K#. . . * * * . . .   ",
". . . . * . . . * L#M#N#O#P#Q#R#  S#T#U#V#W#X#Y#*     . . .     ",
". . . .   * . * Z#`# $.$+$@$#$* .   $$%$&$*$=$-$/@  .   * * .   ",
"*   . . .   *   ;$>$,$'$)$!$~$* *   {$]$^$/$($_$:$. . .   * * . ",
"  . . . . .     . % <$[$}$. .     . . |$1$[$2$3$. . . . .     . "};
