/* XPM */
static char * char_right_xpm[] = {
"32 32 457 2",
"  	c #5E8732",
". 	c #406930",
"+ 	c #395E2A",
"@ 	c #375B29",
"# 	c #51752B",
"$ 	c #94AF39",
"% 	c #3A5F2B",
"& 	c #2F5023",
"* 	c #502A0A",
"= 	c #603005",
"- 	c #7B5C08",
"; 	c #7B5D08",
"> 	c #6E4807",
", 	c #5F2D06",
"' 	c #471504",
") 	c #456424",
"! 	c #4E7129",
"~ 	c #577D2E",
"{ 	c #393C12",
"] 	c #9D999C",
"^ 	c #D8B570",
"/ 	c #AB7A17",
"( 	c #8A5A06",
"_ 	c #895A06",
": 	c #7E4705",
"< 	c #874107",
"[ 	c #833C07",
"} 	c #6E3406",
"| 	c #49220B",
"1 	c #345627",
"2 	c #3C632D",
"3 	c #393610",
"4 	c #AD8531",
"5 	c #F6D47C",
"6 	c #B68F4D",
"7 	c #894910",
"8 	c #CB2B27",
"9 	c #CC2A27",
"0 	c #CE2B28",
"a 	c #822414",
"b 	c #462105",
"c 	c #462205",
"d 	c #2E1004",
"e 	c #212C0D",
"f 	c #2F4215",
"g 	c #3F672F",
"h 	c #2B260F",
"i 	c #7D4906",
"j 	c #9D6B15",
"k 	c #894C1D",
"l 	c #C53527",
"m 	c #5B1B0D",
"n 	c #613312",
"o 	c #6A411B",
"p 	c #895319",
"q 	c #945B18",
"r 	c #AF8518",
"s 	c #AA800B",
"t 	c #AB810B",
"u 	c #986409",
"v 	c #53380C",
"w 	c #2E2F11",
"x 	c #3E652E",
"y 	c #422007",
"z 	c #863A0A",
"A 	c #AC271E",
"B 	c #CD2928",
"C 	c #741F11",
"D 	c #7D6330",
"E 	c #A98365",
"F 	c #D5AC38",
"G 	c #F2C950",
"H 	c #EEC54F",
"I 	c #EDC34F",
"J 	c #E7BD4A",
"K 	c #AC7D0B",
"L 	c #AB7D0B",
"M 	c #AA7C0B",
"N 	c #925909",
"O 	c #564F13",
"P 	c #8CA636",
"Q 	c #1F260F",
"R 	c #621804",
"S 	c #7C1712",
"T 	c #971E1A",
"U 	c #856E29",
"V 	c #BB8F36",
"W 	c #E6BE5B",
"X 	c #D7C6B4",
"Y 	c #CDA136",
"Z 	c #9B6C01",
"` 	c #884B03",
" .	c #723203",
"..	c #713303",
"+.	c #733707",
"@.	c #793807",
"#.	c #813907",
"$.	c #803A07",
"%.	c #A4720A",
"&.	c #9C6D0A",
"*.	c #4A3A15",
"=.	c #3B612C",
"-.	c #3B4413",
";.	c #491404",
">.	c #6D4306",
",.	c #916805",
"'.	c #C29333",
").	c #D0A33F",
"!.	c #95640C",
"~.	c #782800",
"{.	c #682002",
"].	c #430004",
"^.	c #460A04",
"/.	c #5E2A02",
"(.	c #000104",
"_.	c #000004",
":.	c #280404",
"<.	c #460E04",
"[.	c #601604",
"}.	c #793106",
"|.	c #8C4508",
"1.	c #753A07",
"2.	c #6A7E27",
"3.	c #202910",
"4.	c #7C4507",
"5.	c #A5720B",
"6.	c #9B610A",
"7.	c #824204",
"8.	c #702201",
"9.	c #3E0804",
"0.	c #380A04",
"a.	c #2B0704",
"b.	c #000404",
"c.	c #000003",
"d.	c #A66E35",
"e.	c #733B0C",
"f.	c #401E05",
"g.	c #5C2D06",
"h.	c #320B04",
"i.	c #3F0F04",
"j.	c #6D2B05",
"k.	c #483B15",
"l.	c #8AA435",
"m.	c #607223",
"n.	c #7D4509",
"o.	c #A7760B",
"p.	c #894A07",
"q.	c #6C2205",
"r.	c #4A1604",
"s.	c #270804",
"t.	c #0B0504",
"u.	c #3F1D05",
"v.	c #693306",
"w.	c #70390A",
"x.	c #BD8345",
"y.	c #B47C42",
"z.	c #230F04",
"A.	c #633006",
"B.	c #552805",
"C.	c #000304",
"D.	c #180A04",
"E.	c #333611",
"F.	c #91AB38",
"G.	c #3E4817",
"H.	c #A1740A",
"I.	c #894807",
"J.	c #671C04",
"K.	c #4A1104",
"L.	c #070404",
"M.	c #040404",
"N.	c #271104",
"O.	c #7B3D07",
"P.	c #090404",
"Q.	c #6A370C",
"R.	c #BB8148",
"S.	c #F5C292",
"T.	c #F2BF91",
"U.	c #7D4414",
"V.	c #592A04",
"W.	c #572A05",
"X.	c #763B08",
"Y.	c #242D0E",
"Z.	c #27411C",
"`.	c #3F5D21",
" +	c #783B07",
".+	c #8B4508",
"++	c #681D04",
"@+	c #581504",
"#+	c #070504",
"$+	c #4B2405",
"%+	c #6E3607",
"&+	c #1D0000",
"*+	c #84541B",
"=+	c #EBB889",
"-+	c #FFCC9D",
";+	c #F8C495",
">+	c #AB7D56",
",+	c #606364",
"'+	c #503206",
")+	c #32200A",
"!+	c #101B0B",
"~+	c #3B602C",
"{+	c #436122",
"]+	c #7F3906",
"^+	c #651B04",
"/+	c #420F04",
"(+	c #0F0704",
"_+	c #813F04",
":+	c #250400",
"<+	c #8A6C61",
"[+	c #AFA7A5",
"}+	c #E8C19F",
"|+	c #F6C394",
"1+	c #AC866E",
"2+	c #9B9492",
"3+	c #B59885",
"4+	c #6F6055",
"5+	c #0D1809",
"6+	c #93AD38",
"7+	c #29461F",
"8+	c #793C07",
"9+	c #6A2104",
"0+	c #450F04",
"a+	c #430F04",
"b+	c #000204",
"c+	c #120B06",
"d+	c #A16931",
"e+	c #5F5957",
"f+	c #C0B7B4",
"g+	c #AEA3A0",
"h+	c #EEC29E",
"i+	c #F9C595",
"j+	c #A87334",
"k+	c #000000",
"l+	c #C7C3C2",
"m+	c #7B7C7D",
"n+	c #305023",
"o+	c #433915",
"p+	c #7C3A07",
"q+	c #5D1904",
"r+	c #66330A",
"s+	c #412109",
"t+	c #BE874C",
"u+	c #E5C2A4",
"v+	c #C3C4C4",
"w+	c #DDAF86",
"x+	c #FECA9B",
"y+	c #EBC4A3",
"z+	c #D1D2D3",
"A+	c #D0BAAA",
"B+	c #695341",
"C+	c #3D642E",
"D+	c #5B8230",
"E+	c #3B3E13",
"F+	c #341B09",
"G+	c #541304",
"H+	c #552200",
"I+	c #D5A177",
"J+	c #896B50",
"K+	c #C28A4F",
"L+	c #FBC99B",
"M+	c #F4D5BD",
"N+	c #E1DFDE",
"O+	c #F7D2B3",
"P+	c #FFCEA1",
"Q+	c #DBAF8D",
"R+	c #965A36",
"S+	c #492608",
"T+	c #5D8631",
"U+	c #3C622C",
"V+	c #192B12",
"W+	c #58330A",
"X+	c #A96E34",
"Y+	c #E9B584",
"Z+	c #C2884C",
"`+	c #D0985E",
" @	c #F7C494",
".@	c #FAC99C",
"+@	c #FFCD9E",
"@@	c #E0AA78",
"#@	c #995C22",
"$@	c #544B13",
"%@	c #5A8230",
"&@	c #7E9530",
"*@	c #67480E",
"=@	c #996631",
"-@	c #7F4716",
";@	c #B37739",
">@	c #B87C3B",
",@	c #DCA570",
"'@	c #EFBB89",
")@	c #EFBA89",
"!@	c #EDB988",
"~@	c #D4A275",
"{@	c #8F5B25",
"]@	c #605516",
"^@	c #577E2E",
"/@	c #4F7229",
"(@	c #2D4B21",
"_@	c #0B1407",
":@	c #622D01",
"<@	c #72461C",
"[@	c #8E6230",
"}@	c #8A5B1E",
"|@	c #8A5F2A",
"1@	c #885B29",
"2@	c #60470F",
"3@	c #2C4B20",
"4@	c #87A033",
"5@	c #436022",
"6@	c #6C3B04",
"7@	c #450405",
"8@	c #960409",
"9@	c #600000",
"0@	c #A8ABAB",
"a@	c #995254",
"b@	c #20280A",
"c@	c #53782C",
"d@	c #34391C",
"e@	c #DCAD83",
"f@	c #5B1B13",
"g@	c #B30C0C",
"h@	c #C41C1B",
"i@	c #B06B5F",
"j@	c #D14A44",
"k@	c #A01712",
"l@	c #3B561E",
"m@	c #28441D",
"n@	c #B27F4A",
"o@	c #B9834A",
"p@	c #66120A",
"q@	c #C41D1B",
"r@	c #E2302D",
"s@	c #921912",
"t@	c #D8C7C7",
"u@	c #D34543",
"v@	c #350906",
"w@	c #3D5A20",
"x@	c #3F682F",
"y@	c #3D652E",
"z@	c #51611C",
"A@	c #E3B58B",
"B@	c #634231",
"C@	c #B30F0F",
"D@	c #CC2321",
"E@	c #E2312E",
"F@	c #CF2A28",
"G@	c #C47474",
"H@	c #D3312F",
"I@	c #9B0609",
"J@	c #3C2B12",
"K@	c #4D5426",
"L@	c #59802F",
"M@	c #433F18",
"N@	c #8F6D50",
"O@	c #EFBF91",
"P@	c #794B30",
"Q@	c #9D1311",
"R@	c #D22724",
"S@	c #D32624",
"T@	c #960C0A",
"U@	c #CBADAB",
"V@	c #912B1A",
"W@	c #8A2D00",
"X@	c #B68757",
"Y@	c #936F4B",
"Z@	c #53772B",
"`@	c #507329",
" #	c #76491B",
".#	c #EAB484",
"+#	c #F7DCC7",
"@#	c #B17E53",
"##	c #370E00",
"$#	c #770000",
"%#	c #750000",
"&#	c #790000",
"*#	c #8F68B8",
"=#	c #5A6EC8",
"-#	c #3B21B0",
";#	c #9C764B",
">#	c #7E784B",
",#	c #3E662E",
"'#	c #596225",
")#	c #B58451",
"!#	c #F2CAA8",
"~#	c #A36C43",
"{#	c #11066B",
"]#	c #3E50E2",
"^#	c #6C86E0",
"/#	c #3748E0",
"(#	c #6F8AFC",
"_#	c #656FFE",
":#	c #B4B4D3",
"<#	c #354E1A",
"[#	c #454A21",
"}#	c #5D4734",
"|#	c #4F425E",
"1#	c #4B53F1",
"2#	c #758EFF",
"3#	c #5A70BD",
"4#	c #15205B",
"5#	c #7186E6",
"6#	c #885774",
"7#	c #535B50",
"8#	c #3C642D",
"9#	c #3F6830",
"0#	c #93AE39",
"a#	c #4B5725",
"b#	c #D4D0CF",
"c#	c #CEC8E1",
"d#	c #0714C5",
"e#	c #345424",
"f#	c #43483C",
"g#	c #E3B387",
"h#	c #6F5842",
"i#	c #644E36",
"j#	c #455426",
"k#	c #2B4014",
"l#	c #9C6026",
"m#	c #C5905C",
"n#	c #443A14",
"o#	c #587F2F",
"p#	c #2B2E13",
"q#	c #B27B47",
"r#	c #E8B587",
"s#	c #DCA96E",
"t#	c #825620",
"u#	c #708329",
"v#	c #92AD38",
"w#	c #4F7329",
"x#	c #836031",
"y#	c #E1AD7B",
"z#	c #EFBC90",
"A#	c #602100",
"B#	c #2D4D22",
"C#	c #476524",
"D#	c #490D00",
"E#	c #6A3C00",
"F#	c #836200",
"G#	c #664004",
"H#	c #42531D",
"I#	c #5C8431",
"J#	c #253F1B",
"K#	c #834F26",
"L#	c #CD9D5F",
"M#	c #B67F57",
"N#	c #672C00",
"O#	c #6E8329",
"P#	c #345727",
"Q#	c #335626",
"R#	c #4D6F28",
"S#	c #335526",
"T#	c #302E12",
"U#	c #4E3802",
"V#	c #3F1E02",
"W#	c #49501A",
"X#	c #5B8330",
"  . . . . . . . . . . . + @ @ # @ @ @ $ $   .   $ . . . . . . . ",
".     . . . $ $ $ . % & * = - ; > , ' ) ! . .     $ $ . . . .   ",
". . $   . . $     ~ { ] ^ / ( _ : < [ } | 1 . .       $ . .     ",
". .   . .       2 3 4 5 6 7 8 9 0 a b c d e f % . .     . .   . ",
"$ . . . . . . g h i j k l 8 m n o p q r s t u v w x .   . . . . ",
"    . $ $ $ . % y z A B C D E F G H I J K K L M N O P . $ . . . ",
"    $     . . Q R S T U V W X Y Z `  ...+.@.#.$.%.&.*.=.  . . $ ",
". .     .   $ -.;.>.,.'.).!.~.{.].^./.(._.:.<.[.}.|.1.2.. . $   ",
". .   . . . . 3.4.5.6.7.8.9.0.a.b.c.d.e.f.g._.h.i.j.k.l.. $     ",
". $ . . . $ m.n.o.p.q.r.s.t.u.v._.w.x.y.z.A.B.C.D.E.2 .       . ",
".     . . F.G.H.I.J.K.L.M.N.O.P.Q.R.S.T.U.V.W.M.X.Y.Z.. . . . . ",
"$   . . $ `. +.+++@+C.M.#+$+%+&+*+=+-+;+>+,+'+)+!+~+{+. $ . . . ",
"  . .     `. +]+^+/+b.M.(+_+:+<+[+}+-+|+1+2+3+4+5+6+    . . .   ",
". . . . . 7+8+9+0+a+b.b+c+d+e+f+g+h+-+i+j+k+l+m+n+    .   $ $ . ",
". $ $ $ . 2 o+p+q+@+(.r+s+t+u+v+k+w+-+x+y+z+A+B+C+  . . .   $ $ ",
"$     . . . D+E+F+G+H+I+J+K+L+M+N+O+-+-+P+Q+R+S+C+. . . . .     ",
"    .   $ $ . T+U+V+W+X+Y+Z+`+ @.@+@-+-+x+@@#@$@%@. . $   . . $ ",
"  . . .   $ $ .   . &@*@=@-@;@>@,@'@)@!@~@{@]@^@. . $     . $   ",
". . . . .     .   $   /@(@_@:@<@[@}@|@1@2@3@4@. . $     .       ",
". .   $ $ . . . .     . 5@6@7@8@9@0@a@b@c@. . . . . . . .     . ",
"  . . . $ $ $ . .   . . d@e@f@g@h@i@j@k@l@. . . . . . . . . . . ",
"  . . . .     $ $ . . m@n@o@p@q@r@s@t@u@v@w@x@. . . $ $ . . .   ",
". . . . . .       $ y@z@A@B@C@D@E@F@G@H@I@J@K@F.. $     . . $   ",
". . . . . . . .   L@M@N@O@P@Q@R@S@T@U@V@W@X@Y@Z@.     . . $     ",
". . . . $ $   . . `@ #.#+#@###$#%#&#*#=#-#;#>#C+$   . . $     . ",
"  . . $     . . . ,#'#)#!#~#{#]#^#/#(#_#:#<#y@.   . .       . . ",
". .       . . . . . g [#}#|#1#2#3#4#5#6#7#8#9#. . . . . . . . . ",
". .   . . . . . . . . 0#a#b#c#d#e#x@f#g#h#i#j#x@. $ $ $ . . .   ",
". . . . $ . . . $   $   k#l#m#n#o#$ p#q#r#s#t#u#v#    . . .     ",
". . . .   $ . $   .   w#x#y#z#A#B#  C#D#E#F#G#H#I#  .   $ $ .   ",
"$   . . .   $     .   J#K#L#M#N#O#    P#Q#R#S#,#  . . .   $ $ . ",
"  . . . . .     . . . 8#T#U#V#W#X#. . . . . . . . . . . .     . "};
