/* XPM */
static char * ext_rup_xpm[] = {
"32 32 61 1",
" 	c #5E8732",
".	c #406930",
"+	c #94AF39",
"@	c #92AE39",
"#	c #5C8532",
"$	c #93AE39",
"%	c #608832",
"&	c #426B30",
"*	c #8EAA38",
"=	c #8EA938",
"-	c #8CA838",
";	c #5A8332",
">	c #89A537",
",	c #4F7731",
"'	c #507931",
")	c #779435",
"!	c #6F8E34",
"~	c #6E8C34",
"{	c #4E7731",
"]	c #537C31",
"^	c #355F2C",
"/	c #789935",
"(	c #6B9033",
"_	c #749635",
":	c #8FAA38",
"<	c #436C30",
"[	c #2E592A",
"}	c #335C2A",
"|	c #674422",
"1	c #466D30",
"2	c #683820",
"3	c #985818",
"4	c #416930",
"5	c #416A30",
"6	c #527B31",
"7	c #456E30",
"8	c #D6BD42",
"9	c #C88028",
"0	c #5D8632",
"a	c #6A8934",
"b	c #8DA938",
"c	c #446C30",
"d	c #4C7531",
"e	c #4D7631",
"f	c #312952",
"g	c #7A9736",
"h	c #517531",
"i	c #5A3973",
"j	c #527A31",
"k	c #507431",
"l	c #382028",
"m	c #729035",
"n	c #2C5729",
"o	c #4C7131",
"p	c #517A31",
"q	c #446D30",
"r	c #392C29",
"s	c #547D31",
"t	c #BC7D29",
"u	c #D5BC42",
"v	c #385F4B",
" .............. ...++ . +.......",
".  ...+++.....+ ..+  ..  ++.... ",
".. ....  ++..+ ..+  ....   +..  ",
"........   +.+..+  ..  ...  .. .",
"+ ........  ..........  ........",
" .....++ .. .... ..........++...",
" . ..+  .... ..+.......++.+  ..+",
". ..   .......+ ..... . +.  ..+ ",
". .. ........+ . .... .. + ..+  ",
"......+...+ . ... ++.. .. ..   .",
"...... +.+ . .....  +...........",
"..@ ... +  ........  +....+++...",
".+#.....  .......++.  ...+  ... ",
".$#... .. .++...+  ..  ..  . ++.",
".%....  .... +.+  .... .. ... ++",
" &..... ..... +  ... +........  ",
" #...+. .  ..........*=...-;...-",
" .... +.  .. ++&>,'..) !.~{]]^/ ",
"...... . ....  +(_..:##<<<#[#<}|",
".1 ++.........   ,<   ..223 3332",
"45.  +...........67....223838993",
"++..  ..++....+ 0ab+...238898889",
"  ...  .+ ...+ .cd;... .29889993",
" .....   .... ..5e. ++.22398393f",
".+++..  ..... ..5gh. ++ 2239i3ff",
"..  +.....++.....jk4.   ++98fffl",
"...  +..++ ......m 4..+n  +88fil",
"....  .   ......op...+ 222398fil",
"+....    ...++..q...    .2239lfl",
" +.... ...... +...<.  .+ 9323lfl",
". ............ +.,<.0.. +8932llr",
"..........  ... ...;..stu8893rlv"};
