/* XPM */
static char * ext_right_xpm[] = {
"32 32 45 1",
" 	c #5E8732",
".	c #406930",
"+	c #3E663A",
"@	c #985818",
"#	c #683820",
"$	c #D6BD42",
"%	c #C88028",
"&	c #94AF39",
"*	c #2C5729",
"=	c #406830",
"-	c #3F6631",
";	c #406A31",
">	c #3F6831",
",	c #90AB39",
"'	c #3F6834",
")	c #5B8233",
"!	c #3F6731",
"~	c #5E8733",
"{	c #3E6531",
"]	c #683A20",
"^	c #3F6833",
"/	c #3F6830",
"(	c #3F6736",
"_	c #D5BC42",
":	c #5C8536",
"<	c #C5B13F",
"[	c #3E6432",
"}	c #3F6735",
"|	c #3F6835",
"1	c #8B5C1F",
"2	c #3E6532",
"3	c #975819",
"4	c #406931",
"5	c #5E8834",
"6	c #90AA3A",
"7	c #5D8633",
"8	c #CFB941",
"9	c #CFB841",
"0	c #5D8632",
"a	c #8E651F",
"b	c #40693A",
"c	c #3E6639",
"d	c #C2AF3F",
"e	c #406832",
"f	c #3E6631",
" .+@#@$%& ***... ..&&...& ...&..",
".  =@$$%@%*.*..& .. ............",
"=. -@$%@%@*...& ....  ...&&&....",
"=.;.>%@&& .* .&...... ....  &&..",
", =.'$%@ *.*...............   &.",
")..!$%@ *..........& ........  .",
"~. {%@##*  .....&.& .....&& .. .",
". .!@#$% & *...& .  . ..&  .... ",
". .-]$%%& .**.& .... ..   ......",
"..=.'%%@##*.*. ..&.. .. ........",
"....^@@#.**......&&......&...& .",
"..& /$%&& .*  ........... &.& . ",
".& (_$&  *.*...   ...& ... &  ..",
".&:<$%@###.....  ...& .....  ...",
". [$%@##.  .........& ... .. .&&",
" .}%@#@@ & *..&..&&. ....  .... ",
"  |1#@$%& ***. .    ...... .....",
" ..2@$$%@%*.*.    .  ...&. .  ..",
"...!3$%@%@*.... ... .... &.  .. ",
".45&6@@#.**.............. . ....",
"... 7$%&& .* ...&&... &&........",
"&&.=8$&  *.*...&  ....  &.......",
"  29$%@###.........&&..  ..&&...",
" .2$%@##.  .......   ...  .& ...",
".&,%@#@@ & *  .. .. .....   ....",
"..0@#@$%& **. .& ...&&&..  .....",
"...0@$$%@%*...& .....  &.....&&.",
"..=!a$%@%@*...&.......  &..&& ..",
"&.-.b%@&&  .. .........  .   ...",
" &..cd%@ *. .......&....    ...&",
". .4_%@ *.......... &.... ......",
"e=;f%@##* ........ . ..........."};
