/* XPM */
static char * ext_down_xpm[] = {
"32 32 43 1",
" 	c #5E8732",
".	c #406931",
"+	c #406930",
"@	c #3F6731",
"#	c #406832",
"$	c #406932",
"%	c #406933",
"&	c #3F6833",
"*	c #94AE39",
"=	c #93AE3A",
"-	c #94AF39",
";	c #406830",
">	c #90AA3A",
",	c #3E6532",
"'	c #5D8632",
")	c #3F6835",
"!	c #92AD3B",
"~	c #5B8233",
"{	c #5C8533",
"]	c #5B8338",
"^	c #92AD39",
"/	c #5D8533",
"(	c #5E8836",
"_	c #3F6831",
":	c #5C8536",
"<	c #985818",
"[	c #85A045",
"}	c #5B8339",
"|	c #40693A",
"1	c #8DA73F",
"2	c #5D8837",
"3	c #3E6737",
"4	c #975919",
"5	c #5D8535",
"6	c #D6BD42",
"7	c #C88028",
"8	c #985D1A",
"9	c #406B33",
"0	c #91AC3C",
"a	c #945D1B",
"b	c #406A31",
"c	c #683820",
"d	c #2C5729",
" ..+..@@#$%&#++ +++*= + -....+++",
".  ;;.>**+,+@+-'$)!~{.@']^^#+++/",
".#(++_+:<<<.+[}+|12 +@_3<<4-+&5 ",
"$<<@;<<<677<$8<90<<_;<<<677a.<ab",
"<67<<676777<c667<67<<676777<c667",
"67776777<<<c667<67776777<<<c667<",
"<7<<77<cdcc<77<c<7<<77<cdcc<77<c",
"+<<c<ccc+c ccdcc+<<c<ccc+c ccdcc",
"+++++++++ +++-- + -+++++++ +++++",
"---+++++- ++-  ++  --++++ +  +++",
"-++++---+++ ++++  ++++++  -++++-",
" +++-  +++ ++++++  + -+++  +++- ",
"  ++  + --++++++++ ++ -+++  ++  ",
"+ ++ +++ --+++++++++++ ++++ ++ +",
"-++++++++  ++++++ +++-- + -+++++",
"--+++- +++-+++++- +++ ++++++  + ",
"+ -+- +++- --++- + --++++++++ ++",
"++   +++     -+-+++ --++++++++++",
"+++ ++++  ++  ++++++  ++++++ +++",
"+--+++++ ++++ +++++++-+++++- ++-",
"++++  + -++--+ ++d++- --++- ++- ",
"+++++ ++ -++++++ ++     -+-++-  ",
"+++++++++ + ++++  +  ++  +++++++",
"++++ +++-- ++++++ + ++++ ++++ ++",
"+++ ++++++  + -++- ++ +++ ++-+++",
" --++++++++ ++ -++++  +++++- +++",
"+ --+++++++++++ + ++  ++++- + ++",
"++  ++++++ +++-- +-+ ++- + +++ -",
"+++-+++++- ++-  ++ -++- + +++++ ",
"++- --++- ++-  +++++++++++- --++",
"+     -+-++-  ++ ++++++ +     -+",
"+  ++  +++++++++++++++- +  ++  +"};
