/* XPM */
static char * ext_left_xpm[] = {
"32 32 67 1",
" 	c #406930",
".	c #94AF39",
"+	c #5E8732",
"@	c #683820",
"#	c #985818",
"$	c #C88028",
"%	c #D6BD42",
"&	c #477744",
"*	c #406A31",
"=	c #595228",
"-	c #3D643E",
";	c #5E8633",
">	c #2C5729",
",	c #CFB841",
"'	c #5C8838",
")	c #406935",
"!	c #3F6735",
"~	c #93AF3C",
"{	c #5B843B",
"]	c #5D8633",
"^	c #945D1B",
"/	c #5D8635",
"(	c #406936",
"_	c #3E6432",
":	c #3F6736",
"<	c #3F6631",
"[	c #406931",
"}	c #3F6834",
"|	c #C2AF3F",
"1	c #3E6738",
"2	c #5C8437",
"3	c #8BA541",
"4	c #3E6737",
"5	c #87A244",
"6	c #8BA43A",
"7	c #5B8333",
"8	c #5A8134",
"9	c #935A1B",
"0	c #416A32",
"a	c #8FAF45",
"b	c #94AE39",
"c	c #5B8233",
"d	c #59803C",
"e	c #5D8535",
"f	c #BEB03E",
"g	c #5B893A",
"h	c #3F6835",
"i	c #BBAB3E",
"j	c #406946",
"k	c #567E40",
"l	c #5C8B3F",
"m	c #5A823A",
"n	c #537B4D",
"o	c #3D653D",
"p	c #98631C",
"q	c #40693D",
"r	c #406938",
"s	c #567B35",
"t	c #5D8634",
"u	c #5B8438",
"v	c #5B8338",
"w	c #BA7D29",
"x	c #406832",
"y	c #5C8535",
"z	c #3F6731",
"A	c #653E22",
"B	c #3E6531",
"  .+ +   +..  +  +  +++ @@#$%#&*",
" .+ +     ++.           #$@##= +",
".++        ++.    ...   +..$%-;+",
"++       .. ++   .++   +>++.%,' ",
" + ..   .++  ++  ++ +.. @@@#$%%)",
"    +. .++    +  +   +..+ @@#$%!",
"     +.++   +.        ++.+##@#$~",
" ++          ..   .+   .+.$%#@#;",
"++  +.. .     +. .+   .+$#$%%#{]",
"+    ++.+.     +++   +++#$#$%^/(",
"      +++++     +    ++ +..#$_*:",
"         ++   ..     +  >+#$%<[}",
"..    .++ +  .++    +  + >+#$|12",
".+   .+     .++       +++>@@#$34",
"+    +      ++   +    ++.+%#@#56",
"     +   ..     +  .. + +.$%#@78",
"  ..     +..    +  ++.  @@#$%90a",
"..+       +..       ++  #$@##@bc",
"++         +.   ...  + ++..$%d+e",
"+   ..      +  ..+    ++>++.%fgh",
"     +.   + + +++      +@@@#$%ij",
"       +   ..+ +.       + @@#$,k",
".     .+  .++  ++..    +.+##@#$l",
"+..  .+  .++    +++.  +++.$%#@^m",
"+++. .  .++  ++   ++  + $#$%%#no",
"  ++          ++        #$#$%pqr",
"+  +    +          ..   +..#$s [",
"    +  .       .. .++  .>+#$%c t",
"      .+     + +. ++  .+ >+#$|uv",
"     .+ +    +  +.+  .+++>@@#wxy",
"  .+ +   +..  +  +  +++ .+%#@9xz",
" .+ +     ++.           +.$%#AzB"};
