/* XPM */
static char * ext_rdown_xpm[] = {
"32 32 69 1",
" 	c #5E8732",
".	c #406930",
"+	c #3F6C35",
"@	c #3D653C",
"#	c #CFB841",
"$	c #C88028",
"%	c #985818",
"&	c #2C5729",
"*	c #94AF39",
"=	c #406931",
"-	c #578C46",
";	c #3E6531",
">	c #683820",
",	c #3E6432",
"'	c #3B5E34",
")	c #445C3B",
"!	c #594E30",
"~	c #D6BD42",
"{	c #466E30",
"]	c #557832",
"^	c #3F6E39",
"/	c #3E6639",
"(	c #7A4722",
"_	c #7B451E",
":	c #BC7724",
"<	c #8F9931",
"[	c #608732",
"}	c #779535",
"|	c #88A345",
"1	c #945D1B",
"2	c #945D24",
"3	c #935920",
"4	c #78462D",
"5	c #5B5033",
"6	c #46682F",
"7	c #8EA938",
"8	c #B77221",
"9	c #98601B",
"0	c #7A7729",
"a	c #426A30",
"b	c #4D7231",
"c	c #5A8332",
"d	c #C68028",
"e	c #BE8129",
"f	c #929138",
"g	c #446D30",
"h	c #5B8332",
"i	c #8C6721",
"j	c #65642A",
"k	c #5D6C2F",
"l	c #4E7331",
"m	c #94591A",
"n	c #6F6228",
"o	c #416930",
"p	c #84A037",
"q	c #436C30",
"r	c #5D8632",
"s	c #719434",
"t	c #507931",
"u	c #8FAB38",
"v	c #598232",
"w	c #4A7331",
"x	c #578031",
"y	c #477030",
"z	c #829E37",
"A	c #749634",
"B	c #92AD39",
"C	c #93AE39",
"D	c #416A30",
" .+@#$% &...... *.* ...* .......",
"= -;$%>>& ......   ...   **.... ",
",')!%>~$ **{.]... ....  .  *..  ",
"^@/(_~$:<[ *.}.**..... ...  .. .",
"|1%23%%456  ..7  .... .. .......",
">~~8%~$90a. .bc .......  ..**...",
"~~$%~$def... gh... ....  .*  ..*",
"$$%>%dijk.....l.. ..**. ..  ..* ",
">&>>.mno.....pq.. ..  *..* ..*  ",
".** .r*...* .s....***...  ..   .",
"*  ..  *o* . t...*  ... ........",
"  ....  u  ..v ..  . **...***...",
".. *  ..wx.... .. ... **.*  ... ",
"....  ...y.zAB........  .  . **.",
".....  . C..D**...* ...*. ... **",
"...... .. *... *.* ...* *.....  ",
".......... ....   ...    .* ...*",
"..... ...** .... ....  ..* ...* ",
"....* ..*  ...**..... ... ...   ",
"*..* ..*  ...*  .... .. .....  .",
" *.*..*  .. *  .......  ..... ..",
"  ..........  ... ....  .... .. ",
"  ...  .* ...* .....*  .......  ",
" .....   .... ......  ... ....  ",
".***..  ..... ...**..... ..**. .",
"..  *.....**..... **.... ..  *..",
"...  *..** ....... **.......  ..",
"....  .   ......... *...***.. . ",
"*....    ...**...... ..** ....  ",
" *.... ...... *... . .   ...... ",
". ............ *.  .. ..........",
"..........  ... ................"};
