/* XPM */
static char * ext_up_xpm[] = {
"32 32 27 1",
" 	c #406930",
".	c #94AF39",
"+	c #5E8732",
"@	c #683820",
"#	c #985818",
"$	c #D6BD42",
"%	c #C88028",
"&	c #382028",
"*	c #392328",
"=	c #392B29",
"-	c #4C7131",
";	c #678635",
">	c #406932",
",	c #3E6738",
"'	c #678637",
")	c #4C7139",
"!	c #678634",
"~	c #406931",
"{	c #5E8733",
"]	c #406939",
"^	c #3F6835",
"/	c #4A7037",
"(	c #608135",
"_	c #406938",
":	c #4B7036",
"<	c #406933",
"[	c #C17E29",
" .++     +. .++    +  +  +    ++",
".++  +    +.++   +.     +      +",
"      ++          ..   .++   . +",
"+     +  +.. .     +. .++    +. ",
"          ++.+.     +++       + ",
"     +     +++++     +    +..   ",
"+    +        ++   ..      ++.  ",
" +..  .    .++ +  .++   ..  ++  ",
"  ++. +   .+     .++    ++   ++ ",
"   ++.    +      ++   + +     ++",
".  ++     +   ..     +   ...  ++",
"+.     ..     +..    +    ++.   ",
"++.  ..+       +..         ++.  ",
" ++ +++         +.   ...    ++ +",
"  ++++   ..      +  ..+ .    +++",
"   +      +.   + + +++  +.    + ",
"           +. ++  +      +      ",
"       ++   +                   ",
" @@@+@##@+ #@    @@@+@##@+ #@   ",
"++$%@#$$%++$#@@@++$%@#$$%++$#@@@",
"$.$$%%$%#%.$%#%%$.$$%%$%#%.$%#%%",
"%$$%%#%##%$%#$$#%$$%%#%##%$%#$$#",
"#%$%@@#@##$#@%#@#%$%@@#@##$#@%#@",
"@#%@@&@&@#%@&#@&@#%@@&@&@#%@&#@&",
"&@@@&&@&&@@&&@@&&@@@&&@&&@@&&@@&",
"&&@&&@#@&#@&&@@&&&@&&@#@&#@&&@@&",
"&@@&&@#@@#@@&@#&&@@&&@#@@#@@&@#&",
"&@#&@###%%#@&@%&&@#&@###%%#@&@%&",
"@#%@#%@&#%#@&#%&@#%@#%@&#%#@&#%&",
"@%%@%@*=@#%#@#%&@%%@%@&&@#%#@#%&",
"#%#%#&=-&@@@#####%#%#&&;&@@@####",
"##>,') !~##@@~%{##]^/(_:<##@@ [ "};
