/* XPM */
static char * ext_lup_xpm[] = {
"32 32 68 1",
" 	c #5E8732",
".	c #406930",
"+	c #416930",
"@	c #94AF39",
"#	c #93AE39",
"$	c #5A8332",
"%	c #8EAA38",
"&	c #547731",
"*	c #527631",
"=	c #688833",
"-	c #4D7531",
";	c #4C7431",
">	c #749634",
",	c #85A337",
"'	c #7F9B36",
")	c #7E9A36",
"!	c #466D30",
"~	c #92AE39",
"{	c #416A30",
"]	c #5D8632",
"^	c #8FAB38",
"/	c #90AC38",
"(	c #658C33",
"_	c #5B8432",
":	c #456C30",
"<	c #4D7631",
"[	c #436C30",
"}	c #683820",
"|	c #2C5729",
"1	c #985818",
"2	c #4A6F31",
"3	c #D6BD42",
"4	c #C88028",
"5	c #436B30",
"6	c #426B30",
"7	c #4B7431",
"8	c #598232",
"9	c #4A7331",
"0	c #84A037",
"a	c #588132",
"b	c #312952",
"c	c #382028",
"d	c #5A3973",
"e	c #497231",
"f	c #5B7C32",
"g	c #88A637",
"h	c #8BA838",
"i	c #88A437",
"j	c #709334",
"k	c #4A7231",
"l	c #5F8832",
"m	c #985918",
"n	c #92601D",
"o	c #98601B",
"p	c #406931",
"q	c #382828",
"r	c #382128",
"s	c #577F31",
"t	c #406945",
"u	c #588142",
"v	c #3F6736",
"w	c #476F30",
"x	c #729434",
"y	c #426A30",
"z	c #3F6833",
"A	c #392A29",
"B	c #8AA638",
"C	c #4B7331",
" .............. ..+@@ . @.......",
".  ...@@@.....@ ..@  ..  @@.... ",
".. ....  @@..@ ..#  ....   @..  ",
"........   @.@..@  ..  ...  .. .",
"@ ........  ..........  ........",
" .....@@ .. .... ..........@@...",
" . ..@  .... ..@.......@@.@  ..@",
". ..   .......@ ..... . @.  ..@ ",
". .. ........@ . .... .. @ ..@  ",
"......@++.@ . ... @@.. .. ..   .",
"......$%&@$. *....  @...........",
"..=-...;>,;..')...!  @....@@@...",
".@~.....{ ....]^.@/.  ...@  ... ",
".. @... . .....]( _..  ..  . @@.",
"... @.  .. ..+.: <.... .. ... @@",
" ... .........@#[... @........  ",
" }}. |.  @@..@ ].....@@...@ ...@",
"11}  1}|.  .@  .2..... @.@ ...@ ",
"341 141}|. .  .56>.....   ...   ",
"33414331@@ ....{ 78+.... ....  .",
"3334333@  .@....]98...@@..... ..",
"1441434@ ||@@..  0a..@  .... .. ",
"}11b141 1}}..  .]a..@  .......  ",
"}1cbb1d441  ..|..ae.  ... ....  ",
"}}ccbbb33@   .|..fg..... ..@@. .",
"c}ccdb334 }|.... h0#.... ..  @..",
"ccccdb341}}} @...ij#@.......  ..",
"}}ccbc41}}|.  @...kl@...@@@.. . ",
"m}ccbc1}4|}|.  ..... ..@@ ....  ",
"nopqrc}434}|......s. .   ...... ",
"tuvpqc13331}|  ..wxy. ..........",
"...zAc}4334}| |..BC{............"};
