/* XPM */
static char * ext_ldown_xpm[] = {
"32 32 18 1",
" 	c #5E8732",
".	c #406930",
"+	c #94AF39",
"@	c #985818",
"#	c #C88028",
"$	c #D6BD42",
"%	c #3D6332",
"&	c #3E6532",
"*	c #3F6834",
"=	c #3E663A",
"-	c #3F6736",
";	c #3F6C36",
">	c #406932",
",	c #5B8339",
"'	c #683820",
")	c #3F6D36",
"!	c #5C8538",
"~	c #2C5729",
" ....  + +.....   ...   @##$%&*=",
"......     ..... ....  ..@##-;>,",
".........  ...++..... ..'''@@)!@",
"++....+  . ..+  .... .. ..@#$@@$",
"+ ...+ .....+  .......  ~  @#'@#",
"+++... ....  .........  .~..@'.'",
"  ... ......  . +..++. ..~~.'.. ",
" . ++........ .. +...... ...++ .",
"... ++........... . ....  ......",
"....  ...... ...++ ......  . +..",
"+ ...+.....+ ..+  ........ .. +.",
" ...+ ++..+ ..+  ............. .",
"...     +.+..+  .. ...... ...++ ",
"...  ..  ...............+ ..+  .",
"... .... .... .....++..+ ..+  ..",
".. .. ... ..+......  +.+..+  .. ",
"....  .....+ ..... .  ..........",
"....  ....+ . .... .. .... .....",
".++. ..+ . ... ++..... ..+......",
".  +..+ . .....  +......+ ..... ",
"...  +...........  ...++..... ..",
"++..  ..++....+  . ..+  .... .. ",
"  ...  .+ ...+ .....+  .......  ",
" .....   .... ......  ... ....  ",
".+++..  ..... ...++..... ..++. .",
"..  +.....++..... ++.... ..  +..",
"...  +..++ ....... ++.......  ..",
"....  .   ......... +...+++.. . ",
"+....    ...++...... ..++ ....  ",
" +.... ...... +... . .   ...... ",
". ............ +.  .. ..........",
"..........  ... ................"};
