/* XPM */
static char * item_C_3_xpm[] = {
"32 32 212 2",
"  	c #5E8732",
". 	c #406930",
"+ 	c #94AF39",
"@ 	c #507931",
"# 	c #497131",
"$ 	c #436B30",
"% 	c #6F8D34",
"& 	c #5F8032",
"* 	c #466D30",
"= 	c #658733",
"- 	c #496C30",
"; 	c #779535",
"> 	c #698B33",
", 	c #537A31",
"' 	c #769535",
") 	c #4A7231",
"! 	c #456D30",
"~ 	c #487130",
"{ 	c #41602E",
"] 	c #52642C",
"^ 	c #6F8F33",
"/ 	c #63702E",
"( 	c #7B7C31",
"_ 	c #725D2B",
": 	c #866A2E",
"< 	c #80742F",
"[ 	c #5D622D",
"} 	c #46552B",
"| 	c #53702E",
"1 	c #678331",
"2 	c #557E31",
"3 	c #678A33",
"4 	c #416A30",
"5 	c #476B30",
"6 	c #827C34",
"7 	c #8A7031",
"8 	c #8D723C",
"9 	c #C2B388",
"0 	c #AA9756",
"a 	c #A89555",
"b 	c #907544",
"c 	c #8B6E31",
"d 	c #7D632E",
"e 	c #65532D",
"f 	c #636F2E",
"g 	c #5D7E32",
"h 	c #446C30",
"i 	c #517931",
"j 	c #4A692E",
"k 	c #7D8436",
"l 	c #DAD16E",
"m 	c #BBAC58",
"n 	c #D5C991",
"o 	c #F5ECC9",
"p 	c #EDE4B2",
"q 	c #EDE3B2",
"r 	c #ECE2B1",
"s 	c #DDD1A9",
"t 	c #CEC371",
"u 	c #DBD170",
"v 	c #A7964A",
"w 	c #667631",
"x 	c #749435",
"y 	c #466930",
"z 	c #B5A856",
"A 	c #CEC266",
"B 	c #CFC469",
"C 	c #E3DF81",
"D 	c #E0D776",
"E 	c #DFD672",
"F 	c #E1D87C",
"G 	c #EEE4B1",
"H 	c #E7DE99",
"I 	c #DCD370",
"J 	c #A09D4A",
"K 	c #5A8032",
"L 	c #5F7530",
"M 	c #8A6E31",
"N 	c #C6B888",
"O 	c #E3E084",
"P 	c #E7DE97",
"Q 	c #EEE5B2",
"R 	c #EAE7A0",
"S 	c #E2DF7E",
"T 	c #E0D877",
"U 	c #F1EEBA",
"V 	c #D8CF6E",
"W 	c #54542E",
"X 	c #6B742E",
"Y 	c #90763E",
"Z 	c #F3E9CC",
"` 	c #F7EDCC",
" .	c #EFE6B4",
"..	c #EEE5B1",
"+.	c #E7E98F",
"@.	c #E3E082",
"#.	c #DFD773",
"$.	c #E3E080",
"%.	c #F1F8B2",
"&.	c #E8DF9A",
"*.	c #BEAF5A",
"=.	c #968342",
"-.	c #527032",
";.	c #6F582A",
">.	c #BCAD62",
",.	c #FEF4E1",
"'.	c #F7F8C7",
").	c #EAF299",
"!.	c #E1D87B",
"~.	c #E0D875",
"{.	c #E4E287",
"].	c #DFD4AD",
"^.	c #B9AA57",
"/.	c #A49047",
"(.	c #48644D",
"_.	c #745D2F",
":.	c #DCD377",
"<.	c #FDF3DE",
"[.	c #EEF0AC",
"}.	c #E0D975",
"|.	c #E2E07F",
"1.	c #E0D874",
"2.	c #E6E98B",
"3.	c #E6EA8B",
"4.	c #E7EA90",
"5.	c #CFC2A6",
"6.	c #8C6F31",
"7.	c #8B6E30",
"8.	c #425E2D",
"9.	c #65522D",
"0.	c #DBD273",
"a.	c #E0D878",
"b.	c #E9F294",
"c.	c #ECFA9E",
"d.	c #EAF396",
"e.	c #EEFCA3",
"f.	c #EDFCA0",
"g.	c #EFF1AD",
"h.	c #E4DA98",
"i.	c #8C7233",
"j.	c #7D622C",
"k.	c #708D34",
"l.	c #514229",
"m.	c #BBAC59",
"n.	c #E6DD99",
"o.	c #E9F295",
"p.	c #FDF6DC",
"q.	c #F5EDC7",
"r.	c #6D7D35",
"s.	c #61692D",
"t.	c #5C8232",
"u.	c #4C4D29",
"v.	c #A59148",
"w.	c #DED575",
"x.	c #E8E09B",
"y.	c #EAF297",
"z.	c #ECFB9E",
"A.	c #EAF398",
"B.	c #F2EEBA",
"C.	c #E7EA8E",
"D.	c #E3E789",
"E.	c #CFC46B",
"F.	c #B2AC58",
"G.	c #48642E",
"H.	c #57772F",
"I.	c #5B7D32",
"J.	c #65752E",
"K.	c #7F662F",
"L.	c #CBBF64",
"M.	c #DCD273",
"N.	c #CBBD8C",
"O.	c #EBE2B1",
"P.	c #EEE5B3",
"Q.	c #EFE6B3",
"R.	c #CFC36A",
"S.	c #A69248",
"T.	c #8A6F31",
"U.	c #818234",
"V.	c #759334",
"W.	c #4B7331",
"X.	c #497030",
"Y.	c #706A2D",
"Z.	c #907535",
"`.	c #B4A453",
" +	c #91773E",
".+	c #B9A957",
"++	c #8B6F30",
"@+	c #72662D",
"#+	c #6D752F",
"$+	c #577E31",
"%+	c #749335",
"&+	c #4B7130",
"*+	c #62692D",
"=+	c #7B622C",
"-+	c #876B2E",
";+	c #886B2E",
">+	c #896B2E",
",+	c #8D7333",
"'+	c #857934",
")+	c #766E30",
"!+	c #757930",
"~+	c #688732",
"{+	c #45622E",
"]+	c #567F31",
"^+	c #436930",
"/+	c #557831",
"(+	c #5C6A30",
"_+	c #707230",
":+	c #627130",
"<+	c #596A2F",
"[+	c #49682E",
"}+	c #426B30",
"  . . . . . . . . . . . . . .   . . . + +   .   + . . . . . . . ",
".     . . . + + + . . . . . +   . . +     . .     + + . . . .   ",
". .   . . . .     + + . . +   . . +     . . . .       + . .     ",
". . . . . . . .       + . + . . +     . .     . . .     . .   . ",
"+   . . . . . . . .     . . . . . . . . . .     . . . . . . . . ",
"  . . . . . + +   . .   . . . .   . . . . . . . . . . + + . . . ",
"  .   . . +     . . . .   . . + . . . . . . . + + . +     . . + ",
".   . .       . . . . . . . +   . . . . .   .   + .     . . +   ",
".   . .   . . . @ # $ % & $ * = - ; > , ' & . )   +   . . +     ",
". . . . . . + . ! ~ { ] ^ / ( _ : < [ } | 1 ! 2 .   . .       . ",
". . . . . .   + 3 4 5 6 7 8 9 0 a b c d e f g h . . . . . . . . ",
". . +   . . .   i j k l m n o p q r s t u v w x . . + + + . . . ",
". +   . . . . . ~ y z A B C D E D D F G H I J K . +     . . .   ",
". +   . . .   . * L M N O E E P Q R S T U D V W .     .   + + . ",
".   . . . .     % X Y Z `  ...+.@.#.#.$.%.&.*.=..   . . .   + + ",
"  . . . . . .   -.;.>.,.'.).!.~.#.E E #.{.].^./.. . . . . .     ",
"    . . . + .   (._.:.<.[.}.~.|.1.2.3.3.4.5.6.7.. . +   . . . + ",
"  . . . .   + . 8.9.0. .a.b.c.d.d.e.f.f.g.h.i.j.. +   . . . +   ",
". . . . . .   . k.l.m.n.&.o.f.f.e.p.e.e.q.0.r.s.    . . .       ",
". .   + + . . . t.u.v.w.Q x.y.z.A.B.C.D.E.F.G.H.  . . . .     . ",
". . .     + . . I.J.K.L.M.N.O.P.Q.Q R.S.T.U.V.W.. . . . .   . . ",
"+ + . .     . . $ X.Y.7.Z.`. +0 :.:..+++@+#+$+W.. . . .   . .   ",
"    . . .     . %+$ &+*+=+-+;+>+,+'+)+!+~+{+4 ]+. . . . . .     ",
"  . . . . .     W.4 . 4 ^+/+(+_+:+<+[+}+4 . . 4 .   . . . .     ",
". + + + . .     . . . . .   . . . + + . . . . .   . . + + .   . ",
". .     + . . . . . + + . . . . .   + + . . . .   . .     + . . ",
". . .     + . . + +   . . . . . . .   + + . . . . . . .     . . ",
". . . .     .       . . . . . . . . .   + . . . + + + . .   .   ",
"+ . . . .         . . . + + . . . . . .   . . + +   . . . .     ",
"  + . . . .   . . . . . .   + . . .   .   .       . . . . . .   ",
".   . . . . . . . . . . . .   + .     . .   . . . . . . . . . . ",
". . . . . . . . . .     . . .   . . . . . . . . . . . . . . . . "};
