/* XPM */
static char * item_C_2_xpm[] = {
"32 32 201 2",
"  	c #5E8732",
". 	c #406930",
"+ 	c #94AF39",
"@ 	c #507931",
"# 	c #497131",
"$ 	c #436B30",
"% 	c #6F8E34",
"& 	c #5F8032",
"* 	c #466D30",
"= 	c #648734",
"- 	c #446D37",
"; 	c #759538",
"> 	c #698B33",
", 	c #537A31",
"' 	c #769535",
") 	c #4A7231",
"! 	c #456D30",
"~ 	c #487131",
"{ 	c #396138",
"] 	c #44673E",
"^ 	c #6C8F36",
"/ 	c #5E7F3F",
"( 	c #537C59",
"_ 	c #336F6F",
": 	c #2F7F86",
"< 	c #418379",
"[ 	c #457755",
"} 	c #3D663A",
"| 	c #6B8F33",
"1 	c #557E31",
"2 	c #678A33",
"3 	c #406931",
"4 	c #1F4647",
"5 	c #204D52",
"6 	c #2D6E72",
"7 	c #39868C",
"8 	c #73BFC3",
"9 	c #4EA6AD",
"0 	c #4DA4AB",
"a 	c #3D8990",
"b 	c #32848B",
"c 	c #3A756A",
"d 	c #3A6238",
"e 	c #5F8133",
"f 	c #5D7E32",
"g 	c #446C30",
"h 	c #517931",
"i 	c #3A6C5D",
"j 	c #5BC3CB",
"k 	c #55B8C1",
"l 	c #7ED4D9",
"m 	c #B8F6F9",
"n 	c #B4EEF6",
"o 	c #A7EEF3",
"p 	c #A6ECF2",
"q 	c #90DCDE",
"r 	c #4C949A",
"s 	c #285050",
"t 	c #63843A",
"u 	c #507731",
"v 	c #749435",
"w 	c #487130",
"x 	c #426B31",
"y 	c #427964",
"z 	c #8ACEDD",
"A 	c #84E1ED",
"B 	c #B0E1F6",
"C 	c #B1E0F6",
"D 	c #84E0ED",
"E 	c #7FE0EC",
"F 	c #70E2EA",
"G 	c #96EDEF",
"H 	c #7BCDD1",
"I 	c #438F8E",
"J 	c #5E8851",
"K 	c #5A8232",
"L 	c #466D31",
"M 	c #63A185",
"N 	c #429DA4",
"O 	c #75C2C7",
"P 	c #83E1ED",
"Q 	c #6DE0EA",
"R 	c #ACE0F5",
"S 	c #93E0F0",
"T 	c #6BE0E9",
"U 	c #87E9EE",
"V 	c #99E8F1",
"W 	c #A1DDE2",
"X 	c #325D5D",
"Y 	c #5B7F41",
"Z 	c #426A30",
"` 	c #598251",
" .	c #51A09A",
"..	c #408E95",
"+.	c #ABF3F2",
"@.	c #A9F5F6",
"#.	c #6CE1E9",
"$.	c #69E0E9",
"%.	c #92E1EF",
"&.	c #B9F5F9",
"*.	c #B3E2F6",
"=.	c #B1E0F5",
"-.	c #6DA0A2",
";.	c #74B3AD",
">.	c #658943",
",.	c #507938",
"'.	c #387F7B",
").	c #8ECDCD",
"!.	c #B6F1F8",
"~.	c #B2E1F6",
"{.	c #B2E0F6",
"].	c #B3E1F6",
"^.	c #90CDCD",
"/.	c #8BC5C4",
"(.	c #6D9D7C",
"_.	c #588757",
":.	c #93D8D3",
"<.	c #B8F9F6",
"[.	c #9CF0F2",
"}.	c #6BE1E9",
"|.	c #91E0EF",
"1.	c #A7E8F4",
"2.	c #AFE1F5",
"3.	c #97E1F0",
"4.	c #A5E6E4",
"5.	c #8DCBCA",
"6.	c #9CD0B7",
"7.	c #426B35",
"8.	c #91C8B9",
"9.	c #4F979C",
"0.	c #83E4EA",
"a.	c #85E8EE",
"b.	c #9BF0F2",
"c.	c #98EFF2",
"d.	c #83E8ED",
"e.	c #70E1EA",
"f.	c #83E4E9",
"g.	c #347E81",
"h.	c #578036",
"i.	c #708E34",
"j.	c #73A38D",
"k.	c #6CACAE",
"l.	c #73C4C8",
"m.	c #9CF1F3",
"n.	c #BAFDFA",
"o.	c #99F0F2",
"p.	c #99EFF2",
"q.	c #6ADCE4",
"r.	c #4D825F",
"s.	c #4B7331",
"t.	c #5C8332",
"u.	c #4C743F",
"v.	c #89C4BD",
"w.	c #64CFD7",
"x.	c #89EAEE",
"y.	c #6EE1EA",
"z.	c #97ECEF",
"A.	c #7DD7DB",
"B.	c #57B6B7",
"C.	c #456E35",
"D.	c #5C8532",
"E.	c #5D7F32",
"F.	c #799935",
"G.	c #638849",
"H.	c #60C7CA",
"I.	c #69DCE5",
"J.	c #76C6CA",
"K.	c #96EBED",
"L.	c #97EEF0",
"M.	c #98EFF1",
"N.	c #8FDCDE",
"O.	c #50A5AC",
"P.	c #328389",
"Q.	c #608C5B",
"R.	c #759435",
"S.	c #4A7331",
"T.	c #6B8F34",
"U.	c #4D7940",
"V.	c #4C8870",
"W.	c #308086",
"X.	c #38878E",
"Y.	c #59BAC2",
"Z.	c #32838A",
"`.	c #337C7A",
" +	c #5C8556",
".+	c #5D7F33",
"++	c #577F31",
"@+	c #749335",
"#+	c #567F31",
"$+	c #39633D",
"%+	c #417258",
"&+	c #588969",
"*+	c #3A7769",
"=+	c #437D67",
"-+	c #4A7440",
";+	c #4E7E51",
">+	c #668A3A",
",+	c #416A30",
"'+	c #4F7831",
")+	c #426B30",
"!+	c #668933",
"  . . . . . . . . . . . . . .   . . . + +   .   + . . . . . . . ",
".     . . . + + + . . . . . +   . . +     . .     + + . . . .   ",
". .   . . . .     + + . . +   . . +     . . . .       + . .     ",
". . . . . . . .       + . + . . +     . .     . . .     . .   . ",
"+   . . . . . . . .     . . . . . . . . . .     . . . . . . . . ",
"  . . . . . + +   . .   . . . .   . . . . . . . . . . + + . . . ",
"  .   . . +     . . . .   . . + . . . . . . . + + . +     . . + ",
".   . .       . . . . . . . +   . . . . .   .   + .     . . +   ",
".   . .   . . . @ # $ % & $ * = - ; > , ' & . )   +   . . +     ",
". . . . . . + . ! ~ { ] ^ / ( _ : < [ } , | ! 1 .   . .       . ",
". . . . . .   + 2 3 4 5 6 7 8 9 0 a b c d e f g . . . . . . . . ",
". . +   . . .   h # i j k l m n o p q r s t u v . . + + + . . . ",
". +   . . . . . w x y k z A B C D E F G H I J K . +     . . .   ",
". +   . . .   . L M N O P Q R S T T U V W X Y Z .     .   + + . ",
".   . . . .     `  ...+.@.#.Q $.$.%.&.*.=.-.;.>..   . . .   + + ",
"  . . . . . .   ,.'.).!.A $.$.$.$.S ~.{.].^./.(.. . . . . .     ",
"    . . . + .   _.:.<.[.$.$.}.$.T |.1.2.3.4.5.6.. . +   . . . + ",
"  . . . .   + . 7.8.9.0.a.b.c.}.$.T d.e.a.f.g.h.. +   . . . +   ",
". . . . . .   . i.j.k.l.m.n.o.$.$.$.$.d.p.q.r.s.    . . .       ",
". .   + + . . . t.u.v.w.c.x.y.$.$.$.F z.A.B.C.D.  . . . .     . ",
". . .     + . . E.F.G.H.I.J.K.L.M.L.N.O.P.Q.R.s.. . . . .   . . ",
"+ + . .     . . $ S.T.U.V.W.X.0 Y.0 Z.`. +.+++s.. . . .   . .   ",
"    . . .     . @+$ S.#+) $+%+&+*+=+-+;+>+g ,+#+. . . . . .     ",
"  . . . . .     s.,+. ,+,+'+)+!+s.# w )+,+. . ,+.   . . . .     ",
". + + + . .     . . . . .   . . . + + . . . . .   . . + + .   . ",
". .     + . . . . . + + . . . . .   + + . . . .   . .     + . . ",
". . .     + . . + +   . . . . . . .   + + . . . . . . .     . . ",
". . . .     .       . . . . . . . . .   + . . . + + + . .   .   ",
"+ . . . .         . . . + + . . . . . .   . . + +   . . . .     ",
"  + . . . .   . . . . . .   + . . .   .   .       . . . . . .   ",
".   . . . . . . . . . . . .   + .     . .   . . . . . . . . . . ",
". . . . . . . . . .     . . .   . . . . . . . . . . . . . . . . "};
