/* XPM */
static char * item_C_4_xpm[] = {
"32 32 192 2",
"  	c #5E8732",
". 	c #406930",
"+ 	c #94AF39",
"@ 	c #507931",
"# 	c #497131",
"$ 	c #436B30",
"% 	c #6F8E34",
"& 	c #5F8032",
"* 	c #436A30",
"= 	c #658733",
"- 	c #466B32",
"; 	c #769535",
"> 	c #698B33",
", 	c #537A31",
"' 	c #4A7231",
") 	c #456D30",
"! 	c #486F30",
"~ 	c #3D502A",
"{ 	c #4C6A2E",
"] 	c #6D8E34",
"^ 	c #606C36",
"/ 	c #574545",
"( 	c #573643",
"_ 	c #5E374D",
": 	c #5D673F",
"< 	c #435F30",
"[ 	c #4A7230",
"} 	c #6B8F33",
"| 	c #557E31",
"1 	c #678A33",
"2 	c #3E522A",
"3 	c #391F24",
"4 	c #4E2B3C",
"5 	c #553343",
"6 	c #A2558A",
"7 	c #CB6BAE",
"8 	c #A65A8D",
"9 	c #A2588A",
"0 	c #693B56",
"a 	c #5A3348",
"b 	c #4D622D",
"c 	c #416830",
"d 	c #5F8133",
"e 	c #5D7E32",
"f 	c #446C30",
"g 	c #517931",
"h 	c #47652E",
"i 	c #7E4069",
"j 	c #C361A9",
"k 	c #93517D",
"l 	c #EEB4BF",
"m 	c #F1AFC8",
"n 	c #E5A1BB",
"o 	c #E4A0BA",
"p 	c #E19FB8",
"q 	c #B37C91",
"r 	c #51313C",
"s 	c #3F4428",
"t 	c #6B8E33",
"u 	c #507731",
"v 	c #749435",
"w 	c #487130",
"x 	c #486837",
"y 	c #80436C",
"z 	c #B86DA0",
"A 	c #E289C6",
"B 	c #DD81BF",
"C 	c #E58BC9",
"D 	c #CE68B2",
"E 	c #CD66B1",
"F 	c #CE6AB1",
"G 	c #DA8AB7",
"H 	c #E19FB7",
"I 	c #985280",
"J 	c #595F42",
"K 	c #668834",
"L 	c #5A8232",
"M 	c #975C81",
"N 	c #6D3C59",
"O 	c #E297BF",
"P 	c #E699C3",
"Q 	c #9C747C",
"R 	c #606936",
"S 	c #627F39",
"T 	c #426A30",
"U 	c #696B45",
"V 	c #83466D",
"W 	c #B68193",
"X 	c #FBC8C7",
"Y 	c #DB8AB7",
"Z 	c #DB7CBF",
"` 	c #F19BD4",
" .	c #FDAAE0",
"..	c #E0A1BF",
"+.	c #7E4867",
"@.	c #A47D81",
"#.	c #546A3A",
"$.	c #71495B",
"%.	c #F8C7C3",
"&.	c #F19FD2",
"*.	c #CF6BB3",
"=.	c #DC7DBF",
"-.	c #FAA7DE",
";.	c #F39DD6",
">.	c #F9B9D1",
",.	c #764E5E",
"'.	c #A46089",
").	c #7F9A3F",
"!.	c #998E73",
"~.	c #EAB5BA",
"{.	c #FAC9C4",
"].	c #D06FB3",
"^.	c #CE69B1",
"/.	c #CF6AB3",
"(.	c #F0AEC6",
"_.	c #C19797",
":.	c #DEB2AD",
"<.	c #A39B75",
"[.	c #536041",
"}.	c #694254",
"|.	c #B47C92",
"1.	c #D070B2",
"2.	c #E6A3BC",
"3.	c #E7A5BC",
"4.	c #DA88B6",
"5.	c #6A3C56",
"6.	c #C384A1",
"7.	c #648240",
"8.	c #676E40",
"9.	c #7F3F6B",
"0.	c #733F5F",
"a.	c #E4A2BA",
"b.	c #FDCBC8",
"c.	c #FCC8C7",
"d.	c #D172B4",
"e.	c #B37C92",
"f.	c #693F54",
"g.	c #CB9CA3",
"h.	c #507337",
"i.	c #5B8033",
"j.	c #614F4C",
"k.	c #9D4E87",
"l.	c #DA8BB6",
"m.	c #FBBAD2",
"n.	c #FEAFDE",
"o.	c #F29CD5",
"p.	c #D29CA9",
"q.	c #663A53",
"r.	c #844470",
"s.	c #7D6E67",
"t.	c #5C8532",
"u.	c #5D7F32",
"v.	c #799836",
"w.	c #707149",
"x.	c #C866AC",
"y.	c #BB669F",
"z.	c #D59CAD",
"A.	c #F9B8D1",
"B.	c #F1AEC8",
"C.	c #5E324D",
"D.	c #9B6781",
"E.	c #77933B",
"F.	c #4B7331",
"G.	c #4A7331",
"H.	c #6C8F34",
"I.	c #827269",
"J.	c #9D5386",
"K.	c #6A3658",
"L.	c #6C4158",
"M.	c #693C56",
"N.	c #5A3249",
"O.	c #594945",
"P.	c #76873D",
"Q.	c #617F38",
"R.	c #577F31",
"S.	c #749335",
"T.	c #567F32",
"U.	c #587141",
"V.	c #93657D",
"W.	c #524341",
"X.	c #4C273A",
"Y.	c #4F453D",
"Z.	c #506639",
"`.	c #485B2E",
" +	c #657437",
".+	c #416A30",
"++	c #567F31",
"@+	c #4F7831",
"#+	c #455B2B",
"$+	c #497030",
"%+	c #487030",
"&+	c #416930",
"  . . . . . . . . . . . . . .   . . . + +   .   + . . . . . . . ",
".     . . . + + + . . . . . +   . . +     . .     + + . . . .   ",
". .   . . . .     + + . . +   . . +     . . . .       + . .     ",
". . . . . . . .       + . + . . +     . .     . . .     . .   . ",
"+   . . . . . . . .     . . . . . . . . . .     . . . . . . . . ",
"  . . . . . + +   . .   . . . .   . . . . . . . . . . + + . . . ",
"  .   . . +     . . . .   . . + . . . . . . . + + . +     . . + ",
".   . .       . . . . . . . +   . . . . .   .   + .     . . +   ",
".   . .   . . . @ # $ % & $ * = - ; > , ; & . '   +   . . +     ",
". . . . . . + . ) ! ~ { ] ^ / ( _ : < [ , } ) | .   . .       . ",
". . . . . .   + 1 2 3 4 5 6 7 8 9 0 a b c d e f . . . . . . . . ",
". . +   . . .   g h i j k l m n o p q r s t u v . . + + + . . . ",
". +   . . . . . w x y z A B C D E F G H I J K L . +     . . .   ",
". +   . . .   . x M N O D E D E E E D P Q R S T .     .   + + . ",
".   . . . .     U V W X Y E E E D Z `  ...+.@.= .   . . .   + + ",
"  . . . . . .   #.$.%.&.*.E E E D =.-.;.>.,.'.).. . . . . .     ",
"    . . . + .   !.~.{.].E ^.E E E E /./.(._.:.<.. . +   . . . + ",
"  . . . .   + . [.}.|.1.2.3.4.E E E E F p 5.6.7.. +   . . . +   ",
". . . . . .   . 8.9.0.a.b.c.d.D E E ^.n e.f.g.h.    . . .       ",
". .   + + . . . i.j.k.l.m.n.o.C D F Y p.q.r.s.t.  . . . .     . ",
". . .     + . . u.v.w.x.y.z.A.B.n p e.q.C.D.E.F.. . . . .   . . ",
"+ + . .     . . $ G.H.I.J.K.L.9 9 M.N.O.P.Q.R.F.. . . .   . .   ",
"    . . .     . S.$ G.T.U.V.W.X.Y.Z.`. +> f .+++. . . . . .     ",
"  . . . . .     F..+. .+.+@+c #+$+# %+&+.+. . .+.   . . . .     ",
". + + + . .     . . . . .   . . . + + . . . . .   . . + + .   . ",
". .     + . . . . . + + . . . . .   + + . . . .   . .     + . . ",
". . .     + . . + +   . . . . . . .   + + . . . . . . .     . . ",
". . . .     .       . . . . . . . . .   + . . . + + + . .   .   ",
"+ . . . .         . . . + + . . . . . .   . . + +   . . . .     ",
"  + . . . .   . . . . . .   + . . .   .   .       . . . . . .   ",
".   . . . . . . . . . . . .   + .     . .   . . . . . . . . . . ",
". . . . . . . . . .     . . .   . . . . . . . . . . . . . . . . "};
