/* XPM */
static char * item_0_xpm[] = {
"32 32 3 1",
" 	c #5E8732",
".	c #406930",
"+	c #94AF39",
" .............. ...++ . +.......",
".  ...+++.....+ ..+  ..  ++.... ",
"..+ ..+    .... .+  ....   +..  ",
".. ..   . ... +.+  ..  ...  .. .",
"+........++...+ ..+    .... ....",
"  .+++...  ++. ..   . ... +.+...",
"  +  ... .   ........++..... ..+",
"..  . ++....  .+++...  ++..+..+ ",
".. ....... .. +  ... .   +.+.+  ",
".+...++... ...  . ++....  ..   .",
".  ..+ +...... ....... .. ......",
"+ ..+   +..+++...++... ... .+...",
" ..   .. .+  ..+.++.  ...+  ... ",
"..........  ..+ +  ..  ..  . ++.",
".+++... .+ ..+    .... .. ... ++",
"+  ...  . ..   . ... +........  ",
"  . ++. ........++.....+ ..+ ..+",
" ... ++. .+++...  ++..+ ..+  .+ ",
".....  . +  ... .   +.+..+  .   ",
".. ++....  . ++....  ........  .",
" ...+++.. ....... .. ...........",
" ....  ++...++... ... ....++... ",
"......   +.+  ..+......+.+  ..+ ",
"........  .  ..+ .....+ .  ..+  ",
"....++ .. + ..+  ..+ . .+ ..+  .",
" ..+  .... ..   ..+ . .. ..   ..",
"..   .............  ............",
".. ........+++.... ......+++... ",
"....+...+ +  ... +.. ..++  ...  ",
".... +.+ .  . ++.  . .    . ++. ",
"+ ... +  . ... ++  .. .. ... ++.",
" .....  .......  ............  ."};
