/* XPM */
static char * Exit_open_3_xpm[] = {
"32 32 712 2",
"  	c #5E8732",
". 	c #406930",
"+ 	c #3E6630",
"@ 	c #3C6431",
"# 	c #3F6730",
"$ 	c #3F6830",
"% 	c #547A33",
"& 	c #315433",
"* 	c #325532",
"= 	c #375C31",
"- 	c #819A38",
"; 	c #738A37",
"> 	c #4E7233",
", 	c #3C6331",
"' 	c #94AF39",
") 	c #305332",
"! 	c #2F5132",
"~ 	c #3B6231",
"{ 	c #3A6031",
"] 	c #758C37",
"^ 	c #3B5635",
"/ 	c #39383B",
"( 	c #453C3D",
"_ 	c #516037",
": 	c #345034",
"< 	c #253F35",
"[ 	c #213E34",
"} 	c #315432",
"| 	c #5B8332",
"1 	c #839C38",
"2 	c #576A36",
"3 	c #234034",
"4 	c #2A4B33",
"5 	c #566A36",
"6 	c #243D35",
"7 	c #332F37",
"8 	c #854746",
"9 	c #9A524B",
"0 	c #473136",
"a 	c #172F35",
"b 	c #193235",
"c 	c #1A3434",
"d 	c #274533",
"e 	c #385E31",
"f 	c #5C8432",
"g 	c #4C6F34",
"h 	c #2E4A34",
"i 	c #384A36",
"j 	c #132C35",
"k 	c #122935",
"l 	c #0F2635",
"m 	c #452E36",
"n 	c #AF5749",
"o 	c #C56854",
"p 	c #65373A",
"q 	c #132635",
"r 	c #142835",
"s 	c #1D2D34",
"t 	c #2A4034",
"u 	c #2A4833",
"v 	c #325432",
"w 	c #3A5F31",
"x 	c #5D8532",
"y 	c #396031",
"z 	c #305132",
"A 	c #244134",
"B 	c #193135",
"C 	c #0C2535",
"D 	c #102635",
"E 	c #1D2834",
"F 	c #2B2A34",
"G 	c #5B3235",
"H 	c #B75B4A",
"I 	c #CE6D59",
"J 	c #823D41",
"K 	c #312B36",
"L 	c #1A2936",
"M 	c #1D2B34",
"N 	c #202C35",
"O 	c #203135",
"P 	c #1E3434",
"Q 	c #2D4C33",
"R 	c #3A6131",
"S 	c #3D6531",
"T 	c #8BA438",
"U 	c #687D36",
"V 	c #293B34",
"W 	c #132735",
"X 	c #1E2836",
"Y 	c #342C36",
"Z 	c #472E39",
"` 	c #562F3B",
" .	c #7A393C",
"..	c #BB5A4D",
"+.	c #CC6258",
"@.	c #A04144",
"#.	c #64323A",
"$.	c #352C3A",
"%.	c #202B36",
"&.	c #1B2A35",
"*.	c #1F2C35",
"=.	c #203A34",
"-.	c #6D8337",
";.	c #91AB39",
">.	c #4E6F33",
",.	c #344634",
"'.	c #282F34",
").	c #242E34",
"!.	c #222C36",
"~.	c #3B2E36",
"{.	c #603338",
"].	c #763642",
"^.	c #823948",
"/.	c #984146",
"(.	c #BC514F",
"_.	c #C35354",
":.	c #AD4446",
"<.	c #89393E",
"[.	c #5D313E",
"}.	c #3E2F3C",
"|.	c #2A2D38",
"1.	c #2B2E37",
"2.	c #302F38",
"3.	c #233635",
"4.	c #213A35",
"5.	c #3F5E34",
"6.	c #537933",
"7.	c #4B6C33",
"8.	c #404E38",
"9.	c #3D313D",
"0.	c #353039",
"a.	c #2A2F35",
"b.	c #40323A",
"c.	c #6C373C",
"d.	c #883A3B",
"e.	c #923C3F",
"f.	c #933C3F",
"g.	c #9D3F40",
"h.	c #AD4546",
"i.	c #B24849",
"j.	c #B5474B",
"k.	c #AC454C",
"l.	c #823842",
"m.	c #63313E",
"n.	c #50303A",
"o.	c #45303C",
"p.	c #422F3F",
"q.	c #2C2D39",
"r.	c #254334",
"s.	c #385D32",
"t.	c #406830",
"u.	c #365B32",
"v.	c #395734",
"w.	c #2E3D37",
"x.	c #40303F",
"y.	c #492E40",
"z.	c #483039",
"A.	c #61403C",
"B.	c #914E4B",
"C.	c #B04950",
"D.	c #B3464A",
"E.	c #A03F3F",
"F.	c #863737",
"G.	c #8B393A",
"H.	c #A4473F",
"I.	c #AE4D45",
"J.	c #BE4D51",
"K.	c #CF5E60",
"L.	c #B65E57",
"M.	c #914545",
"N.	c #78373F",
"O.	c #56313C",
"P.	c #392E39",
"Q.	c #192935",
"R.	c #122B35",
"S.	c #264533",
"T.	c #869F38",
"U.	c #2C4D33",
"V.	c #192F35",
"W.	c #2B3138",
"X.	c #432F3B",
"Y.	c #5A3037",
"Z.	c #7C3B3A",
"`.	c #AC544D",
" +	c #CE605B",
".+	c #D1545D",
"++	c #C94E59",
"@+	c #AD444B",
"#+	c #8D3A3F",
"$+	c #933C40",
"%+	c #AF4F47",
"&+	c #B9564C",
"*+	c #BD4F50",
"=+	c #D77163",
"-+	c #DD8A6A",
";+	c #CA7A64",
">+	c #B16058",
",+	c #944440",
"'+	c #7D3737",
")+	c #623538",
"!+	c #392F36",
"~+	c #182835",
"{+	c #2E4934",
"]+	c #507533",
"^+	c #395F31",
"/+	c #274734",
"(+	c #1A3235",
"_+	c #1F2B36",
":+	c #442E34",
"<+	c #803835",
"[+	c #B14B48",
"}+	c #D05F5B",
"|+	c #D55E5F",
"1+	c #CE545C",
"2+	c #BD4A50",
"3+	c #A44143",
"4+	c #913D3E",
"5+	c #943F3F",
"6+	c #B5564E",
"7+	c #BA5A51",
"8+	c #B04A4B",
"9+	c #CE685A",
"0+	c #E58D67",
"a+	c #EA9A70",
"b+	c #E69576",
"c+	c #CC7566",
"d+	c #AE4D4A",
"e+	c #923B3D",
"f+	c #673338",
"g+	c #342D37",
"h+	c #172D35",
"i+	c #3E6631",
"j+	c #88A239",
"k+	c #406034",
"l+	c #183235",
"m+	c #1B2836",
"n+	c #543033",
"o+	c #A34C40",
"p+	c #CE6859",
"q+	c #DA6D60",
"r+	c #D5645E",
"s+	c #C05154",
"t+	c #9B3F41",
"u+	c #763739",
"v+	c #5E3439",
"w+	c #783A3F",
"x+	c #B05B52",
"y+	c #8F574F",
"z+	c #653741",
"A+	c #944848",
"B+	c #BF6252",
"C+	c #CF755B",
"D+	c #E6997F",
"E+	c #EFAA99",
"F+	c #D17971",
"G+	c #A04444",
"H+	c #85383F",
"I+	c #5A333F",
"J+	c #1E2937",
"K+	c #375D31",
"L+	c #577E32",
"M+	c #294833",
"N+	c #102935",
"O+	c #282839",
"P+	c #723C3D",
"Q+	c #C06A4F",
"R+	c #DE7D61",
"S+	c #DC7261",
"T+	c #D56B5D",
"U+	c #A54C4D",
"V+	c #61343C",
"W+	c #342C38",
"X+	c #282A36",
"Y+	c #5D343B",
"Z+	c #9E574D",
"`+	c #624D47",
" @	c #142635",
".@	c #3A2D37",
"+@	c #72363A",
"@@	c #924345",
"#@	c #B5706F",
"$@	c #E8AEA5",
"%@	c #DF948D",
"&@	c #AB4D4F",
"*@	c #9A3F48",
"=@	c #723843",
"-@	c #2A2C38",
";@	c #1A3234",
">@	c #4F7333",
",@	c #1D3834",
"'@	c #372C3B",
")@	c #904D4B",
"!@	c #D77F5C",
"~@	c #E07F63",
"{@	c #DE7862",
"]@	c #D07059",
"^@	c #874547",
"/@	c #322C3A",
"(@	c #102535",
"_@	c #152735",
":@	c #4B2F35",
"<@	c #945346",
"[@	c #614D47",
"}@	c #112635",
"|@	c #3A2C35",
"1@	c #64313F",
"2@	c #784055",
"3@	c #B9797D",
"4@	c #CD7B78",
"5@	c #AB4851",
"6@	c #A0414B",
"7@	c #73383F",
"8@	c #342E35",
"9@	c #223435",
"0@	c #697F37",
"a@	c #4A313C",
"b@	c #A25250",
"c@	c #DC7661",
"d@	c #DB7460",
"e@	c #B56352",
"f@	c #5A383F",
"g@	c #1A2838",
"h@	c #0E2635",
"i@	c #4A3238",
"j@	c #9D5A4A",
"k@	c #624F48",
"l@	c #1C2836",
"m@	c #4C2F3F",
"n@	c #663149",
"o@	c #904854",
"p@	c #A94F52",
"q@	c #A0414A",
"r@	c #9C4048",
"s@	c #6F353B",
"t@	c #3F2F35",
"u@	c #192936",
"v@	c #627737",
"w@	c #8EA938",
"x@	c #2C4C33",
"y@	c #142736",
"z@	c #2C2B3B",
"A@	c #62343E",
"B@	c #AC4D4E",
"C@	c #D7655F",
"D@	c #D7635F",
"E@	c #CB615C",
"F@	c #8C4D4C",
"G@	c #332E3B",
"H@	c #0D2535",
"I@	c #533840",
"J@	c #A76352",
"K@	c #625148",
"L@	c #342A3A",
"M@	c #5C2F45",
"N@	c #7C3748",
"O@	c #8D3A41",
"P@	c #9C4047",
"Q@	c #6F3339",
"R@	c #1C2937",
"S@	c #3E5D34",
"T@	c #5A8232",
"U@	c #598132",
"V@	c #294933",
"W@	c #1A2738",
"X@	c #3A2C3F",
"Y@	c #6C343F",
"Z@	c #AF494C",
"`@	c #D45C5E",
" #	c #D6605F",
".#	c #C35B59",
"+#	c #774046",
"@#	c #252937",
"##	c #523943",
"$#	c #A56456",
"%#	c #615148",
"&#	c #2D2937",
"*#	c #562E41",
"=#	c #75333F",
"-#	c #853637",
";#	c #9E4047",
">#	c #9A3F49",
",#	c #69323A",
"'#	c #432F37",
")#	c #274633",
"!#	c #1D2839",
"~#	c #3E2D40",
"{#	c #6A333C",
"]#	c #A74447",
"^#	c #D15E5D",
"/#	c #DD7566",
"(#	c #D36F63",
"_#	c #7F4548",
":#	c #232834",
"<#	c #102735",
"[#	c #493440",
"}#	c #995C52",
"|#	c #5F4E47",
"1#	c #312939",
"2#	c #603042",
"3#	c #7E353D",
"4#	c #873635",
"5#	c #963C41",
"6#	c #903B43",
"7#	c #5D3238",
"8#	c #363035",
"9#	c #1B2D34",
"0#	c #6A8037",
"a#	c #1E2838",
"b#	c #3D2D3F",
"c#	c #973D3D",
"d#	c #C96357",
"e#	c #E68E70",
"f#	c #E58F77",
"g#	c #9A5A58",
"h#	c #452F3A",
"i#	c #94564C",
"j#	c #5C4A46",
"k#	c #3D2B3C",
"l#	c #6F3341",
"m#	c #863738",
"n#	c #853533",
"o#	c #8C393B",
"p#	c #84383D",
"q#	c #533138",
"r#	c #2F3035",
"s#	c #293E35",
"t#	c #4B6E33",
"u#	c #3B6331",
"v#	c #1A2836",
"w#	c #302E39",
"x#	c #503137",
"y#	c #7F3835",
"z#	c #BA5E4C",
"A#	c #E49270",
"B#	c #EDA180",
"C#	c #C37B6B",
"D#	c #7A4C4A",
"E#	c #323139",
"F#	c #483037",
"G#	c #96584E",
"H#	c #594B4A",
"I#	c #272837",
"J#	c #532E3F",
"K#	c #7F3640",
"L#	c #9A3D3C",
"M#	c #973C3C",
"N#	c #923B3C",
"O#	c #76363D",
"P#	c #48303B",
"Q#	c #2E3037",
"R#	c #2B4135",
"S#	c #2B4C33",
"T#	c #1A2D35",
"U#	c #272E36",
"V#	c #363036",
"W#	c #6A3636",
"X#	c #A95143",
"Y#	c #D68260",
"Z#	c #EDA079",
"`#	c #E79F85",
" $	c #CC8971",
".$	c #896250",
"+$	c #34393E",
"@$	c #513839",
"#$	c #975A52",
"$$	c #56474C",
"%$	c #242939",
"&$	c #543041",
"*$	c #803948",
"=$	c #9F4048",
"-$	c #BB4E4F",
";$	c #B54B4A",
">$	c #9C3E3F",
",$	c #6B363D",
"'$	c #41303C",
")$	c #2D2E38",
"!$	c #213735",
"~$	c #93AE39",
"{$	c #1C3434",
"]$	c #282D38",
"^$	c #2D2E37",
"/$	c #54343A",
"($	c #8B4040",
"_$	c #C37055",
":$	c #E79270",
"<$	c #F1AA97",
"[$	c #F6B8A2",
"}$	c #DF9F81",
"|$	c #986F5B",
"1$	c #4F3E3D",
"2$	c #68413C",
"3$	c #A75F51",
"4$	c #724949",
"5$	c #433039",
"6$	c #703843",
"7$	c #9A414F",
"8$	c #A9444C",
"9$	c #B84B4D",
"0$	c #CF645A",
"a$	c #B7574A",
"b$	c #8F3D3B",
"c$	c #5D353D",
"d$	c #37303A",
"e$	c #262E37",
"f$	c #385E32",
"g$	c #233F34",
"h$	c #232B37",
"i$	c #2B2E38",
"j$	c #3B3037",
"k$	c #62353E",
"l$	c #AB5B54",
"m$	c #DE8067",
"n$	c #EB9C85",
"o$	c #F8BDAD",
"p$	c #F9BFAD",
"q$	c #E7A990",
"r$	c #AC786B",
"s$	c #9B5C53",
"t$	c #C26658",
"u$	c #AB574F",
"v$	c #944241",
"w$	c #AB4447",
"x$	c #BD4A51",
"y$	c #AC4346",
"z$	c #B14B4A",
"A$	c #BF5F53",
"B$	c #A14E41",
"C$	c #76383B",
"D$	c #48333C",
"E$	c #2D3036",
"F$	c #233235",
"G$	c #1F3A34",
"H$	c #4C7033",
"I$	c #5D8632",
"J$	c #2D4E33",
"K$	c #1B2F36",
"L$	c #282E35",
"M$	c #3F3039",
"N$	c #7C404C",
"O$	c #C2655D",
"P$	c #E38A6B",
"Q$	c #F0A989",
"R$	c #F6B9A2",
"S$	c #F8BDA9",
"T$	c #E3A598",
"U$	c #D08078",
"V$	c #D57066",
"W$	c #CD6359",
"X$	c #BC504F",
"Y$	c #B14548",
"Z$	c #983D3E",
"`$	c #903D42",
" %	c #903F40",
".%	c #7E373B",
"+%	c #5D323F",
"@%	c #39303A",
"#%	c #2A3435",
"$%	c #243C34",
"%%	c #527833",
"&%	c #7B9338",
"*%	c #1E3934",
"=%	c #122735",
"-%	c #1C2B35",
";%	c #4A323F",
">%	c #86434E",
",%	c #B96054",
"'%	c #CF7A5E",
")%	c #DF9278",
"!%	c #ECA994",
"~%	c #DF9584",
"{%	c #CE6F6A",
"]%	c #D56C64",
"^%	c #CB6158",
"/%	c #B94D4D",
"(%	c #AA4348",
"_%	c #963C3E",
":%	c #833637",
"<%	c #783338",
"[%	c #73323B",
"}%	c #623041",
"|%	c #442F3F",
"1%	c #303237",
"2%	c #596B36",
"3%	c #677C37",
"4%	c #345832",
"5%	c #466733",
"6%	c #405235",
"7%	c #242C36",
"8%	c #4D3240",
"9%	c #7E3B44",
"0%	c #A84B48",
"a%	c #B55B52",
"b%	c #B7685B",
"c%	c #AC594D",
"d%	c #A64641",
"e%	c #C25753",
"f%	c #B65151",
"g%	c #923C41",
"h%	c #7D363F",
"i%	c #6E333B",
"j%	c #6C3237",
"k%	c #633237",
"l%	c #55303E",
"m%	c #412D40",
"n%	c #2A2E38",
"o%	c #2B4133",
"p%	c #517433",
"q%	c #557B32",
"r%	c #8BA538",
"s%	c #496B33",
"t%	c #294434",
"u%	c #253835",
"v%	c #0F2735",
"w%	c #232939",
"x%	c #3F2E3F",
"y%	c #50323E",
"z%	c #793843",
"A%	c #8A393D",
"B%	c #833638",
"C%	c #933A37",
"D%	c #B54F4A",
"E%	c #A2474A",
"F%	c #6B333E",
"G%	c #51303E",
"H%	c #48303C",
"I%	c #46303B",
"J%	c #393038",
"K%	c #222B38",
"L%	c #1D3335",
"M%	c #2C4B33",
"N%	c #446533",
"O%	c #294335",
"P%	c #1D3934",
"Q%	c #273B37",
"R%	c #33293F",
"S%	c #422D41",
"T%	c #3B2F3B",
"U%	c #52313D",
"V%	c #70333C",
"W%	c #71323E",
"X%	c #74333E",
"Y%	c #8C3939",
"Z%	c #B1504A",
"`%	c #9D4748",
" &	c #5A323C",
".&	c #3B303C",
"+&	c #2E2F37",
"@&	c #262F34",
"#&	c #1B2C35",
"$&	c #374935",
"%&	c #526636",
"&&	c #3C6330",
"*&	c #496C33",
"=&	c #476933",
"-&	c #344C37",
";&	c #272E3A",
">&	c #242A39",
",&	c #2F2B39",
"'&	c #432D3A",
")&	c #4E2E3A",
"!&	c #5B3139",
"~&	c #85393A",
"{&	c #B4524C",
"]&	c #984846",
"^&	c #4D3239",
"/&	c #2F2E39",
"(&	c #262E35",
"_&	c #272F34",
":&	c #394434",
"<&	c #3A4A35",
"[&	c #3B6131",
"}&	c #345732",
"|&	c #244234",
"1&	c #1B3434",
"2&	c #1C2E36",
"3&	c #1D2936",
"4&	c #232A35",
"5&	c #302C34",
"6&	c #753A3C",
"7&	c #B7514C",
"8&	c #854241",
"9&	c #312C34",
"0&	c #1B2B35",
"a&	c #202D34",
"b&	c #232E34",
"c&	c #304334",
"d&	c #436134",
"e&	c #466633",
"f&	c #2F5032",
"g&	c #234134",
"h&	c #1A3135",
"i&	c #213834",
"j&	c #233833",
"k&	c #1F3035",
"l&	c #58393E",
"m&	c #A04B4B",
"n&	c #683A41",
"o&	c #182E35",
"p&	c #213634",
"q&	c #324B34",
"r&	c #315332",
"s&	c #3D6530",
"t&	c #3E6730",
"u&	c #4D7133",
"v&	c #466833",
"w&	c #355832",
"x&	c #385831",
"y&	c #2C4533",
"z&	c #383A39",
"A&	c #50383F",
"B&	c #37323B",
"C&	c #243D34",
"  . . . . . . . . . + @ # . $ % & * = - ; > ,   ' . . . . . . . ",
".     . . . ' ' ' @ ) ! ~ { ] ^ / ( _ : < [ } |   ' ' . . . .   ",
". .   . . . .     1 2 3 4 5 6 7 8 9 0 a b c d e f     ' . .     ",
". . . . . . . . f g h i j k l m n o p q r s t u v w x   . .   . ",
"'   . . . . $ y z A B C D E F G H I J K L M N O P Q R S $ . . . ",
"  . . . . . T U V s W X Y Z `  ...+.@.#.$.%.&.*.*.=.4 -.1 . . . ",
"  .   . . ;.>.,.'.).!.~.{.].^./.(._.:.<.[.}.|.1.2.N 3.4.5., . ' ",
".   . S 6.7.8.9.0.a.b.c.d.e.f.g.h.i.j.k.l.m.n.o.p.q.r B r.s.'   ",
".   t.u.v.w.x.y.z.A.B.C.D.E.F.G.H.I.J.K.L.M.N.#.O.P.Q.R.S.T.    ",
". . S U.V.W.X.Y.Z.`. +.+++@+#+$+%+&+*+=+-+;+>+,+'+)+!+~+{+]+  . ",
". . ^+/+(+_+:+<+[+}+|+1+2+3+4+5+6+7+8+9+0+a+b+c+d+e+f+g+h+U.i+. ",
". . j+k+l+m+n+o+p+q+r+s+t+u+v+w+x+y+z+A+B+C+D+E+F+G+H+I+J+[ K+. ",
". ' L+M+N+O+P+Q+R+S+T+U+V+W+X+Y+Z+`+ @.@+@@@#@$@%@&@*@=@-@;@*   ",
". ' >@,@D '@)@!@~@{@]@^@/@(@_@:@<@[@C }@|@1@2@3@4@5@6@7@8@9@0@# ",
". x ! R.L a@b@c@S+d@e@f@g@C h@i@j@k@C C l@m@n@o@p@q@r@s@t@u@v@w@",
"  + x@y@z@A@B@C@D@E@F@G@C C H@I@J@K@C C C L@M@N@O@r@P@Q@z.R@S@T@",
"  U@V@W@X@Y@Z@`@ #.#+#@#C C l ##$#%#C C C &#*#=#-#;#>#,#'#u@4 w@",
"  ~ )#!#~#{#]#^#/#(#_#:#C C <#[#}#|#C C C 1#2#3#4#5#6#7#8#9#0#f ",
". R r.a#b##.c#d#e#f#g#P.q C h@h#i#j#C C q k#l#m#n#o#p#q#r#s#t#  ",
". u#v.v#w#x#y#z#A#B#C#D#E#H@h@F#G#H#C H@I#J#K#L#M#N#O#P#Q#R#t#$ ",
". + S#T#U#V#W#X#Y#Z#`# $.$+$r @$#$$$H@%$&$*$=$-$;$>$,$'$)$!$! + ",
"' ~$} {$]$^$/$($_$:$<$[$}$|$1$2$3$4$5$6$7$8$9$0$a$b$c$d$e$(+) f ",
"    f$g$h$i$j$k$l$m$n$o$p$q$r$s$t$u$v$w$x$y$z$A$B$C$D$E$F$G$H$I$",
"  . + J$K$_+L$M$N$O$P$Q$R$S$T$U$V$W$X$j.Y$Z$`$ %.%+%@%#%$%M+%%  ",
". ' ' &%*%=%-%a.;%>%,%'%)%!%~%{%]%^%/%(%_%:%<%[%}%|%1%2%3%4%| . ",
". . f 5%6%R.=%7%0.8%9%0%a%b%c%d%e%f%g%h%i%j%k%l%m%n%o%p%q%r%. . ",
". . # s%t%u%v%w%x%p.y%z%A%B%F.C%D%E%F%G%H%I%J%2.K%L%M%R     . . ",
". . . , N%O%P%Q%R%S%T%U%V%W%X%Y%Z%`% &.&0.+&a.@&#&$&%&= .   .   ",
"' . . . &&*&t#=&-&;&>&,&'&)&!&~&{&]&^&/&i$(&_&:&<&4.V@[&. .     ",
"  ' . . . + | i+}&|&1&2&3&4&5&6&7&8&9&0&a&b&c&d&e&f&^+$ . . .   ",
".   . . . . . . @ & g&h&i&j&k&l&m&n&X o&p&q&r&, s&t&. . . . . . ",
". . . . . . . . $ ~ u&v&w&x&y&z&A&B&C&r.S.r&, . . . . . . . . . "};
