/* XPM */
static char * item_exit_xpm[] = {
"32 32 585 2",
"  	c #5E8732",
". 	c #406930",
"+ 	c #94AF39",
"@ 	c #3F6831",
"# 	c #3B6230",
"$ 	c #89A238",
"% 	c #577D32",
"& 	c #406831",
"* 	c #587F32",
"= 	c #3E6730",
"- 	c #799138",
"; 	c #254334",
"> 	c #173234",
", 	c #0C2535",
"' 	c #384A36",
") 	c #385734",
"! 	c #253E35",
"~ 	c #183434",
"{ 	c #213E34",
"] 	c #223F34",
"^ 	c #385D32",
"/ 	c #3F6830",
"( 	c #2E5033",
"_ 	c #335632",
": 	c #4E7233",
"< 	c #2B4634",
"[ 	c #0D2635",
"} 	c #0E2635",
"| 	c #182935",
"1 	c #1F2C35",
"2 	c #2E2E38",
"3 	c #292C38",
"4 	c #242E34",
"5 	c #262F34",
"6 	c #2A3035",
"7 	c #242E35",
"8 	c #1D3035",
"9 	c #304B34",
"0 	c #264533",
"a 	c #2F5131",
"b 	c #3D6531",
"c 	c #1D3934",
"d 	c #163035",
"e 	c #1C3834",
"f 	c #212B35",
"g 	c #3C2F3D",
"h 	c #463039",
"i 	c #523231",
"j 	c #613238",
"k 	c #68323B",
"l 	c #513235",
"m 	c #3B3036",
"n 	c #313037",
"o 	c #3D303D",
"p 	c #3A303B",
"q 	c #2D3035",
"r 	c #272F34",
"s 	c #334B34",
"t 	c #3D6431",
"u 	c #3F682F",
"v 	c #355932",
"w 	c #193434",
"x 	c #122735",
"y 	c #362F34",
"z 	c #6F3340",
"A 	c #9D404B",
"B 	c #A14149",
"C 	c #8A3B48",
"D 	c #7B3438",
"E 	c #76333A",
"F 	c #71323D",
"G 	c #773339",
"H 	c #67313D",
"I 	c #4B303B",
"J 	c #3F2F3E",
"K 	c #313038",
"L 	c #2E3036",
"M 	c #2B3035",
"N 	c #293934",
"O 	c #395F31",
"P 	c #5B7036",
"Q 	c #8EA839",
"R 	c #3C6431",
"S 	c #365B32",
"T 	c #182D35",
"U 	c #1D2B35",
"V 	c #172935",
"W 	c #2E3034",
"X 	c #75353A",
"Y 	c #853635",
"Z 	c #8B3940",
"` 	c #A4424E",
" .	c #AF454D",
"..	c #BA4950",
"+.	c #C54E59",
"@.	c #B84952",
"#.	c #9F3F44",
"$.	c #923B3B",
"%.	c #973D41",
"&.	c #933B3B",
"*.	c #753D42",
"=.	c #4E3040",
"-.	c #42303F",
";.	c #252E34",
">.	c #1F3235",
",.	c #576B37",
"'.	c #152D35",
").	c #2D4834",
"!.	c #2A4233",
"~.	c #102835",
"{.	c #232E34",
"].	c #2F2F38",
"^.	c #472E42",
"/.	c #533235",
"(.	c #9F3E3D",
"_.	c #AD4446",
":.	c #C25F55",
"<.	c #B9555B",
"[.	c #9C424B",
"}.	c #793540",
"|.	c #7A3439",
"1.	c #803535",
"2.	c #7D3336",
"3.	c #7E3536",
"4.	c #A64141",
"5.	c #9F413C",
"6.	c #913B33",
"7.	c #853737",
"8.	c #5F2F47",
"9.	c #4B2E43",
"0.	c #182936",
"a.	c #142935",
"b.	c #0F2735",
"c.	c #213D34",
"d.	c #395E31",
"e.	c #3A6031",
"f.	c #1C3534",
"g.	c #202C35",
"h.	c #293034",
"i.	c #472F41",
"j.	c #4B2F41",
"k.	c #753434",
"l.	c #983C39",
"m.	c #D97A71",
"n.	c #FCC7BB",
"o.	c #FDCAC0",
"p.	c #D47767",
"q.	c #B04651",
"r.	c #8A3838",
"s.	c #913935",
"t.	c #903832",
"u.	c #89362E",
"v.	c #BB494F",
"w.	c #D96860",
"x.	c #DC845F",
"y.	c #91413A",
"z.	c #803533",
"A.	c #412F3F",
"B.	c #202C34",
"C.	c #2A3034",
"D.	c #2C4434",
"E.	c #91AC39",
"F.	c #396031",
"G.	c #2E4F33",
"H.	c #5B3139",
"I.	c #7A333A",
"J.	c #D06E5B",
"K.	c #F4B49A",
"L.	c #F6B9A5",
"M.	c #AE6C77",
"N.	c #62314B",
"O.	c #5B2E4A",
"P.	c #602F46",
"Q.	c #773649",
"R.	c #883737",
"S.	c #A44141",
"T.	c #B6474C",
"U.	c #CF5D5B",
"V.	c #BA5055",
"W.	c #70313D",
"X.	c #7B3436",
"Y.	c #282F34",
"Z.	c #446534",
"`.	c #305233",
" +	c #1C3733",
".+	c #152D34",
"++	c #152835",
"@+	c #212D35",
"#+	c #432F3E",
"$+	c #753239",
"%+	c #97464F",
"&+	c #EDA17E",
"*+	c #E7936B",
"=+	c #C86759",
"-+	c #602F48",
";+	c #6E3349",
">+	c #6A3245",
",+	c #4E2D3A",
"'+	c #5C2F3F",
")+	c #612F46",
"!+	c #713344",
"~+	c #B84950",
"{+	c #943A36",
"]+	c #75323A",
"^+	c #833531",
"/+	c #57303E",
"(+	c #343039",
"_+	c #1D2F34",
":+	c #315333",
"<+	c #173235",
"[+	c #203D34",
"}+	c #222D34",
"|+	c #142835",
"1+	c #363039",
"2+	c #5C2F46",
"3+	c #7A3337",
"4+	c #C06B58",
"5+	c #EB9D70",
"6+	c #E79465",
"7+	c #A24041",
"8+	c #743333",
"9+	c #4B313A",
"0+	c #0D2535",
"a+	c #282934",
"b+	c #552E3F",
"c+	c #8A3B4E",
"d+	c #C74E57",
"e+	c #BD4A50",
"f+	c #9D3E3B",
"g+	c #7B3336",
"h+	c #55313A",
"i+	c #343038",
"j+	c #2E2F37",
"k+	c #202D34",
"l+	c #232E35",
"m+	c #244234",
"n+	c #2C4D33",
"o+	c #405337",
"p+	c #102635",
"q+	c #222A38",
"r+	c #653042",
"s+	c #783339",
"t+	c #B74B53",
"u+	c #E49177",
"v+	c #E69067",
"w+	c #DD7461",
"x+	c #903C3D",
"y+	c #1E2834",
"z+	c #122636",
"A+	c #603344",
"B+	c #BD4A52",
"C+	c #AF4547",
"D+	c #85373B",
"E+	c #603045",
"F+	c #333038",
"G+	c #432F3F",
"H+	c #1C2B35",
"I+	c #212D34",
"J+	c #1D3835",
"K+	c #3D5C34",
"L+	c #365B31",
"M+	c #1E3235",
"N+	c #1C2735",
"O+	c #6B3238",
"P+	c #923A37",
"Q+	c #AC4345",
"R+	c #CF515D",
"S+	c #D2555E",
"T+	c #C45B54",
"U+	c #B6484D",
"V+	c #2C2A35",
"W+	c #953F41",
"X+	c #A74141",
"Y+	c #A03F3E",
"Z+	c #71323C",
"`+	c #3E2F3D",
" @	c #3B303B",
".@	c #1E2C35",
"+@	c #385B31",
"@@	c #234034",
"#@	c #4C3037",
"$@	c #923F37",
"%@	c #A94845",
"&@	c #B94A4E",
"*@	c #BA494E",
"=@	c #B5474B",
"-@	c #A74342",
";@	c #B94D4D",
">@	c #A84242",
",@	c #A1444C",
"'@	c #5E3638",
")@	c #B7534B",
"!@	c #CF625A",
"~@	c #AD4545",
"{@	c #8E3B47",
"]@	c #8A3A43",
"^@	c #673331",
"/@	c #482D36",
"(@	c #232837",
"_@	c #314034",
":@	c #1D3535",
"<@	c #935351",
"[@	c #DE7762",
"}@	c #E58B64",
"|@	c #E18163",
"1@	c #D3675D",
"2@	c #C64F56",
"3@	c #A3453F",
"4@	c #B55E48",
"5@	c #CB6557",
"6@	c #CC765D",
"7@	c #CD715E",
"8@	c #D96960",
"9@	c #DC7364",
"0@	c #DC7162",
"a@	c #C55D55",
"b@	c #C0605A",
"c@	c #C86255",
"d@	c #C45553",
"e@	c #A14C4E",
"f@	c #284235",
"g@	c #3F2E38",
"h@	c #86383A",
"i@	c #933A35",
"j@	c #9C3D3A",
"k@	c #AC4F44",
"l@	c #B24549",
"m@	c #A54244",
"n@	c #9F4143",
"o@	c #9D5747",
"p@	c #BF6657",
"q@	c #E07E7D",
"r@	c #B7494E",
"s@	c #983B37",
"t@	c #993C38",
"u@	c #A2403F",
"v@	c #A04644",
"w@	c #674243",
"x@	c #1F2D35",
"y@	c #577E33",
"z@	c #112636",
"A@	c #152735",
"B@	c #4B2F33",
"C@	c #6C313F",
"D@	c #A1424D",
"E@	c #893731",
"F@	c #6F323E",
"G@	c #9F4041",
"H@	c #733837",
"I@	c #513133",
"J@	c #B6817C",
"K@	c #ECA095",
"L@	c #B95C4C",
"M@	c #8D3831",
"N@	c #88383A",
"O@	c #6F323D",
"P@	c #563232",
"Q@	c #192835",
"R@	c #192A35",
"S@	c #394E33",
"T@	c #274533",
"U@	c #402D32",
"V@	c #632F45",
"W@	c #98404F",
"X@	c #913A3B",
"Y@	c #943D43",
"Z@	c #9B3E3C",
"`@	c #382F3D",
" #	c #132937",
".#	c #BC7959",
"+#	c #F8BDA9",
"@#	c #F9C0AD",
"##	c #E7A490",
"$#	c #8C3831",
"%#	c #733341",
"&#	c #643044",
"*#	c #3F2E33",
"=#	c #102735",
"-#	c #344533",
";#	c #5B8332",
">#	c #122B35",
",#	c #1E2934",
"'#	c #5F3239",
")#	c #803840",
"!#	c #A3403F",
"~#	c #B7474D",
"{#	c #CD505B",
"]#	c #913933",
"^#	c #743639",
"/#	c #1A2734",
"(#	c #A57356",
"_#	c #F1AB89",
":#	c #FBC5B8",
"<#	c #F4B296",
"[#	c #DB8C79",
"}#	c #913A37",
"|#	c #7F3434",
"1#	c #252936",
"2#	c #446133",
"3#	c #1D3933",
"4#	c #492F36",
"5#	c #5F3332",
"6#	c #CE505C",
"7#	c #D0515D",
"8#	c #C34C54",
"9#	c #5A333E",
"0#	c #453241",
"a#	c #0E2636",
"b#	c #845247",
"c#	c #EA9B6E",
"d#	c #FCC9BF",
"e#	c #EEA57E",
"f#	c #BE6551",
"g#	c #AD4447",
"h#	c #713347",
"i#	c #5C313C",
"j#	c #1D2839",
"k#	c #122A35",
"l#	c #809838",
"m#	c #122935",
"n#	c #244334",
"o#	c #192836",
"p#	c #363038",
"q#	c #7D3B46",
"r#	c #D2585D",
"s#	c #D2565E",
"t#	c #D45B5F",
"u#	c #CA5958",
"v#	c #CC5F59",
"w#	c #AA4E43",
"x#	c #6C3B41",
"y#	c #45313F",
"z#	c #362A32",
"A#	c #3F2D35",
"B#	c #6E3B44",
"C#	c #C77868",
"D#	c #F7BCA7",
"E#	c #FBC5B9",
"F#	c #EC9E80",
"G#	c #E89666",
"H#	c #AC4A45",
"I#	c #843843",
"J#	c #3E303A",
"K#	c #302E37",
"L#	c #112736",
"M#	c #213A34",
"N#	c #5B8432",
"O#	c #5D8632",
"P#	c #416134",
"Q#	c #284734",
"R#	c #1E3A34",
"S#	c #333036",
"T#	c #BC6D51",
"U#	c #D7645F",
"V#	c #D6625F",
"W#	c #DE7761",
"X#	c #DF7B62",
"Y#	c #E89465",
"Z#	c #D6705D",
"`#	c #AE5A55",
" $	c #B24B52",
".$	c #D67066",
"+$	c #E79281",
"@$	c #EFA680",
"#$	c #EDA080",
"$$	c #E28373",
"%$	c #E38664",
"&$	c #D66B60",
"*$	c #7D384B",
"=$	c #39303B",
"-$	c #492D43",
";$	c #395F32",
">$	c #1C3034",
",$	c #663537",
"'$	c #BA504E",
")$	c #D7655F",
"!$	c #DC7261",
"~$	c #D96B60",
"{$	c #D86660",
"]$	c #D3595E",
"^$	c #DA6C60",
"/$	c #E68F71",
"($	c #EFA782",
"_$	c #EEA37C",
":$	c #E99868",
"<$	c #E79265",
"[$	c #CE685F",
"}$	c #7F3850",
"|$	c #422F3F",
"1$	c #5A2E49",
"2$	c #2F293D",
"3$	c #203C34",
"4$	c #254234",
"5$	c #4F2F44",
"6$	c #3E2E34",
"7$	c #8A372F",
"8$	c #AA4344",
"9$	c #D97E5E",
"0$	c #E69165",
"a$	c #D86760",
"b$	c #DF7A67",
"c$	c #E18265",
"d$	c #D47B5B",
"e$	c #AC5243",
"f$	c #883C40",
"g$	c #643146",
"h$	c #393038",
"i$	c #352F3A",
"j$	c #32293F",
"k$	c #132935",
"l$	c #8BA538",
"m$	c #325332",
"n$	c #2C3634",
"o$	c #492F42",
"p$	c #4E2D46",
"q$	c #4E2F33",
"r$	c #7E352F",
"s$	c #8D3A30",
"t$	c #B35C47",
"u$	c #D8785E",
"v$	c #D35A5E",
"w$	c #D25A5D",
"x$	c #C14C53",
"y$	c #973E3D",
"z$	c #67373F",
"A$	c #3A3133",
"B$	c #0F2635",
"C$	c #5C8532",
"D$	c #3C6031",
"E$	c #2C3534",
"F$	c #402F3E",
"G$	c #342F39",
"H$	c #1A2835",
"I$	c #322A37",
"J$	c #572E41",
"K$	c #603143",
"L$	c #793840",
"M$	c #8C3A3B",
"N$	c #8B383A",
"O$	c #813533",
"P$	c #7A3531",
"Q$	c #543235",
"R$	c #2A2E35",
"S$	c #242D36",
"T$	c #252C37",
"U$	c #1A2A35",
"V$	c #112735",
"W$	c #142D35",
"X$	c #173135",
"Y$	c #507433",
"Z$	c #466733",
"`$	c #2D4435",
" %	c #162935",
".%	c #322F39",
"+%	c #4B2F43",
"@%	c #4D2F43",
"#%	c #482F42",
"$%	c #2F3036",
"%%	c #2D2E38",
"&%	c #425535",
"*%	c #2E5032",
"=%	c #4D7134",
"-%	c #233C35",
";%	c #234134",
">%	c #183435",
",%	c #0F2636",
"'%	c #202839",
")%	c #2C2A3C",
"!%	c #302B3C",
"~%	c #2F2B3B",
"{%	c #4A5D36",
"]%	c #6E8537",
"^%	c #132B34",
"/%	c #3F6730",
"(%	c #2B4B34",
"_%	c #3A6032",
":%	c #315532",
"<%	c #284335",
"[%	c #233535",
"}%	c #264534",
"|%	c #3B6231",
"1%	c #598033",
"2%	c #4D7133",
"3%	c #4C6F34",
"4%	c #3E6630",
"  . . . . . . . . . . . . . .   . . . + +   .   + . . . . . . . ",
".     . . . + + + . . . @ # $ % # & + * % = .     + + . . . .   ",
". .   . . . .     + - ; > , , , , ' ) ! ~ { ] ^       + . .     ",
". . . . . / ( _ : < [ } | 1 2 3 4 5 6 7 | 8 9 0 a .     . .   . ",
"+   . . b c d e , } f g h i j k l m n o p q r s t u . . . . . . ",
"  . . . v w , , x y z A B C D E F G H I J K L M N O 0 P Q . . . ",
"  .   R S T U V W X Y Z `  ...+.@.#.$.%.&.*.=.-.;.>.,.'.).. . + ",
".   / !.~.{.].^./.(._.:.<.[.}.|.1.2.3.4.5.6.7.8.9.0.a.b.c.d.+   ",
".   e.f.g.h.i.j.k.l.m.n.o.p.q.r.s.t.u.v.w.x.y.z.8.A.B.C.D.E.    ",
"/ F.G.1 1 | L H.I.J.K.L.M.N.O.O.P.Q.R.S.T.U.V.W.X.n C.Y.h.Z.  . ",
"`. +.+h.++@+#+$+%+&+*+=+-+;+>+,+,+'+)+!+~+(.{+]+^+/+(+@+h._+:+# ",
"<+[+x }+|+1+2+3+4+5+6+7+8+9+0+, , , a+b+c+d+e+f+g+h+i+j+k+l+m+n+",
"d o+p+x q+r+s+t+u+v+w+x+y+, , , , , , z+A+B+C+v.D+E+F+G+H+I+J+K+",
"L+M+[ N+O+P+Q+R+S+T+U+V+, , , , , , , , p+W+X+d+Y+Z+`+ @.@0+[ +@",
"@@#@$@%@&@*@=@-@;@>@,@, , , , , , , , , , '@)@!@~@{@3+]@^@/@(@_@",
":@<@[@}@|@1@2@3@4@5@6@, , , , , , , , , , 7@8@9@0@U.a@b@c@d@e@b.",
"f@g@h@i@j@k@l@f+(.m@n@, , , , , , , , , , o@p@q@r@j@s@t@u@v@w@x@",
"y@w z@A@B@C@D@E@F@G@H@, , , , [ , , , , , I@J@K@L@M@N@O@P@Q@R@S@",
". T@, , U@V@W@M@X@Y@Z@`@, , , , , , , ,  #.#+#@###$#%#&#*#=#-#;#",
". e.>#, ,#'#)#!#~#{#]#^#/#, , , , , , p+(#_#:#<#[#}#|#F 1#V 2#. ",
"R S 3#, , 4#5#f+6#7#8#n@9#0#a#, , , a+b#c#:#d#e#f#g#h#i#j#U k#b ",
"l#m#n#[ , o#p#q#r#s#t#u#v#w#x#y#z#A#B#C#D#E#F#G#H#I#J#K#L#M#e N#",
"O#P#Q#R#=#V @+S#T#U#V#W#X#Y#Z#`# $.$+$@$#$$$%$&$*$G+=$-$=#n#Z.  ",
"  . . ;$>$C.h.C.,$'$)$!$w.~${$]$^$/$($_$:$<$[$}$|$n 1$2$3$v ;#  ",
". + + + 4$4 6 5$6$7$8$9$G#0$8@a$s#b$c$d$e$f$g$h$C.i$j$k$l#.   . ",
". .     l$m$n$o$p$q$r$s$t$u$~$v$w$x$!#M@y$z$A$Y.U B$, P#C$+ . . ",
". . .     + D$E$F$G$H$I$J$K$L$M$N$O$P$Q$R$S$T$U$V$, W$X$Y$  . . ",
". . . .     . Z$`$g. %, 0+U$.%+%@%@%#%$%].p %%|+, &%, *%.   .   ",
"+ . . . .     =%-%, ;%>%, , ,%'%)%!%~%g.U  %} {%]%^%( . . .     ",
"  + . . . .   . /%v (%_%:%<%[%, , , , , :@}%Y$    |%. . . . .   ",
".   . . . . . . . . . . . . 1%$ ^ 2%3%;$4%  . . . . . . . . . . ",
". . . . . . . . . .     . . .   . . . . . . . . . . . . . . . . "};
