/* XPM */
static char * Exit_open_1_xpm[] = {
"32 32 606 2",
"  	c #5E8732",
". 	c #406930",
"+ 	c #94AF39",
"@ 	c #3F6831",
"# 	c #3B6230",
"$ 	c #89A238",
"% 	c #577D32",
"& 	c #406831",
"* 	c #587F32",
"= 	c #3E6730",
"- 	c #799138",
"; 	c #254334",
"> 	c #173234",
", 	c #0C2535",
"' 	c #384A36",
") 	c #385734",
"! 	c #253E35",
"~ 	c #183434",
"{ 	c #213E34",
"] 	c #223F34",
"^ 	c #385D32",
"/ 	c #3F6830",
"( 	c #2E5033",
"_ 	c #335632",
": 	c #4E7233",
"< 	c #2B4634",
"[ 	c #0D2635",
"} 	c #0E2635",
"| 	c #182935",
"1 	c #1F2C35",
"2 	c #2E2E38",
"3 	c #292C38",
"4 	c #242E34",
"5 	c #262F34",
"6 	c #2A3035",
"7 	c #242E35",
"8 	c #1D3035",
"9 	c #304B34",
"0 	c #264533",
"a 	c #2F5131",
"b 	c #3D6531",
"c 	c #1D3934",
"d 	c #163035",
"e 	c #1C3834",
"f 	c #212B35",
"g 	c #3C2F3D",
"h 	c #463039",
"i 	c #523231",
"j 	c #613238",
"k 	c #68323B",
"l 	c #513235",
"m 	c #3B3036",
"n 	c #313037",
"o 	c #3D303D",
"p 	c #3A303B",
"q 	c #2D3035",
"r 	c #272F34",
"s 	c #334B34",
"t 	c #3D6431",
"u 	c #3F682F",
"v 	c #355932",
"w 	c #193434",
"x 	c #122735",
"y 	c #362F34",
"z 	c #6F3340",
"A 	c #9D404B",
"B 	c #A14149",
"C 	c #8A3B48",
"D 	c #7B3438",
"E 	c #76333A",
"F 	c #71323D",
"G 	c #773339",
"H 	c #67313D",
"I 	c #4B303B",
"J 	c #3F2F3E",
"K 	c #313038",
"L 	c #2E3036",
"M 	c #2B3035",
"N 	c #293934",
"O 	c #395F31",
"P 	c #5B7036",
"Q 	c #8EA839",
"R 	c #3C6431",
"S 	c #365B32",
"T 	c #182D35",
"U 	c #1D2B35",
"V 	c #172935",
"W 	c #2E3034",
"X 	c #75353A",
"Y 	c #853635",
"Z 	c #8B3940",
"` 	c #A4424E",
" .	c #AF454D",
"..	c #BA4950",
"+.	c #C54E59",
"@.	c #B84952",
"#.	c #9F3F44",
"$.	c #923B3B",
"%.	c #973D41",
"&.	c #933B3B",
"*.	c #753D42",
"=.	c #4E3040",
"-.	c #42303F",
";.	c #252E34",
">.	c #1F3235",
",.	c #576B37",
"'.	c #152D35",
").	c #2D4834",
"!.	c #2A4233",
"~.	c #102835",
"{.	c #232E34",
"].	c #2F2F38",
"^.	c #472E42",
"/.	c #533235",
"(.	c #9F3E3D",
"_.	c #AD4446",
":.	c #C25F55",
"<.	c #B9555B",
"[.	c #9C424B",
"}.	c #793540",
"|.	c #7A3439",
"1.	c #803535",
"2.	c #7D3336",
"3.	c #7E3536",
"4.	c #A64141",
"5.	c #9F413C",
"6.	c #913B33",
"7.	c #853737",
"8.	c #5F2F47",
"9.	c #4B2E43",
"0.	c #182936",
"a.	c #142935",
"b.	c #0F2735",
"c.	c #213D34",
"d.	c #395E31",
"e.	c #3A6031",
"f.	c #1C3534",
"g.	c #202C35",
"h.	c #293034",
"i.	c #472F41",
"j.	c #4B2F41",
"k.	c #753434",
"l.	c #983C39",
"m.	c #D97A71",
"n.	c #FCC7BB",
"o.	c #FDCAC0",
"p.	c #D47767",
"q.	c #B04651",
"r.	c #8A3838",
"s.	c #913935",
"t.	c #903832",
"u.	c #89362E",
"v.	c #BB494F",
"w.	c #D96860",
"x.	c #DC845F",
"y.	c #91413A",
"z.	c #803533",
"A.	c #412F3F",
"B.	c #202C34",
"C.	c #2A3034",
"D.	c #2C4434",
"E.	c #91AC39",
"F.	c #396031",
"G.	c #2E4F33",
"H.	c #5B3139",
"I.	c #7A333A",
"J.	c #D06E5B",
"K.	c #F4B49A",
"L.	c #F6B9A5",
"M.	c #AE6C77",
"N.	c #62314B",
"O.	c #5B2E4A",
"P.	c #602F46",
"Q.	c #773649",
"R.	c #883737",
"S.	c #A44141",
"T.	c #B6474C",
"U.	c #CF5D5B",
"V.	c #BA5055",
"W.	c #70313D",
"X.	c #7B3436",
"Y.	c #282F34",
"Z.	c #446534",
"`.	c #305233",
" +	c #1C3733",
".+	c #152D34",
"++	c #152835",
"@+	c #212D35",
"#+	c #432F3E",
"$+	c #753239",
"%+	c #97464F",
"&+	c #EDA17E",
"*+	c #E7936B",
"=+	c #C86759",
"-+	c #602F48",
";+	c #6E3349",
">+	c #6A3245",
",+	c #4E2D3A",
"'+	c #5C2F3F",
")+	c #612F46",
"!+	c #713344",
"~+	c #B84950",
"{+	c #943A36",
"]+	c #75323A",
"^+	c #833531",
"/+	c #57303E",
"(+	c #343039",
"_+	c #1D2F34",
":+	c #315333",
"<+	c #173235",
"[+	c #203D34",
"}+	c #222D34",
"|+	c #142835",
"1+	c #363039",
"2+	c #5C2F46",
"3+	c #7A3337",
"4+	c #C06B58",
"5+	c #EB9D70",
"6+	c #E79465",
"7+	c #A24041",
"8+	c #743333",
"9+	c #4B313A",
"0+	c #0D2535",
"a+	c #282934",
"b+	c #552E3F",
"c+	c #8A3B4E",
"d+	c #C74E57",
"e+	c #BD4A50",
"f+	c #9D3E3B",
"g+	c #7B3336",
"h+	c #55313A",
"i+	c #343038",
"j+	c #2E2F37",
"k+	c #202D34",
"l+	c #232E35",
"m+	c #244234",
"n+	c #2C4D33",
"o+	c #405337",
"p+	c #102635",
"q+	c #222A38",
"r+	c #653042",
"s+	c #783339",
"t+	c #B74B53",
"u+	c #E49177",
"v+	c #E69067",
"w+	c #DD7461",
"x+	c #903C3D",
"y+	c #1E2834",
"z+	c #122636",
"A+	c #603344",
"B+	c #BD4A52",
"C+	c #AF4547",
"D+	c #85373B",
"E+	c #603045",
"F+	c #333038",
"G+	c #432F3F",
"H+	c #1C2B35",
"I+	c #212D34",
"J+	c #1D3835",
"K+	c #3D5C34",
"L+	c #365B31",
"M+	c #1E3235",
"N+	c #1C2735",
"O+	c #6B3238",
"P+	c #923A37",
"Q+	c #AC4345",
"R+	c #CF515D",
"S+	c #D2555E",
"T+	c #C45B54",
"U+	c #B6484D",
"V+	c #2C2A35",
"W+	c #953F41",
"X+	c #A74141",
"Y+	c #A03F3E",
"Z+	c #71323C",
"`+	c #3E2F3D",
" @	c #3B303B",
".@	c #1E2C35",
"+@	c #385B31",
"@@	c #234034",
"#@	c #4C3037",
"$@	c #923F37",
"%@	c #A94845",
"&@	c #B94A4E",
"*@	c #BA494E",
"=@	c #B5474B",
"-@	c #A74342",
";@	c #B94D4D",
">@	c #A84242",
",@	c #A1444C",
"'@	c #5E3638",
")@	c #B7534B",
"!@	c #CF625A",
"~@	c #AD4545",
"{@	c #8E3B47",
"]@	c #8A3A43",
"^@	c #673331",
"/@	c #482D36",
"(@	c #232837",
"_@	c #314034",
":@	c #1D3535",
"<@	c #935351",
"[@	c #DE7762",
"}@	c #E58B64",
"|@	c #E18163",
"1@	c #D3675D",
"2@	c #C64F56",
"3@	c #A3453F",
"4@	c #B55E48",
"5@	c #CB6557",
"6@	c #CC765D",
"7@	c #B37259",
"8@	c #AC7055",
"9@	c #B57A5A",
"0@	c #B67D5B",
"a@	c #B3735A",
"b@	c #AE7157",
"c@	c #AD796C",
"d@	c #A4615D",
"e@	c #CD715E",
"f@	c #D96960",
"g@	c #DC7364",
"h@	c #DC7162",
"i@	c #C55D55",
"j@	c #C0605A",
"k@	c #C86255",
"l@	c #C45553",
"m@	c #A14C4E",
"n@	c #284235",
"o@	c #3F2E38",
"p@	c #86383A",
"q@	c #933A35",
"r@	c #9C3D3A",
"s@	c #AC4F44",
"t@	c #B24549",
"u@	c #A54244",
"v@	c #9F4143",
"w@	c #A64852",
"x@	c #783635",
"y@	c #7D3836",
"z@	c #914642",
"A@	c #A35053",
"B@	c #85464F",
"C@	c #733845",
"D@	c #793738",
"E@	c #7F3C3B",
"F@	c #884F40",
"G@	c #9D5747",
"H@	c #BF6657",
"I@	c #E07E7D",
"J@	c #B7494E",
"K@	c #983B37",
"L@	c #993C38",
"M@	c #A2403F",
"N@	c #A04644",
"O@	c #674243",
"P@	c #1F2D35",
"Q@	c #577E33",
"R@	c #112636",
"S@	c #152735",
"T@	c #4B2F33",
"U@	c #6C313F",
"V@	c #A1424D",
"W@	c #893731",
"X@	c #6F323E",
"Y@	c #9F4041",
"Z@	c #733837",
"`@	c #332A33",
" #	c #2D2A33",
".#	c #1D2934",
"+#	c #513133",
"@#	c #B6817C",
"##	c #ECA095",
"$#	c #B95C4C",
"%#	c #8D3831",
"&#	c #88383A",
"*#	c #6F323D",
"=#	c #563232",
"-#	c #192835",
";#	c #192A35",
">#	c #394E33",
",#	c #274533",
"'#	c #402D32",
")#	c #632F45",
"!#	c #98404F",
"~#	c #913A3B",
"{#	c #943D43",
"]#	c #9B3E3C",
"^#	c #382F3D",
"/#	c #132937",
"(#	c #BC7959",
"_#	c #F8BDA9",
":#	c #F9C0AD",
"<#	c #E7A490",
"[#	c #8C3831",
"}#	c #733341",
"|#	c #643044",
"1#	c #3F2E33",
"2#	c #102735",
"3#	c #344533",
"4#	c #5B8332",
"5#	c #122B35",
"6#	c #1E2934",
"7#	c #5F3239",
"8#	c #803840",
"9#	c #A3403F",
"0#	c #B7474D",
"a#	c #CD505B",
"b#	c #913933",
"c#	c #743639",
"d#	c #1A2734",
"e#	c #A57356",
"f#	c #F1AB89",
"g#	c #FBC5B8",
"h#	c #F4B296",
"i#	c #DB8C79",
"j#	c #913A37",
"k#	c #7F3434",
"l#	c #252936",
"m#	c #446133",
"n#	c #1D3933",
"o#	c #492F36",
"p#	c #5F3332",
"q#	c #CE505C",
"r#	c #D0515D",
"s#	c #C34C54",
"t#	c #5A333E",
"u#	c #453241",
"v#	c #0E2636",
"w#	c #845247",
"x#	c #EA9B6E",
"y#	c #FCC9BF",
"z#	c #EEA57E",
"A#	c #BE6551",
"B#	c #AD4447",
"C#	c #713347",
"D#	c #5C313C",
"E#	c #1D2839",
"F#	c #122A35",
"G#	c #809838",
"H#	c #122935",
"I#	c #244334",
"J#	c #192836",
"K#	c #363038",
"L#	c #7D3B46",
"M#	c #D2585D",
"N#	c #D2565E",
"O#	c #D45B5F",
"P#	c #CA5958",
"Q#	c #CC5F59",
"R#	c #AA4E43",
"S#	c #6C3B41",
"T#	c #45313F",
"U#	c #362A32",
"V#	c #3F2D35",
"W#	c #6E3B44",
"X#	c #C77868",
"Y#	c #F7BCA7",
"Z#	c #FBC5B9",
"`#	c #EC9E80",
" $	c #E89666",
".$	c #AC4A45",
"+$	c #843843",
"@$	c #3E303A",
"#$	c #302E37",
"$$	c #112736",
"%$	c #213A34",
"&$	c #5B8432",
"*$	c #5D8632",
"=$	c #416134",
"-$	c #284734",
";$	c #1E3A34",
">$	c #333036",
",$	c #BC6D51",
"'$	c #D7645F",
")$	c #D6625F",
"!$	c #DE7761",
"~$	c #DF7B62",
"{$	c #E89465",
"]$	c #D6705D",
"^$	c #AE5A55",
"/$	c #B24B52",
"($	c #D67066",
"_$	c #E79281",
":$	c #EFA680",
"<$	c #EDA080",
"[$	c #E28373",
"}$	c #E38664",
"|$	c #D66B60",
"1$	c #7D384B",
"2$	c #39303B",
"3$	c #492D43",
"4$	c #395F32",
"5$	c #1C3034",
"6$	c #663537",
"7$	c #BA504E",
"8$	c #D7655F",
"9$	c #DC7261",
"0$	c #D96B60",
"a$	c #D86660",
"b$	c #D3595E",
"c$	c #DA6C60",
"d$	c #E68F71",
"e$	c #EFA782",
"f$	c #EEA37C",
"g$	c #E99868",
"h$	c #E79265",
"i$	c #CE685F",
"j$	c #7F3850",
"k$	c #422F3F",
"l$	c #5A2E49",
"m$	c #2F293D",
"n$	c #203C34",
"o$	c #254234",
"p$	c #4F2F44",
"q$	c #3E2E34",
"r$	c #8A372F",
"s$	c #AA4344",
"t$	c #D97E5E",
"u$	c #E69165",
"v$	c #D86760",
"w$	c #DF7A67",
"x$	c #E18265",
"y$	c #D47B5B",
"z$	c #AC5243",
"A$	c #883C40",
"B$	c #643146",
"C$	c #393038",
"D$	c #352F3A",
"E$	c #32293F",
"F$	c #132935",
"G$	c #8BA538",
"H$	c #325332",
"I$	c #2C3634",
"J$	c #492F42",
"K$	c #4E2D46",
"L$	c #4E2F33",
"M$	c #7E352F",
"N$	c #8D3A30",
"O$	c #B35C47",
"P$	c #D8785E",
"Q$	c #D35A5E",
"R$	c #D25A5D",
"S$	c #C14C53",
"T$	c #973E3D",
"U$	c #67373F",
"V$	c #3A3133",
"W$	c #0F2635",
"X$	c #5C8532",
"Y$	c #3C6031",
"Z$	c #2C3534",
"`$	c #402F3E",
" %	c #342F39",
".%	c #1A2835",
"+%	c #322A37",
"@%	c #572E41",
"#%	c #603143",
"$%	c #793840",
"%%	c #8C3A3B",
"&%	c #8B383A",
"*%	c #813533",
"=%	c #7A3531",
"-%	c #543235",
";%	c #2A2E35",
">%	c #242D36",
",%	c #252C37",
"'%	c #1A2A35",
")%	c #112735",
"!%	c #142D35",
"~%	c #173135",
"{%	c #507433",
"]%	c #466733",
"^%	c #2D4435",
"/%	c #162935",
"(%	c #322F39",
"_%	c #4B2F43",
":%	c #4D2F43",
"<%	c #482F42",
"[%	c #2F3036",
"}%	c #2D2E38",
"|%	c #425535",
"1%	c #2E5032",
"2%	c #4D7134",
"3%	c #233C35",
"4%	c #234134",
"5%	c #183435",
"6%	c #0F2636",
"7%	c #202839",
"8%	c #2C2A3C",
"9%	c #302B3C",
"0%	c #2F2B3B",
"a%	c #4A5D36",
"b%	c #6E8537",
"c%	c #132B34",
"d%	c #3F6730",
"e%	c #2B4B34",
"f%	c #3A6032",
"g%	c #315532",
"h%	c #284335",
"i%	c #233535",
"j%	c #264534",
"k%	c #3B6231",
"l%	c #598033",
"m%	c #4D7133",
"n%	c #4C6F34",
"o%	c #3E6630",
"  . . . . . . . . . . . . . .   . . . + +   .   + . . . . . . . ",
".     . . . + + + . . . @ # $ % # & + * % = .     + + . . . .   ",
". .   . . . .     + - ; > , , , , ' ) ! ~ { ] ^       + . .     ",
". . . . . / ( _ : < [ } | 1 2 3 4 5 6 7 | 8 9 0 a .     . .   . ",
"+   . . b c d e , } f g h i j k l m n o p q r s t u . . . . . . ",
"  . . . v w , , x y z A B C D E F G H I J K L M N O 0 P Q . . . ",
"  .   R S T U V W X Y Z `  ...+.@.#.$.%.&.*.=.-.;.>.,.'.).. . + ",
".   / !.~.{.].^./.(._.:.<.[.}.|.1.2.3.4.5.6.7.8.9.0.a.b.c.d.+   ",
".   e.f.g.h.i.j.k.l.m.n.o.p.q.r.s.t.u.v.w.x.y.z.8.A.B.C.D.E.    ",
"/ F.G.1 1 | L H.I.J.K.L.M.N.O.O.P.Q.R.S.T.U.V.W.X.n C.Y.h.Z.  . ",
"`. +.+h.++@+#+$+%+&+*+=+-+;+>+,+,+'+)+!+~+(.{+]+^+/+(+@+h._+:+# ",
"<+[+x }+|+1+2+3+4+5+6+7+8+9+0+, , , a+b+c+d+e+f+g+h+i+j+k+l+m+n+",
"d o+p+x q+r+s+t+u+v+w+x+y+, , , , , , z+A+B+C+v.D+E+F+G+H+I+J+K+",
"L+M+[ N+O+P+Q+R+S+T+U+V+, , , , , , , , p+W+X+d+Y+Z+`+ @.@0+[ +@",
"@@#@$@%@&@*@=@-@;@>@,@, , , , , , , , , , '@)@!@~@{@3+]@^@/@(@_@",
":@<@[@}@|@1@2@3@4@5@6@7@8@7@9@0@0@a@b@c@d@e@f@g@h@U.i@j@k@l@m@b.",
"n@o@p@q@r@s@t@f+(.u@v@w@x@y@z@A@B@C@D@E@F@G@H@I@J@r@K@L@M@N@O@P@",
"Q@w R@S@T@U@V@W@X@Y@Z@`@ #x } [ ++|+0+|+.#+#@###$#%#&#*#=#-#;#>#",
". ,#, , '#)#!#%#~#{#]#^#, , , , , , , , /#(#_#:#<#[#}#|#1#2#3#4#",
". e.5#, 6#7#8#9#0#a#b#c#d#, , , , , , p+e#f#g#h#i#j#k#F l#V m#. ",
"R S n#, , o#p#f+q#r#s#v@t#u#v#, , , a+w#x#g#y#z#A#B#C#D#E#U F#b ",
"G#H#I#[ , J#K#L#M#N#O#P#Q#R#S#T#U#V#W#X#Y#Z#`# $.$+$@$#$$$%$e &$",
"*$=$-$;$2#V @+>$,$'$)$!$~${$]$^$/$($_$:$<$[$}$|$1$G+2$3$2#I#Z.  ",
"  . . 4$5$C.h.C.6$7$8$9$w.0$a$b$c$d$e$f$g$h$i$j$k$n l$m$n$v 4#  ",
". + + + o$4 6 p$q$r$s$t$ $u$f@v$N#w$x$y$z$A$B$C$C.D$E$F$G#.   . ",
". .     G$H$I$J$K$L$M$N$O$P$0$Q$R$S$9#%#T$U$V$Y.U W$, =$X$+ . . ",
". . .     + Y$Z$`$ %.%+%@%#%$%%%&%*%=%-%;%>%,%'%)%, !%~%{%  . . ",
". . . .     . ]%^%g./%, 0+'%(%_%:%:%<%[%].p }%|+, |%, 1%.   .   ",
"+ . . . .     2%3%, 4%5%, , 6%7%8%9%0%g.U /%} a%b%c%( . . .     ",
"  + . . . .   . d%v e%f%g%h%i%, , , , , :@j%{%    k%. . . . .   ",
".   . . . . . . . . . . . . l%$ ^ m%n%4$o%  . . . . . . . . . . ",
". . . . . . . . . .     . . .   . . . . . . . . . . . . . . . . "};
