/* XPM */
static char * Exit_open_2_xpm[] = {
"32 32 722 2",
"  	c #5E8732",
". 	c #406930",
"+ 	c #3D6530",
"@ 	c #3F6730",
"# 	c #3B6131",
"$ 	c #3D6431",
"% 	c #517633",
"& 	c #2D4F33",
"* 	c #2A4B33",
"= 	c #315333",
"- 	c #8EA839",
"; 	c #94AF39",
"> 	c #718738",
", 	c #2B4B33",
"' 	c #325632",
") 	c #365B32",
"! 	c #315332",
"~ 	c #263D33",
"{ 	c #637937",
"] 	c #3A5834",
"^ 	c #173135",
"/ 	c #142D35",
"( 	c #556936",
"_ 	c #4D7133",
": 	c #5B8232",
"< 	c #456633",
"[ 	c #243D36",
"} 	c #485B36",
"| 	c #304134",
"1 	c #243E34",
"2 	c #1D3035",
"3 	c #263535",
"4 	c #1C2C34",
"5 	c #1B2B35",
"6 	c #182935",
"7 	c #0D2535",
"8 	c #1D3535",
"9 	c #2F4B34",
"0 	c #274633",
"a 	c #355A32",
"b 	c #395F31",
"c 	c #2B4C33",
"d 	c #264035",
"e 	c #1C3235",
"f 	c #1A2C34",
"g 	c #272F34",
"h 	c #1D2B35",
"i 	c #1F2C35",
"j 	c #2F3037",
"k 	c #322F39",
"l 	c #2B2C39",
"m 	c #1B2A35",
"n 	c #162835",
"o 	c #182835",
"p 	c #162B35",
"q 	c #173035",
"r 	c #334F34",
"s 	c #315432",
"t 	c #3E6730",
"u 	c #406830",
"v 	c #2C4E33",
"w 	c #2D3B37",
"x 	c #2F2D36",
"y 	c #0F2835",
"z 	c #112635",
"A 	c #172935",
"B 	c #212B36",
"C 	c #372F3A",
"D 	c #482F41",
"E 	c #4E303D",
"F 	c #443135",
"G 	c #573238",
"H 	c #53313A",
"I 	c #422F3A",
"J 	c #292B39",
"K 	c #162C35",
"L 	c #1B3235",
"M 	c #2A4A33",
"N 	c #3C6330",
"O 	c #355932",
"P 	c #293538",
"Q 	c #905250",
"R 	c #904741",
"S 	c #5D3639",
"T 	c #232835",
"U 	c #272A37",
"V 	c #332D3A",
"W 	c #392F3B",
"X 	c #412F3E",
"Y 	c #523139",
"Z 	c #61313B",
"` 	c #733434",
" .	c #8E3B3B",
"..	c #903B3C",
"+.	c #82363A",
"@.	c #973E49",
"#.	c #613540",
"$.	c #382E36",
"%.	c #1E2B35",
"&.	c #122735",
"*.	c #93AE39",
"=.	c #3F6830",
"-.	c #345832",
";.	c #383B37",
">.	c #8E4845",
",.	c #DE7D61",
"'.	c #B9594E",
").	c #8D3E43",
"!.	c #763538",
"~.	c #6F323F",
"{.	c #663140",
"].	c #6C313C",
"^.	c #813941",
"/.	c #883D43",
"(.	c #AA5148",
"_.	c #B55751",
":.	c #B95452",
"<.	c #A34948",
"[.	c #9B3F49",
"}.	c #653539",
"|.	c #4A3036",
"1.	c #292C38",
"2.	c #122736",
"3.	c #637837",
"4.	c #5B8332",
"5.	c #3C6331",
"6.	c #355234",
"7.	c #183036",
"8.	c #5F3237",
"9.	c #AF5545",
"0.	c #E08062",
"a.	c #C15452",
"b.	c #AA4345",
"c.	c #A24042",
"d.	c #A5444B",
"e.	c #A9534F",
"f.	c #B86457",
"g.	c #DA8C73",
"h.	c #E49378",
"i.	c #ECA290",
"j.	c #F1B2A7",
"k.	c #C76C69",
"l.	c #AB4952",
"m.	c #A6424C",
"n.	c #81373D",
"o.	c #6B3339",
"p.	c #4E3039",
"q.	c #232D35",
"r.	c #496C33",
"s.	c #588033",
"t.	c #3B6231",
"u.	c #294434",
"v.	c #1B2835",
"w.	c #7A3737",
"x.	c #B6564A",
"y.	c #CF605B",
"z.	c #B9494E",
"A.	c #B7484C",
"B.	c #CF555E",
"C.	c #E28A73",
"D.	c #E3916B",
"E.	c #E9996E",
"F.	c #E18B68",
"G.	c #E9A28F",
"H.	c #E0A59F",
"I.	c #E8A49B",
"J.	c #A54A4F",
"K.	c #9F414A",
"L.	c #AD454D",
"M.	c #78343C",
"N.	c #5E3238",
"O.	c #393035",
"P.	c #273234",
"Q.	c #254134",
"R.	c #305332",
"S.	c #8CA638",
"T.	c #5D8632",
"U.	c #335632",
"V.	c #234134",
"W.	c #264433",
"X.	c #102935",
"Y.	c #3A2C33",
"Z.	c #5C303A",
"`.	c #9A4444",
" +	c #B9494D",
".+	c #AF4847",
"++	c #AD4845",
"@+	c #C35054",
"#+	c #CC635A",
"$+	c #DD7D62",
"%+	c #D5795C",
"&+	c #B3534B",
"*+	c #8A464F",
"=+	c #884E60",
"-+	c #924E57",
";+	c #B35054",
">+	c #80363F",
",+	c #A2424A",
"'+	c #A8444D",
")+	c #76333B",
"!+	c #4C3137",
"~+	c #2F3036",
"{+	c #253035",
"]+	c #233B35",
"^+	c #446534",
"/+	c #2D4E33",
"(+	c #1B3634",
"_+	c #0C2535",
":+	c #182834",
"<+	c #4A2E3A",
"[+	c #723446",
"}+	c #9E414D",
"|+	c #9D3E3E",
"1+	c #A2433E",
"2+	c #B75E49",
"3+	c #B24C48",
"4+	c #B04A4B",
"5+	c #A4494B",
"6+	c #8D3F40",
"7+	c #6E3538",
"8+	c #66323B",
"9+	c #6E3349",
"0+	c #613049",
"a+	c #783648",
"b+	c #893838",
"c+	c #823536",
"d+	c #963C41",
"e+	c #913B40",
"f+	c #69313D",
"g+	c #42303B",
"h+	c #312F39",
"i+	c #182B35",
"j+	c #1E3934",
"k+	c #576A37",
"l+	c #193135",
"m+	c #2F2B36",
"n+	c #62333A",
"o+	c #8A3C47",
"p+	c #913B3B",
"q+	c #803536",
"r+	c #8F3A3E",
"s+	c #B04D48",
"t+	c #C96B59",
"u+	c #944B4C",
"v+	c #292A37",
"w+	c #212935",
"x+	c #172734",
"y+	c #312C38",
"z+	c #352B3B",
"A+	c #5E3040",
"B+	c #582E45",
"C+	c #74333F",
"D+	c #8E3834",
"E+	c #803435",
"F+	c #893839",
"G+	c #84393E",
"H+	c #49303C",
"I+	c #3B303B",
"J+	c #2A3136",
"K+	c #1F3734",
"L+	c #264533",
"M+	c #91AB39",
"N+	c #476933",
"O+	c #142B35",
"P+	c #132735",
"Q+	c #322C36",
"R+	c #613333",
"S+	c #943D3E",
"T+	c #9C3E3C",
"U+	c #8A393C",
"V+	c #953D40",
"W+	c #994041",
"X+	c #AE544E",
"Y+	c #AD6E58",
"Z+	c #33373D",
"`+	c #202737",
" @	c #4E2D3A",
".@	c #663145",
"+@	c #83373C",
"@@	c #88362F",
"#@	c #9C3E3E",
"$@	c #9C3E3F",
"%@	c #7B383C",
"&@	c #363039",
"*@	c #2C3035",
"=@	c #253834",
"-@	c #284733",
";@	c #557C33",
">@	c #355033",
",@	c #1F2E34",
"'@	c #1A2A35",
")@	c #2E2F37",
"!@	c #73383E",
"~@	c #AF4447",
"{@	c #BD4951",
"]@	c #AD454C",
"^@	c #943D3F",
"/@	c #693637",
"(@	c #7E3D46",
"_@	c #974F48",
":@	c #A56C54",
"<@	c #222837",
"[@	c #5E2F41",
"}@	c #7D353C",
"|@	c #A14040",
"1@	c #C15252",
"2@	c #A74741",
"3@	c #863C3B",
"4@	c #54353E",
"5@	c #2E3036",
"6@	c #415036",
"7@	c #728837",
"8@	c #365B31",
"9@	c #557C32",
"0@	c #273F33",
"a@	c #282F34",
"b@	c #2D2F36",
"c@	c #8C464A",
"d@	c #D0555D",
"e@	c #CF505C",
"f@	c #B4464B",
"g@	c #893A38",
"h@	c #3F2F3B",
"i@	c #2E2A33",
"j@	c #5B3235",
"k@	c #904D42",
"l@	c #AB7358",
"m@	c #34393E",
"n@	c #102635",
"o@	c #392B39",
"p@	c #6C3245",
"q@	c #A24146",
"r@	c #C65755",
"s@	c #D17559",
"t@	c #923F39",
"u@	c #62323D",
"v@	c #3D303C",
"w@	c #2E3A35",
"x@	c #819938",
"y@	c #2F4933",
"z@	c #2A3135",
"A@	c #353039",
"B@	c #4B3838",
"C@	c #BD6B52",
"D@	c #D25B5D",
"E@	c #CF545C",
"F@	c #B7484E",
"G@	c #7F383B",
"H@	c #2C2B37",
"I@	c #122635",
"J@	c #5F383B",
"K@	c #A35C4F",
"L@	c #AC7859",
"M@	c #33393E",
"N@	c #312A39",
"O@	c #743646",
"P@	c #B6484E",
"Q@	c #BF5252",
"R@	c #BE5C53",
"S@	c #8B3D39",
"T@	c #673143",
"U@	c #3F2F3E",
"V@	c #263734",
"W@	c #537733",
"X@	c #567C32",
"Y@	c #5C8532",
"Z@	c #355132",
"`@	c #40313E",
" #	c #492F3F",
".#	c #5B3437",
"+#	c #B4524E",
"@#	c #D6635F",
"##	c #D45E5E",
"$#	c #BB5051",
"%#	c #6F373F",
"&#	c #212936",
"*#	c #0D2635",
"=#	c #6B4048",
"-#	c #995A54",
";#	c #AA7258",
">#	c #32373D",
",#	c #2C2A3B",
"'#	c #803A4B",
")#	c #B4474F",
"!#	c #9A3C3A",
"~#	c #A34549",
"{#	c #7B353A",
"]#	c #683140",
"^#	c #3E2D40",
"/#	c #1C2F35",
"(#	c #264334",
"_#	c #5A6E36",
":#	c #324C32",
"<#	c #3E313D",
"[#	c #4D2D42",
"}#	c #743431",
"|#	c #B44E4A",
"1#	c #D8675F",
"2#	c #DD7561",
"3#	c #D1665B",
"4#	c #954A4A",
"5#	c #3D303F",
"6#	c #0F2636",
"7#	c #132835",
"8#	c #573642",
"9#	c #8A4D4A",
"0#	c #A46C55",
"a#	c #313840",
"b#	c #2B2B39",
"c#	c #A5444D",
"d#	c #BD4A51",
"e#	c #A94345",
"f#	c #78333A",
"g#	c #793337",
"h#	c #5D313C",
"i#	c #3A2E3D",
"j#	c #364835",
"k#	c #284235",
"l#	c #375D32",
"m#	c #2B4933",
"n#	c #36323C",
"o#	c #412F39",
"p#	c #6E3432",
"q#	c #AD4C46",
"r#	c #D9745F",
"s#	c #DB7061",
"t#	c #E28363",
"u#	c #BB634D",
"v#	c #56373E",
"w#	c #0E2635",
"x#	c #533137",
"y#	c #8E504A",
"z#	c #9F6B63",
"A#	c #35343E",
"B#	c #63363B",
"C#	c #A34143",
"D#	c #B14648",
"E#	c #AA4344",
"F#	c #853637",
"G#	c #743335",
"H#	c #3B3039",
"I#	c #2A2F36",
"J#	c #222D34",
"K#	c #1A3035",
"L#	c #2B4634",
"M#	c #345932",
"N#	c #253D35",
"O#	c #2A3735",
"P#	c #242B36",
"Q#	c #4B2F33",
"R#	c #974337",
"S#	c #DA845E",
"T#	c #DF7C62",
"U#	c #DD7661",
"V#	c #DB795F",
"W#	c #7B4548",
"X#	c #2D2C3A",
"Y#	c #112735",
"Z#	c #5D3A3A",
"`#	c #95564B",
" $	c #BD6A5B",
".$	c #9B4E48",
"+$	c #B54D4A",
"@$	c #C24C54",
"#$	c #9B3E43",
"$$	c #72333A",
"%$	c #54313B",
"&$	c #3C303A",
"*$	c #2A2F35",
"=$	c #2A3334",
"-$	c #364E34",
";$	c #3E6630",
">$	c #244234",
",$	c #223935",
"'$	c #142835",
")$	c #272936",
"!$	c #723C3E",
"~$	c #C56D52",
"{$	c #E48C64",
"]$	c #DA6C60",
"^$	c #D1625D",
"/$	c #AF5855",
"($	c #5D353D",
"_$	c #282934",
":$	c #132635",
"<$	c #222A34",
"[$	c #7C483F",
"}$	c #BC6455",
"|$	c #D86A60",
"1$	c #D0655B",
"2$	c #B44A4A",
"3$	c #8C393E",
"4$	c #603044",
"5$	c #3D303A",
"6$	c #2F2F37",
"7$	c #222E35",
"8$	c #293034",
"9$	c #314F33",
"0$	c #90AB39",
"a$	c #325533",
"b$	c #274634",
"c$	c #1F3836",
"d$	c #0F2535",
"e$	c #472D3E",
"f$	c #97514F",
"g$	c #D96F60",
"h$	c #D86760",
"i$	c #D5605F",
"j$	c #CE615C",
"k$	c #C7605D",
"l$	c #774749",
"m$	c #51333D",
"n$	c #5D4140",
"o$	c #5C4C46",
"p$	c #64524A",
"q$	c #875C4B",
"r$	c #895D5B",
"s$	c #C5756B",
"t$	c #DD7972",
"u$	c #D96F61",
"v$	c #AE4B4B",
"w$	c #7E3641",
"x$	c #48303C",
"y$	c #3A303B",
"z$	c #242E34",
"A$	c #233134",
"B$	c #305232",
"C$	c #396032",
"D$	c #1E2A36",
"E$	c #61343F",
"F$	c #A84C4D",
"G$	c #D35C5E",
"H$	c #D3585E",
"I$	c #DE7767",
"J$	c #E48E73",
"K$	c #E79280",
"L$	c #BF7767",
"M$	c #C78470",
"N$	c #E49B72",
"O$	c #E6A587",
"P$	c #E7A991",
"Q$	c #EBB1A0",
"R$	c #E99F94",
"S$	c #C86562",
"T$	c #BD5350",
"U$	c #CA5A59",
"V$	c #8F3E41",
"W$	c #60333C",
"X$	c #382F3B",
"Y$	c #212C36",
"Z$	c #212D35",
"`$	c #223634",
" %	c #486A34",
".%	c #2E4F32",
"+%	c #132D35",
"@%	c #182836",
"#%	c #402F3E",
"$%	c #7B373D",
"%%	c #AB484A",
"&%	c #CB5659",
"*%	c #DB7663",
"=%	c #E99776",
"-%	c #EEA37F",
";%	c #EEA380",
">%	c #F4B39C",
",%	c #F9C1B1",
"'%	c #FBC5B8",
")%	c #F9C1B0",
"!%	c #F7BAA3",
"~%	c #E5A08E",
"{%	c #AB5245",
"]%	c #973B37",
"^%	c #AA4843",
"/%	c #BE5B55",
"(%	c #914145",
"_%	c #473035",
":%	c #162935",
"<%	c #1E3035",
"[%	c #213E34",
"}%	c #5A8132",
"|%	c #3A6131",
"1%	c #152836",
"2%	c #302B3D",
"3%	c #4F2F43",
"4%	c #773439",
"5%	c #993E3F",
"6%	c #AD4B45",
"7%	c #CF7559",
"8%	c #DB8965",
"9%	c #EA996E",
"0%	c #E48875",
"a%	c #EEA48D",
"b%	c #F1AB91",
"c%	c #F0A985",
"d%	c #E0957E",
"e%	c #C57869",
"f%	c #8B3832",
"g%	c #883838",
"h%	c #8F3939",
"i%	c #A94A45",
"j%	c #C05E53",
"k%	c #6D393B",
"l%	c #252836",
"m%	c #1E3235",
"n%	c #91AC39",
"o%	c #365A32",
"p%	c #1F2839",
"q%	c #392C3E",
"r%	c #4E2F42",
"s%	c #6E3335",
"t%	c #773634",
"u%	c #99423A",
"v%	c #A54D42",
"w%	c #C27056",
"x%	c #DC7F65",
"y%	c #E08063",
"z%	c #E38A66",
"A%	c #C76F58",
"B%	c #B95C50",
"C%	c #943B3A",
"D%	c #7E3539",
"E%	c #703241",
"F%	c #6A323B",
"G%	c #893B3A",
"H%	c #AE4C49",
"I%	c #B04F4F",
"J%	c #3E303C",
"K%	c #365034",
"L%	c #849D38",
"M%	c #8EA838",
"N%	c #325532",
"O%	c #132C35",
"P%	c #222939",
"Q%	c #372C3D",
"R%	c #383039",
"S%	c #3E3035",
"T%	c #593539",
"U%	c #753A3F",
"V%	c #713642",
"W%	c #934B51",
"X%	c #9C4A55",
"Y%	c #9D4A53",
"Z%	c #8F3F45",
"`%	c #923C44",
" &	c #803745",
".&	c #76333A",
"+&	c #61303F",
"@&	c #492F35",
"#&	c #322C34",
"$&	c #683B3F",
"%&	c #7D4647",
"&&	c #38323C",
"*&	c #426133",
"=&	c #446634",
"-&	c #183035",
";&	c #1B2936",
">&	c #242D36",
",&	c #302F38",
"'&	c #2A2E37",
")&	c #383038",
"!&	c #3C3136",
"~&	c #393038",
"{&	c #47313F",
"]&	c #49313F",
"^&	c #432F3F",
"/&	c #49313C",
"(&	c #4B303C",
"_&	c #53303C",
":&	c #2D2A37",
"<&	c #202935",
"[&	c #243435",
"}&	c #1C2C35",
"|&	c #3A4138",
"1&	c #2D4B33",
"2&	c #496B34",
"3&	c #163035",
"4&	c #1A2E35",
"5&	c #222C37",
"6&	c #242C37",
"7&	c #212C35",
"8&	c #2B2F36",
"9&	c #342F39",
"0&	c #4A2F42",
"a&	c #402F3F",
"b&	c #302C3A",
"c&	c #1B2837",
"d&	c #1D2A36",
"e&	c #384935",
"f&	c #576735",
"g&	c #4B6B32",
"h&	c #375631",
"i&	c #3E6631",
"j&	c #385E31",
"k&	c #264534",
"l&	c #203B34",
"m&	c #192D36",
"n&	c #152736",
"o&	c #2E2A3D",
"p&	c #372A40",
"q&	c #312C3D",
"r&	c #172937",
"s&	c #1C3534",
"t&	c #253C35",
"u&	c #203735",
"v&	c #567C33",
"w&	c #2E4F33",
"x&	c #244134",
"y&	c #1A3235",
"z&	c #223535",
"A&	c #102835",
"B&	c #2B4435",
"C&	c #2B4534",
"D&	c #2A4834",
"E&	c #294933",
"F&	c #3A5934",
"G&	c #224034",
"H&	c #3F6731",
"I&	c #163034",
"J&	c #172F35",
"K&	c #183334",
"L&	c #3B6331",
"M&	c #396031",
"  . . . . . . . . + @ . @ # $ % & * = - ;   .   ; . . . . . . . ",
".     . . . ; ; > , ' ) ! ~ { ] ^ / ( _ : . .     ; ; . . . .   ",
". .   . . . . < [ } | 1 2 3 4 5 6 7 8 9 0 a b .       ; . .     ",
". . . . . . a c d e f g h i j k l m n o p q r s t u     . .   . ",
";   . . . v w x y z m A 5 B C D E F G H I J K L M N u . . . . . ",
"  . . . O P Q R S T U V W X Y Z `  ...+.@.#.$.%.&.* N *.; . . . ",
"  .   =.-.;.>.,.'.).!.~.{.].^./.(._.:.<.[.[.}.|.1.2.3.4.  . . ; ",
".   u 5.6.7.8.9.0.a.b.c.d.e.f.g.h.i.j.k.l.m.n.o.p.q.e r.. . ;   ",
". s.t.b u.7 v.w.x.y.z.A.B.C.D.E.F.G.H.I.J.K.L.M.N.O.P.Q.R.S.T.  ",
". U.V.W.X.z Y.Z.`. +.+++@+#+$+%+&+*+=+-+;+>+,+'+)+!+~+{+]+^+4.. ",
"@ /+V.(+_+:+<+[+}+|+1+2+3+4+5+6+7+8+9+0+a+b+c+d+e+f+g+h+i+j+U.. ",
". t.k+l+_+m+n+o+p+q+r+s+t+u+v+w+x+y+z+A+B+C+D+E+F+G+H+I+J+K+L+t.",
". M+N+O+P+Q+R+S+T+U+V+W+X+Y+Z+_+_+_+_+`+ @.@+@@@#@$@%@&@*@=@-@;@",
". - >@,@'@)@!@~@{@]@^@/@(@_@:@Z+_+_+_+_+<@[@}@|@1@2@3@4@5@6@7@8@",
". 9@0@a@g b@c@d@e@f@g@h@i@j@k@l@m@_+_+_+n@o@p@q@r@s@t@u@v@w@x@*.",
"  5.y@z@A@B@C@D@E@F@G@H@I@&.J@K@L@M@_+_+_+N@O@P@Q@R@S@T@U@V@W@X@",
"  Y@Z@`@ #.#+#@###$#%#&#_+7 *#=#-#;#>#_+7 ,#'#)#!#~#{#]#^#/#(#_#",
"  . :#<#[#}#|#1#2#3#4#5#6#_+7 7#8#9#0#a#7 b#c#d#e#f#g#h#i#A j#k#",
". l#m#n#o#p#q#r#s#t#u#v#7 _+_+w#&.x#y#z#A#B#C#D#E#F#G#H#I#J#K#L#",
". M#N#O#P#Q#R#S#T#U#V#W#X#_+_+_+_+Y#Z#`# $.$+$@$#$$$%$&$*$=$-$! ",
". ;$>$,$'$)$!$~${$]$^$/$($_$:$z 7 Y#<$[$}$|$1$2$3$4$5$6$7$8$9$t ",
"; 0$a$b$c$d$e$f$g$h$i$j$k$l$m$n$o$p$q$r$s$t$u$v$w$x$y$k z$A$B$  ",
"    $ C$V.w#D$E$F$G$H$I$J$K$L$M$N$O$P$Q$R$S$T$U$V$W$X$Y$Z$`$ %4.",
"  . . ;$.%+%@%#%$%%%&%*%=%-%;%>%,%'%)%!%~%{%]%^%/%(%_%:%<%[%< }%",
". ; ; ; |%(+1%2%3%4%5%6%7%8%9%0%a%b%c%d%e%f%g%h%i%j%k%l%m%0 _ . ",
". .     n%o%/ p%q%r%s%t%u%v%w%x%y%z%A%B%C%D%E%F%G%H%I%J%K%L%. . ",
". . .     M%N%O%P%Q%R%S%T%U%V%W%X%Y%Z%`% &.&+&@&#&$&%&&&*&  . . ",
". . . .     t.=&-&;&>&,&'&)&!&~&{&]&^&/&(&_&:&<&[&}&|&1&.   .   ",
"; . . . .     ;@2&3&4&5&k 6&7&q.8&9&0&a&b&c&d&e&f&g&h&. . .     ",
"  ; . . . .   . i&j&k&l&m&n 7#7#n&o&p&q&r&s&t&u&v&u . . . . .   ",
".   . . . . . . . . $ b w&x&y&z&A&B&C&D&E&F&G&o%H&. . . . . . . ",
". . . . . . . . . .     . s I&J&K&-@L&$ t.M&L&=.. . . . . . . . "};
