/* XPM */
static char * item_C_xpm[] = {
"32 32 205 2",
"  	c #5E8732",
". 	c #406930",
"+ 	c #94AF39",
"@ 	c #507931",
"# 	c #497131",
"$ 	c #436B30",
"% 	c #6F8E34",
"& 	c #5F8032",
"* 	c #466D30",
"= 	c #658733",
"- 	c #496B30",
"; 	c #779435",
"> 	c #698B33",
", 	c #537A31",
"' 	c #769535",
") 	c #4A7231",
"! 	c #456D30",
"~ 	c #487130",
"{ 	c #415F2F",
"] 	c #4F6B30",
"^ 	c #6E8F34",
"/ 	c #657B32",
"( 	c #6F6A31",
"_ 	c #723E2E",
": 	c #86392E",
"< 	c #80562F",
"[ 	c #636730",
"} 	c #5A6330",
"| 	c #6B8F33",
"1 	c #557E31",
"2 	c #678A33",
"3 	c #426930",
"4 	c #5C582F",
"5 	c #7A6B35",
"6 	c #7F4C31",
"7 	c #8D4439",
"8 	c #C8807A",
"9 	c #B35A53",
"0 	c #B15952",
"a 	c #90453F",
"b 	c #8C3C31",
"c 	c #825532",
"d 	c #666234",
"e 	c #617E32",
"f 	c #5E7E32",
"g 	c #446C30",
"h 	c #517931",
"i 	c #497130",
"j 	c #7B7536",
"k 	c #F17D70",
"l 	c #CB635A",
"m 	c #E18C84",
"n 	c #FCB9B2",
"o 	c #F9A8A1",
"p 	c #F9A8A0",
"q 	c #F8B5A2",
"r 	c #E49F97",
"s 	c #E1776F",
"t 	c #F37B71",
"u 	c #AF6B4D",
"v 	c #9A6E47",
"w 	c #737F33",
"x 	c #426A30",
"y 	c #696732",
"z 	c #CA645A",
"A 	c #E3866C",
"B 	c #F88978",
"C 	c #F87F77",
"D 	c #F88776",
"E 	c #F87E74",
"F 	c #F88876",
"G 	c #F98F7D",
"H 	c #FBB6A2",
"I 	c #FA978F",
"J 	c #F47B72",
"K 	c #BF625A",
"L 	c #6A7033",
"M 	c #5F7331",
"N 	c #CC817A",
"O 	c #F88B7A",
"P 	c #F87F74",
"Q 	c #F89177",
"R 	c #FAA68F",
"S 	c #F9968D",
"T 	c #F88976",
"U 	c #F99A79",
"V 	c #F99D7C",
"W 	c #FBB1A2",
"X 	c #F07A70",
"Y 	c #556A35",
"Z 	c #6F8D34",
"` 	c #6B6930",
" .	c #92423B",
"..	c #F8BAB2",
"+.	c #FCB9B1",
"@.	c #F9927A",
"#.	c #F9A37B",
"$.	c #F9A27D",
"%.	c #F88277",
"&.	c #F89278",
"*.	c #F9A17A",
"=.	c #F88A76",
"-.	c #FAA791",
";.	c #F9978F",
">.	c #C46459",
",.	c #648233",
"'.	c #536F30",
").	c #6E362D",
"!.	c #C9675F",
"~.	c #FBB8A5",
"{.	c #F9957C",
"].	c #F88175",
"^.	c #F87D74",
"/.	c #F88479",
"(.	c #E49F99",
"_.	c #8E3B33",
":.	c #6A7731",
"<.	c #516E30",
"[.	c #6E322D",
"}.	c #F9B0A2",
"|.	c #F99879",
"1.	c #F99C7C",
"2.	c #F98E7D",
"3.	c #D09892",
"4.	c #883C2E",
"5.	c #788C34",
"6.	c #615B2F",
"7.	c #8F4039",
"8.	c #F6A79F",
"9.	c #F88077",
"0.	c #F9938B",
"a.	c #F9A47B",
"b.	c #FCBAA7",
"c.	c #FCBCB5",
"d.	c #F5948D",
"e.	c #844133",
"f.	c #597E31",
"g.	c #708E34",
"h.	c #49602F",
"i.	c #87382E",
"j.	c #D0847D",
"k.	c #F87F76",
"l.	c #F88279",
"m.	c #FAA090",
"n.	c #FBB7A3",
"o.	c #FECAC2",
"p.	c #FCBCB4",
"q.	c #F37E74",
"r.	c #6F6F35",
"s.	c #4B7331",
"t.	c #5C8332",
"u.	c #476D30",
"v.	c #764B33",
"w.	c #F37D74",
"x.	c #FBAFA2",
"y.	c #F9937A",
"z.	c #F99278",
"A.	c #F5927A",
"B.	c #E37E6C",
"C.	c #C36E5A",
"D.	c #486C31",
"E.	c #5C8532",
"F.	c #5D7F32",
"G.	c #799935",
"H.	c #767A35",
"I.	c #DA7767",
"J.	c #D0857D",
"K.	c #F6AFA0",
"L.	c #F9B7A3",
"M.	c #FAB6A3",
"N.	c #FBA8A0",
"O.	c #E2866D",
"P.	c #B3574B",
"Q.	c #8A3D31",
"R.	c #787D35",
"S.	c #759435",
"T.	c #4A7331",
"U.	c #7B8435",
"V.	c #986947",
"W.	c #7E6835",
"X.	c #873D2F",
"Y.	c #90453A",
"Z.	c #AE5750",
"`.	c #B65C54",
" +	c #F27E75",
".+	c #C9645A",
"++	c #A15A46",
"@+	c #727832",
"#+	c #577F31",
"$+	c #749335",
"%+	c #4B7131",
"&+	c #577D31",
"*+	c #486A30",
"=+	c #747C32",
"-+	c #7E6F31",
";+	c #6E562F",
">+	c #796335",
",+	c #617836",
"'+	c #657231",
")+	c #698833",
"!+	c #416A30",
"~+	c #567F31",
"{+	c #4F7831",
"]+	c #426B30",
"^+	c #668933",
"  . . . . . . . . . . . . . .   . . . + +   .   + . . . . . . . ",
".     . . . + + + . . . . . +   . . +     . .     + + . . . .   ",
". .   . . . .     + + . . +   . . +     . . . .       + . .     ",
". . . . . . . .       + . + . . +     . .     . . .     . .   . ",
"+   . . . . . . . .     . . . . . . . . . .     . . . . . . . . ",
"  . . . . . + +   . .   . . . .   . . . . . . . . . . + + . . . ",
"  .   . . +     . . . .   . . + . . . . . . . + + . +     . . + ",
".   . .       . . . . . . . +   . . . . .   .   + .     . . +   ",
".   . .   . . . @ # $ % & $ * = - ; > , ' & . )   +   . . +     ",
". . . . . . + . ! ~ { ] ^ / ( _ : < [ } , | ! 1 .   . .       . ",
". . . . . .   + 2 3 4 5 6 7 8 9 0 a b c d e f g . . . . . . . . ",
". . +   . . .   h i j k l m n o p q r s t u v w . . + + + . . . ",
". +   . . . . . ~ x y z A B C D E F G H I J K L . +     . . .   ",
". +   . . .   . * M : N O P Q R S T U V W C X Y .     .   + + . ",
".   . . . .     Z `  ...+.@.#.$.%.&.*.=.-.;.>.,..   . . .   + + ",
"  . . . . . .   '.).!.~.{.E ].P ^.D ].D /.(._.:.. . . . . .     ",
"    . . . + .   <.[.0 }.Q P |.P ^.P U 1.2.3.4.5.. . +   . . . + ",
"  . . . .   + . x 6.7.8.9.E D 0.I -.a.b.c.d.e.f.. +   . . . +   ",
". . . . . .   . g.h.i.j.I ^.^.k.l.m.n.o.p.q.r.s.    . . .       ",
". .   + + . . . t.u.v.w.x.m.y.z.T ^./.A.B.C.D.E.  . . . .     . ",
". . .     + . . F.G.H.I.w.J.K.L.M.N.O.P.Q.R.S.s.. . . . .   . . ",
"+ + . .     . . $ T.U.V.W.X.Y.Z.`. +.+++@+F.#+s.. . . .   . .   ",
"    . . .     . $+$ %+&+) *+=+-+;+>+,+'+)+g !+~+. . . . . .     ",
"  . . . . .     s.!+. !+!+{+]+^+s.# ~ ]+!+. . !+.   . . . .     ",
". + + + . .     . . . . .   . . . + + . . . . .   . . + + .   . ",
". .     + . . . . . + + . . . . .   + + . . . .   . .     + . . ",
". . .     + . . + +   . . . . . . .   + + . . . . . . .     . . ",
". . . .     .       . . . . . . . . .   + . . . + + + . .   .   ",
"+ . . . .         . . . + + . . . . . .   . . + +   . . . .     ",
"  + . . . .   . . . . . .   + . . .   .   .       . . . . . .   ",
".   . . . . . . . . . . . .   + .     . .   . . . . . . . . . . ",
". . . . . . . . . .     . . .   . . . . . . . . . . . . . . . . "};
