/* XPM */
static char * Exit_open_4_xpm[] = {
"32 32 711 2",
"  	c #5E8732",
". 	c #406930",
"+ 	c #94AF39",
"@ 	c #406830",
"# 	c #3C6331",
"$ 	c #3E6730",
"% 	c #92AD39",
"& 	c #3B6131",
"* 	c #3A6131",
"= 	c #588033",
"- 	c #8DA739",
"; 	c #385E31",
"> 	c #2A4A33",
", 	c #677D37",
"' 	c #4F7333",
") 	c #3D6331",
"! 	c #395C31",
"~ 	c #758C37",
"{ 	c #426334",
"] 	c #557A33",
"^ 	c #375C32",
"/ 	c #294834",
"( 	c #193434",
"_ 	c #345932",
": 	c #5C8432",
"< 	c #456734",
"[ 	c #526636",
"} 	c #152B35",
"| 	c #425236",
"1 	c #303A36",
"2 	c #373E37",
"3 	c #3C4734",
"4 	c #2A3634",
"5 	c #273934",
"6 	c #1F3733",
"7 	c #1D3834",
"8 	c #2D4934",
"9 	c #334F34",
"0 	c #3E6630",
"a 	c #3C6430",
"b 	c #365B32",
"c 	c #3A5935",
"d 	c #294335",
"e 	c #1C2B35",
"f 	c #312F39",
"g 	c #462E41",
"h 	c #4A2E42",
"i 	c #412F3E",
"j 	c #293034",
"k 	c #252E34",
"l 	c #142835",
"m 	c #0E2735",
"n 	c #0D2635",
"o 	c #1F3835",
"p 	c #305332",
"q 	c #3D6531",
"r 	c #8FAA39",
"s 	c #819A38",
"t 	c #2F4B34",
"u 	c #1C3834",
"v 	c #102A35",
"w 	c #0F2635",
"x 	c #1C2835",
"y 	c #442F34",
"z 	c #553036",
"A 	c #432E36",
"B 	c #433039",
"C 	c #2B3034",
"D 	c #212D35",
"E 	c #1E2A36",
"F 	c #1E2836",
"G 	c #0E2535",
"H 	c #162F35",
"I 	c #294234",
"J 	c #6B8137",
"K 	c #8CA639",
"L 	c #4D7133",
"M 	c #203835",
"N 	c #122935",
"O 	c #112735",
"P 	c #142736",
"Q 	c #392B3B",
"R 	c #5A3134",
"S 	c #893A34",
"T 	c #933B38",
"U 	c #93413F",
"V 	c #844740",
"W 	c #644540",
"X 	c #54353E",
"Y 	c #463135",
"Z 	c #523036",
"` 	c #3D2D36",
" .	c #2A2A33",
"..	c #152635",
"+.	c #122636",
"@.	c #533138",
"#.	c #603D42",
"$.	c #393E3C",
"%.	c #476933",
"&.	c #567C32",
"*.	c #1A3335",
"=.	c #192738",
"-.	c #232A39",
";.	c #2E2E38",
">.	c #4F2F40",
",.	c #884847",
"'.	c #AE5944",
").	c #CB7056",
"!.	c #C85D56",
"~.	c #CC5D59",
"{.	c #D1665C",
"].	c #CC5E5A",
"^.	c #A3454B",
"/.	c #893B39",
"(.	c #79373E",
"_.	c #6C3342",
":.	c #552F3B",
"<.	c #412E33",
"[.	c #6D3435",
"}.	c #AD5449",
"|.	c #C16859",
"1.	c #5A373C",
"2.	c #2B4633",
"3.	c #375D31",
"4.	c #446534",
"5.	c #132C35",
"6.	c #212839",
"7.	c #352B3E",
"8.	c #4E2F43",
"9.	c #70363E",
"0.	c #A1504F",
"a.	c #DA7C5F",
"b.	c #E28F63",
"c.	c #DD7961",
"d.	c #DC7261",
"e.	c #D7665F",
"f.	c #D45B5F",
"g.	c #D1545D",
"h.	c #CB4F5A",
"i.	c #AB4344",
"j.	c #943C3D",
"k.	c #98404E",
"l.	c #793543",
"m.	c #8D3F3D",
"n.	c #B65749",
"o.	c #DF8361",
"p.	c #A94F44",
"q.	c #443036",
"r.	c #132D35",
"s.	c #3B4D36",
"t.	c #416234",
"u.	c #3F6830",
"v.	c #355A32",
"w.	c #142D35",
"x.	c #222939",
"y.	c #392C3E",
"z.	c #4F2F42",
"A.	c #7B363C",
"B.	c #AC484B",
"C.	c #D7655F",
"D.	c #DC7461",
"E.	c #DE7B62",
"F.	c #DC7061",
"G.	c #DF7962",
"H.	c #D0615B",
"I.	c #C95458",
"J.	c #C64D57",
"K.	c #C94E59",
"L.	c #A34044",
"M.	c #8B3835",
"N.	c #913B3B",
"O.	c #AB444A",
"P.	c #BB544E",
"Q.	c #D76F5E",
"R.	c #BF5551",
"S.	c #68383E",
"T.	c #132635",
"U.	c #183035",
"V.	c #2C4734",
"W.	c #304C35",
"X.	c #375D32",
"Y.	c #3B6231",
"Z.	c #192A35",
"`.	c #2B2D38",
" +	c #4A2F41",
".+	c #723337",
"++	c #A44345",
"@+	c #D25A5D",
"#+	c #D76360",
"$+	c #D76460",
"%+	c #D96D60",
"&+	c #E89365",
"*+	c #CB6657",
"=+	c #A84E4E",
"-+	c #9D4143",
";+	c #943B39",
">+	c #A34143",
",+	c #943C41",
"'+	c #74333E",
")+	c #943B3A",
"!+	c #A84342",
"~+	c #C54F55",
"{+	c #BD4E50",
"]+	c #9D4043",
"^+	c #512F38",
"/+	c #162735",
"(+	c #162835",
"_+	c #1E3933",
":+	c #396031",
"<+	c #3F6730",
"[+	c #718838",
"}+	c #253C35",
"|+	c #232C36",
"1+	c #303037",
"2+	c #563235",
"3+	c #8D3A38",
"4+	c #BF5152",
"5+	c #D76661",
"6+	c #D6625F",
"7+	c #C95A5C",
"8+	c #C5675A",
"9+	c #99524A",
"0+	c #804242",
"a+	c #4C313E",
"b+	c #472F38",
"c+	c #5B333B",
"d+	c #803A3B",
"e+	c #8A3C3C",
"f+	c #9F4042",
"g+	c #A84A42",
"h+	c #AA4E43",
"i+	c #AC4545",
"j+	c #B04548",
"k+	c #8F3A3C",
"l+	c #4C2E3D",
"m+	c #1A2936",
"n+	c #222D34",
"o+	c #1E2F34",
"p+	c #2C4D33",
"q+	c #3C6431",
"r+	c #385534",
"s+	c #1D2A36",
"t+	c #37303A",
"u+	c #2B2E36",
"v+	c #663535",
"w+	c #9F453C",
"x+	c #D97960",
"y+	c #E48A6F",
"z+	c #D97666",
"A+	c #B24E53",
"B+	c #633C44",
"C+	c #3C303C",
"D+	c #1B2939",
"E+	c #162737",
"F+	c #102635",
"G+	c #222937",
"H+	c #3A2C34",
"I+	c #8D3E41",
"J+	c #B1524C",
"K+	c #C46153",
"L+	c #B7504B",
"M+	c #BF4D52",
"N+	c #BD4A53",
"O+	c #7C343A",
"P+	c #50303E",
"Q+	c #182935",
"R+	c #2B4933",
"S+	c #587F33",
"T+	c #799038",
"U+	c #273F35",
"V+	c #282D37",
"W+	c #292D37",
"X+	c #47323A",
"Y+	c #97403E",
"Z+	c #BE654E",
"`+	c #E59370",
" @	c #ECA081",
".@	c #DA796D",
"+@	c #653B40",
"@@	c #262934",
"#@	c #0C2535",
"$@	c #0D2535",
"%@	c #232934",
"&@	c #6B363C",
"*@	c #AB5754",
"=@	c #C2715B",
"-@	c #AD4C4B",
";@	c #B94F4D",
">@	c #D56162",
",@	c #C96460",
"'@	c #833841",
")@	c #532F43",
"!@	c #1B2A35",
"~@	c #222F35",
"{@	c #3C4E36",
"]@	c #365831",
"^@	c #284733",
"/@	c #334F33",
"(@	c #1A2A35",
"_@	c #2B2E35",
":@	c #56343B",
"<@	c #8B4040",
"[@	c #CD7858",
"}@	c #EDA078",
"|@	c #EC9F80",
"1@	c #925556",
"2@	c #352C37",
"3@	c #583236",
"4@	c #8D4C41",
"5@	c #A36B54",
"6@	c #3C383F",
"7@	c #8E4048",
"8@	c #C45B54",
"9@	c #E38B68",
"0@	c #D07C65",
"a@	c #8F4443",
"b@	c #64313B",
"c@	c #333038",
"d@	c #272D36",
"e@	c #232E34",
"f@	c #243635",
"g@	c #758B37",
"h@	c #1C3933",
"i@	c #112835",
"j@	c #2D2F35",
"k@	c #563141",
"l@	c #AE5E54",
"m@	c #E7916A",
"n@	c #EC9E7E",
"o@	c #E09780",
"p@	c #8F5751",
"q@	c #242834",
"r@	c #0E2635",
"s@	c #683E42",
"t@	c #9A5548",
"u@	c #A86D57",
"v@	c #30363C",
"w@	c #122635",
"x@	c #4A3139",
"y@	c #C86558",
"z@	c #E69068",
"A@	c #E0916E",
"B@	c #9E4E53",
"C@	c #6E343B",
"D@	c #4B303C",
"E@	c #432F3F",
"F@	c #282E35",
"G@	c #2D4634",
"H@	c #517633",
"I@	c #2E4934",
"J@	c #172F35",
"K@	c #2E2F35",
"L@	c #663747",
"M@	c #C7675E",
"N@	c #E2846B",
"O@	c #F3B1A1",
"P@	c #F3B194",
"Q@	c #A16954",
"R@	c #1F2C37",
"S@	c #603C46",
"T@	c #A75F55",
"U@	c #AB7658",
"V@	c #32383D",
"W@	c #442F37",
"X@	c #A14542",
"Y@	c #DB8560",
"Z@	c #EA9A75",
"`@	c #C66E5D",
" #	c #7E3739",
".#	c #59313C",
"+#	c #412E3F",
"@#	c #242D36",
"##	c #142B35",
"$#	c #5D7136",
"%#	c #355234",
"&#	c #2F2D39",
"*#	c #362F39",
"=#	c #6C3949",
"-#	c #D56C60",
";#	c #E89373",
">#	c #F7BAA8",
",#	c #F5B9A4",
"'#	c #B87F60",
")#	c #2B353C",
"!#	c #51323D",
"~#	c #8F524F",
"{#	c #AC7859",
"]#	c #33393E",
"^#	c #472E35",
"/#	c #863C3F",
"(#	c #CB6C5C",
"_#	c #EFA98E",
":#	c #D07A6B",
"<#	c #913B39",
"[#	c #5F3336",
"}#	c #332D38",
"|#	c #152835",
"1#	c #0F2735",
"2#	c #263F35",
"3#	c #2D4E33",
"4#	c #212B3A",
"5#	c #422D41",
"6#	c #363039",
"7#	c #693547",
"8#	c #B75E52",
"9#	c #EB9D73",
"0#	c #F9C1B1",
"a#	c #F7BBA6",
"b#	c #BD8368",
"c#	c #222F39",
"d#	c #172835",
"e#	c #563338",
"f#	c #8B4B43",
"g#	c #A86E57",
"h#	c #34383E",
"i#	c #162736",
"j#	c #54313E",
"k#	c #663149",
"l#	c #B77678",
"m#	c #F7BCAC",
"n#	c #DA8179",
"o#	c #A94544",
"p#	c #79373A",
"q#	c #2D2E35",
"r#	c #203935",
"s#	c #324E34",
"t#	c #355932",
"u#	c #273539",
"v#	c #452D42",
"w#	c #6D3541",
"x#	c #A94D48",
"y#	c #D28065",
"z#	c #F9BFAD",
"A#	c #C88D78",
"B#	c #4D3436",
"C#	c #64423C",
"D#	c #90534B",
"E#	c #A57263",
"F#	c #33373D",
"G#	c #252838",
"H#	c #6B3246",
"I#	c #65314A",
"J#	c #BC7D81",
"K#	c #F3B9B0",
"L#	c #C96C62",
"M#	c #993F3F",
"N#	c #723438",
"O#	c #302E34",
"P#	c #375434",
"Q#	c #335732",
"R#	c #1F3636",
"S#	c #3F2D41",
"T#	c #3B2F3B",
"U#	c #623440",
"V#	c #A84346",
"W#	c #C06C5F",
"X#	c #E9A48F",
"Y#	c #F5B8A7",
"Z#	c #C68C84",
"`#	c #9F5D52",
" $	c #A85E4E",
".$	c #A1605B",
"+$	c #323741",
"@$	c #202737",
"#$	c #4E2D3A",
"$$	c #5C2E47",
"%$	c #843E4F",
"&$	c #CB6E62",
"*$	c #B95D61",
"=$	c #AA4A50",
"-$	c #8F3A42",
";$	c #7A3642",
">$	c #2B2B37",
",$	c #223B35",
"'$	c #345832",
")$	c #91AC39",
"!$	c #799138",
"~$	c #1E3934",
"{$	c #162836",
"]$	c #3A2E39",
"^$	c #693241",
"/$	c #833639",
"($	c #8E3934",
"_$	c #C27667",
":$	c #CF7A6B",
"<$	c #E18983",
"[$	c #CD6B60",
"}$	c #D06B5E",
"|$	c #6B4141",
"1$	c #192836",
"2$	c #142636",
"3$	c #102636",
"4$	c #1C2734",
"5$	c #2A2938",
"6$	c #562E3D",
"7$	c #5A2E43",
"8$	c #703242",
"9$	c #993E44",
"0$	c #8A3C46",
"a$	c #A6434C",
"b$	c #A4424C",
"c$	c #9F414A",
"d$	c #593441",
"e$	c #1D2936",
"f$	c #1C3734",
"g$	c #456634",
"h$	c #223E34",
"i$	c #1C3036",
"j$	c #262939",
"k$	c #61303C",
"l$	c #72323D",
"m$	c #7D353C",
"n$	c #8D3831",
"o$	c #AC4946",
"p$	c #CD6360",
"q$	c #DB7263",
"r$	c #C45C53",
"s$	c #944341",
"t$	c #843C41",
"u$	c #613444",
"v$	c #533041",
"w$	c #522E3E",
"x$	c #612F46",
"y$	c #733443",
"z$	c #7C353F",
"A$	c #8E3835",
"B$	c #7E3538",
"C$	c #A0414A",
"D$	c #A9434A",
"E$	c #8A3B47",
"F$	c #64353C",
"G$	c #312D38",
"H$	c #122A35",
"I$	c #5A8232",
"J$	c #385D31",
"K$	c #1A2C35",
"L$	c #392C36",
"M$	c #613040",
"N$	c #7B353C",
"O$	c #933A38",
"P$	c #AC4745",
"Q$	c #D6695F",
"R$	c #C25852",
"S$	c #C95857",
"T$	c #AF4446",
"U$	c #B3464B",
"V$	c #B54853",
"W$	c #9B404F",
"X$	c #8E3C49",
"Y$	c #8E3A40",
"Z$	c #883733",
"`$	c #8C3731",
" %	c #813535",
".%	c #9F4045",
"+%	c #AF4650",
"@%	c #7B343A",
"#%	c #683338",
"$%	c #3F3033",
"%%	c #1A2B35",
"&%	c #1B3634",
"*%	c #7A9238",
"=%	c #5C6F36",
"-%	c #1D3335",
";%	c #272A34",
">%	c #573234",
",%	c #88393A",
"'%	c #A64742",
")%	c #C55C55",
"!%	c #9E434B",
"~%	c #9A3E42",
"{%	c #AA4346",
"]%	c #BC494F",
"^%	c #B4474A",
"/%	c #B6474C",
"(%	c #A34040",
"_%	c #B8494E",
":%	c #B74B4C",
"<%	c #AA4344",
"[%	c #803535",
"}%	c #8D393C",
"|%	c #9C3F46",
"1%	c #6A323A",
"2%	c #4F3039",
"3%	c #6C8237",
"4%	c #5D8632",
"5%	c #547932",
"6%	c #3F4D34",
"7%	c #192935",
"8%	c #763A3C",
"9%	c #AD4A46",
"0%	c #BF5F58",
"a%	c #924144",
"b%	c #67333C",
"c%	c #6C323D",
"d%	c #7B353E",
"e%	c #8E3A3C",
"f%	c #943B3C",
"g%	c #8D3837",
"h%	c #B74E4F",
"i%	c #D1695B",
"j%	c #D2665B",
"k%	c #A94543",
"l%	c #983D3F",
"m%	c #87393B",
"n%	c #74333A",
"o%	c #543137",
"p%	c #423035",
"q%	c #262C37",
"r%	c #132736",
"s%	c #3F5E34",
"t%	c #588032",
"u%	c #93AE39",
"v%	c #598032",
"w%	c #364C34",
"x%	c #49393E",
"y%	c #9D4948",
"z%	c #C35953",
"A%	c #83403C",
"B%	c #61353D",
"C%	c #3C2F3C",
"D%	c #3F303B",
"E%	c #57313E",
"F%	c #6F3337",
"G%	c #7E3434",
"H%	c #75333D",
"I%	c #9D4446",
"J%	c #AF5C49",
"K%	c #A0483C",
"L%	c #963E3B",
"M%	c #82393E",
"N%	c #56313C",
"O%	c #323036",
"P%	c #2A4B33",
"Q%	c #3C6330",
"R%	c #456433",
"S%	c #35333A",
"T%	c #9E4B4D",
"U%	c #5F363E",
"V%	c #382C34",
"W%	c #212C36",
"X%	c #3B2E3D",
"Y%	c #353039",
"Z%	c #3C3039",
"`%	c #55303E",
" &	c #663336",
".&	c #72323B",
"+&	c #7D3535",
"@&	c #7F373A",
"#&	c #74373B",
"$&	c #693A3F",
"%&	c #41303D",
"&&	c #3F303C",
"*&	c #322F39",
"=&	c #293135",
"-&	c #3E5036",
";&	c #8BA538",
">&	c #293337",
",&	c #192736",
"'&	c #1D2C34",
")&	c #212C35",
"!&	c #292E36",
"~&	c #2B2F37",
"{&	c #313036",
"]&	c #36303A",
"^&	c #512F43",
"/&	c #562F44",
"(&	c #513042",
"_&	c #44303D",
":&	c #323037",
"<&	c #313037",
"[&	c #2D2D38",
"}&	c #1E2C35",
"|&	c #3F5136",
"1&	c #7B9238",
"2&	c #4C6F33",
"3&	c #2E4F32",
"4&	c #1B3635",
"5&	c #213335",
"6&	c #212E34",
"7&	c #283034",
"8&	c #262F34",
"9&	c #272F34",
"0&	c #252C36",
"a&	c #1F2A37",
"b&	c #2D2E39",
"c&	c #2D3137",
"d&	c #2D3036",
"e&	c #293235",
"f&	c #283635",
"g&	c #1A2E35",
"h&	c #436434",
"i&	c #284834",
"j&	c #243D33",
"k&	c #283F33",
"l&	c #293834",
"m&	c #283334",
"n&	c #152935",
"o&	c #274034",
"p&	c #3E5933",
"q&	c #456334",
"r&	c #264034",
"s&	c #244034",
"t&	c #2F4A34",
"u&	c #315432",
"v&	c #537933",
"w&	c #375A32",
"x&	c #213C34",
"y&	c #2B4B32",
"z&	c #3D6430",
"A&	c #3B6230",
"B&	c #2D4F32",
"  . . . . . . . . . . . . . .   . . . + +   .   + . . . . . . . ",
".     . . . + + + . . @ @ # +   . $ %     & * =   + + . . . .   ",
". .   . . . .     + - ; > , ' ) ! ~ { ] ^ / ( _ :     + . .     ",
". . . . . . . .   : < [ } | 1 2 3 4 5 6 7 8 9 ^ 0 .     . .   . ",
"+   . . . . . . a b c d e f g h i j k l m n o 9 p ; q . . . . . ",
"  . . . . . r s t u v w x y z A B C D E F G G n H ( I J + . . . ",
"  .   . . K L M N O P Q R S T U V W X Y Z `  ...+.@.#.$.%.. . + ",
".   . . &.%.*.=.-.;.>.,.'.).!.~.{.].^./.(._.:.<.[.}.|.1.2.3.+   ",
".   . # 4.5.6.7.8.9.0.a.b.c.d.e.f.g.h.i.j.k.l.m.n.o.p.q.r.s.t.  ",
". . u.v.w.x.y.z.A.B.C.D.E.F.G.H.I.J.K.L.M.N.O.P.Q.R.S.T.U.V.W.X.",
". . Y.u Z.`. +.+++@+#+$+%+&+*+=+-+;+>+,+'+)+!+~+{+]+^+/+(+H _+:+",
". <+[+}+|+1+2+3+4+5+6+7+8+9+0+a+b+c+d+e+f+g+h+i+j+k+l+m+n+o+p+q+",
". % r+s+t+u+v+w+x+y+z+A+B+C+D+E+F+G+H+I+J+K+L+M+N+O+P+|+Q+D R+S+",
"<+T+U+V+W+X+Y+Z+`+ @.@+@@@#@#@#@$@%@&@*@=@-@;@>@,@'@)@W+!@~@{@]@",
"^@/@w (@_@:@<@[@}@|@1@2@#@#@#@#@w 3@4@5@6@7@8@9@0@a@b@c@d@e@f@g@",
"9 h@i@(@j@k@l@m@n@o@p@q@$@#@r@r@s@t@u@v@w@x@y@z@A@B@C@D@E@F@G@H@",
"I@J@$@!@K@L@M@N@O@P@Q@R@#@$@l S@T@U@V@#@G W@X@Y@Z@`@ #.#+#@###$#",
"%#( +.&#*#=#-#;#>#,#'#)#$@$@!#~#{#]##@#@#@^#/#(#_#:#<#[#}#|#1#2#",
"^ 3#4#5#6#7#8#9#0#a#b#c#d#e#f#g#h##@#@#@i#j#k#l#m#n#o#p#q#w r#s#",
"u.t#u#v#C+w#x#y#P@z#A#B#C#D#E#F##@#@#@#@G#H#I#J#K#L#M#N#O#w P#Q#",
". t#R#S#T#U#V#W#X#Y#Z#`# $.$+$#@#@#@#@@$#$$$%$&$*$=$-$;$>$,$'$0 ",
")$!$~${$]$^$/$($_$:$<$[$}$|$1$2$3$4$5$6$7$8$9$0$a$b$c$d$e$f$#   ",
": g$h$i$j$k$l$m$n$o$p$q$r$s$t$u$v$w$x$y$z$A$B$C$D$E$F$G$H$p+I$  ",
"  J$( K$e$L$M$N$O$P$Q$R$S$T$U$V$W$X$Y$Z$`$ %.%+%@%#%$%%%&%t#    ",
". )$*%=%-%;%>%,%'%)%!%~%{%]%^%/%(%_%:%<%[%}%|%'+1%2%V+F+3%u.  . ",
". . 4%5%6%7%8%9%0%a%b%c%d%e%f%g%h%i%j%k%l%m%n%o%p%q%r%s%t%u%. . ",
". . . v%w%x%y%z%A%B%C%D%E%F%G%H%I%J%K%L%M%N%B O%e@O P%Q%4%  . . ",
". . . . R%S%T%U%V%W%X%Y%Z%`% &.&+&@&#&$&%&&&*&=&-&J ;&@ .   .   ",
"+ . . . . s%>&,&i@'&)&!&~&{&]&^&/&(&_&:&<&[&}&|&1&  . . . .     ",
"  + . . . . 2&3&4&5&6&7&8&9&0&a&b&c&d&e&f&g&,$h&I$. . . . . .   ",
".   . . . . . v.i&^@j&k&l&m&n&{@o&p&q&r&s&t&u&a @ . . . . . . . ",
". . . . . . . . X.J$S+v&w&x&w.I@y&z&A&B&'$v.u.. . . . . . . . . "};
