/* XPM */
static char * item_1_xpm[] = {
"32 32 446 2",
"  	c #5E8732",
". 	c #406930",
"+ 	c #94AF39",
"@ 	c #426931",
"# 	c #466834",
"$ 	c #8DA33C",
"% 	c #5F8336",
"& 	c #406830",
"* 	c #93AE39",
"= 	c #5E8533",
"- 	c #889547",
"; 	c #787459",
"> 	c #898163",
", 	c #777258",
"' 	c #586541",
") 	c #5B7A34",
"! 	c #5E8036",
"~ 	c #5C8332",
"{ 	c #5D8632",
"] 	c #466434",
"^ 	c #6C7748",
"/ 	c #8A8863",
"( 	c #9E9373",
"_ 	c #A7977C",
": 	c #AB9A7F",
"< 	c #A7967B",
"[ 	c #A09276",
"} 	c #958C6F",
"| 	c #837F62",
"1 	c #747156",
"2 	c #52663D",
"3 	c #92AC3A",
"4 	c #416531",
"5 	c #5B6143",
"6 	c #816A60",
"7 	c #988071",
"8 	c #AA957D",
"9 	c #B29E84",
"0 	c #B5A286",
"a 	c #AD9A80",
"b 	c #9D8A74",
"c 	c #857263",
"d 	c #705F53",
"e 	c #52553D",
"f 	c #5D8133",
"g 	c #456234",
"h 	c #69604D",
"i 	c #8E6E69",
"j 	c #94746E",
"k 	c #9B7F74",
"l 	c #A48A7A",
"m 	c #AA937E",
"n 	c #A5927A",
"o 	c #8F7C69",
"p 	c #6F5A53",
"q 	c #5E4746",
"r 	c #4E3B3A",
"s 	c #4B4636",
"t 	c #425E32",
"u 	c #5E8632",
"v 	c #4C6139",
"w 	c #6E5D52",
"x 	c #8D6D69",
"y 	c #96746F",
"z 	c #967570",
"A 	c #9A7B73",
"B 	c #8F786A",
"C 	c #6C5C50",
"D 	c #473535",
"E 	c #483636",
"F 	c #483836",
"G 	c #455133",
"H 	c #416331",
"I 	c #92AC39",
"J 	c #5E8434",
"K 	c #92A93E",
"L 	c #616348",
"M 	c #7D615D",
"N 	c #8F706B",
"O 	c #977670",
"P 	c #987671",
"Q 	c #977570",
"R 	c #8C6C68",
"S 	c #6E5452",
"T 	c #483736",
"U 	c #463E34",
"V 	c #577433",
"W 	c #426831",
"X 	c #90A73D",
"Y 	c #627D3B",
"Z 	c #697645",
"` 	c #7C7559",
" .	c #8D7B67",
"..	c #91776C",
"+.	c #977B70",
"@.	c #9E8175",
"#.	c #9D8075",
"$.	c #997972",
"%.	c #91706B",
"&.	c #886865",
"*.	c #715654",
"=.	c #4F3C3C",
"-.	c #4A3838",
";.	c #4D3B39",
">.	c #5A6D39",
",.	c #456734",
"'.	c #416831",
").	c #436632",
"!.	c #637640",
"~.	c #827D5D",
"{.	c #93896C",
"].	c #A19177",
"^.	c #AB9A7E",
"/.	c #AF9C82",
"(.	c #B09D82",
"_.	c #B09D83",
":.	c #B09C83",
"<.	c #A78E7C",
"[.	c #9A7C72",
"}.	c #896966",
"|.	c #715554",
"1.	c #564040",
"2.	c #4F3D3B",
"3.	c #624C49",
"4.	c #725B55",
"5.	c #7C705C",
"6.	c #6C6C50",
"7.	c #4F623A",
"8.	c #8FA73A",
"9.	c #5E8633",
"0.	c #446633",
"a.	c #5C6144",
"b.	c #836F61",
"c.	c #9C8774",
"d.	c #AB987E",
"e.	c #B3A185",
"f.	c #B6A487",
"g.	c #B7A587",
"h.	c #B6A587",
"i.	c #B39F84",
"j.	c #A9957C",
"k.	c #8C7468",
"l.	c #705253",
"m.	c #69514E",
"n.	c #79645A",
"o.	c #95806E",
"p.	c #9E8A75",
"q.	c #A6937B",
"r.	c #A9997E",
"s.	c #A6977B",
"t.	c #978B70",
"u.	c #82805D",
"v.	c #6A7746",
"w.	c #426932",
"x.	c #899B3F",
"y.	c #7C6E54",
"z.	c #91726C",
"A.	c #9C8174",
"B.	c #A08877",
"C.	c #A8947D",
"D.	c #B2A084",
"E.	c #A5957A",
"F.	c #867062",
"G.	c #705353",
"H.	c #93796D",
"I.	c #A58F7A",
"J.	c #B19E83",
"K.	c #B7A487",
"L.	c #9C8A74",
"M.	c #7D6D5B",
"N.	c #5D5345",
"O.	c #445E33",
"P.	c #8FA937",
"Q.	c #667342",
"R.	c #826360",
"S.	c #90706B",
"T.	c #94756E",
"U.	c #9A8072",
"V.	c #B4A185",
"W.	c #B7A588",
"X.	c #B5A386",
"Y.	c #AA977E",
"Z.	c #A38F79",
"`.	c #8B7866",
" +	c #755D56",
".+	c #775A58",
"++	c #896A66",
"@+	c #987A71",
"#+	c #9C8273",
"$+	c #A68F7B",
"%+	c #AE9881",
"&+	c #A6927B",
"*+	c #917E6C",
"=+	c #746356",
"-+	c #5A4842",
";+	c #4E3E3A",
">+	c #454C34",
",+	c #416430",
"'+	c #5B7B34",
")+	c #6D694C",
"!+	c #93736D",
"~+	c #96756F",
"{+	c #95756F",
"]+	c #9C8173",
"^+	c #A6917B",
"/+	c #A9977D",
"(+	c #A38F7A",
"_+	c #9C8574",
":+	c #8C7467",
"<+	c #796259",
"[+	c #5F4947",
"}+	c #6B504F",
"|+	c #8F6E6A",
"1+	c #977770",
"2+	c #9E8275",
"3+	c #897066",
"4+	c #654F4A",
"5+	c #4A3737",
"6+	c #544E36",
"7+	c #557032",
"8+	c #3F662F",
"9+	c #5F763B",
"0+	c #8E6E6A",
"a+	c #94736E",
"b+	c #92716C",
"c+	c #8D7069",
"d+	c #886E65",
"e+	c #7E605E",
"f+	c #7C5D5C",
"g+	c #6D5151",
"h+	c #533E3E",
"i+	c #6E5351",
"j+	c #886965",
"k+	c #997971",
"l+	c #987971",
"m+	c #816460",
"n+	c #5D4645",
"o+	c #4C3D38",
"p+	c #585D3C",
"q+	c #4C6538",
"r+	c #93AC3A",
"s+	c #4D5F3A",
"t+	c #705A53",
"u+	c #8F6E69",
"v+	c #94736D",
"w+	c #8B6B67",
"x+	c #7E5F5D",
"y+	c #795B5A",
"z+	c #785959",
"A+	c #725454",
"B+	c #574141",
"C+	c #493737",
"D+	c #6F5552",
"E+	c #987970",
"F+	c #A38979",
"G+	c #A38978",
"H+	c #8F756A",
"I+	c #6A5450",
"J+	c #4D3D3A",
"K+	c #4C3939",
"L+	c #5E4A46",
"M+	c #7B6B5A",
"N+	c #7C7B58",
"O+	c #687D42",
"P+	c #5D8333",
"Q+	c #4C5F39",
"R+	c #735D55",
"S+	c #95746F",
"T+	c #876764",
"U+	c #795A5A",
"V+	c #765757",
"W+	c #624848",
"X+	c #4E3A3A",
"Y+	c #6A514F",
"Z+	c #95736E",
"`+	c #A38A79",
" @	c #B19D83",
".@	c #B3A085",
"+@	c #AC9980",
"@@	c #978670",
"#@	c #746456",
"$@	c #594442",
"%@	c #866B63",
"&@	c #9E8975",
"*@	c #A5937A",
"=@	c #847C5F",
"-@	c #52643D",
";@	c #5E753A",
">@	c #745E56",
",@	c #93726D",
"'@	c #8D6D68",
")@	c #93736E",
"!@	c #91706C",
"~@	c #836361",
"{@	c #775859",
"]@	c #755757",
"^@	c #694E4E",
"/@	c #846662",
"(@	c #896A65",
"_@	c #987C71",
":@	c #A48F79",
"<@	c #AF9B82",
"[@	c #A8957E",
"}@	c #8C7969",
"|@	c #65524B",
"1@	c #4B3938",
"2@	c #55403F",
"3@	c #715854",
"4@	c #836961",
"5@	c #826B61",
"6@	c #65534B",
"7@	c #485636",
"8@	c #5C7A36",
"9@	c #6A5D4E",
"0@	c #856662",
"a@	c #674F4C",
"b@	c #6D5451",
"c@	c #80635F",
"d@	c #7F5F5E",
"e@	c #775858",
"f@	c #735555",
"g@	c #7A5C5A",
"h@	c #7A5C5B",
"i@	c #8F796A",
"j@	c #9A8672",
"k@	c #937B6D",
"l@	c #7C625C",
"m@	c #6E5451",
"n@	c #8C6D68",
"o@	c #967A71",
"p@	c #977D71",
"q@	c #816C60",
"r@	c #64514B",
"s@	c #523E3D",
"t@	c #604947",
"u@	c #745956",
"v@	c #674D4C",
"w@	c #654A4A",
"x@	c #634849",
"y@	c #50473C",
"z@	c #567132",
"A@	c #486136",
"B@	c #6B5F4F",
"C@	c #836561",
"D@	c #624B49",
"E@	c #513D3C",
"F@	c #5F4847",
"G@	c #735755",
"H@	c #745656",
"I@	c #6C5050",
"J@	c #7C5E5C",
"K@	c #866C64",
"L@	c #A08B77",
"M@	c #A6947C",
"N@	c #8E7C68",
"O@	c #604C48",
"P@	c #795E5A",
"Q@	c #8F6F6A",
"R@	c #7F605E",
"S@	c #5A4343",
"T@	c #463434",
"U@	c #6A524F",
"V@	c #846762",
"W@	c #775C58",
"X@	c #5A4F42",
"Y@	c #53573E",
"Z@	c #83953B",
"`@	c #5B8132",
" #	c #4F603B",
".#	c #715E54",
"+#	c #876864",
"@#	c #785C59",
"##	c #543F3F",
"$#	c #493636",
"%#	c #5C4745",
"&#	c #6D5452",
"*#	c #765857",
"=#	c #745756",
"-#	c #6B514F",
";#	c #644F4A",
">#	c #785D59",
",#	c #8C7267",
"'#	c #998172",
")#	c #917F69",
"!#	c #6B5A4F",
"~#	c #4B3838",
"{#	c #4C3938",
"]#	c #5F4846",
"^#	c #7C655C",
"/#	c #6B554F",
"(#	c #5C523E",
"_#	c #4B4A35",
":#	c #4B4738",
"<#	c #626144",
"[#	c #757252",
"}#	c #6F6652",
"|#	c #4F5F3A",
"1#	c #91AB39",
"2#	c #4D6039",
"3#	c #645B4A",
"4#	c #746156",
"5#	c #736055",
"6#	c #666240",
"7#	c #606237",
"8#	c #565E3A",
"9#	c #5B5843",
"0#	c #6B5E4F",
"a#	c #6F644F",
"b#	c #717143",
"c#	c #616542",
"d#	c #6B5D4F",
"e#	c #856B62",
"f#	c #907767",
"g#	c #746154",
"h#	c #53493C",
"i#	c #473C36",
"j#	c #463D35",
"k#	c #5D5C37",
"l#	c #626F40",
"m#	c #50553C",
"n#	c #556636",
"o#	c #435832",
"p#	c #829738",
"q#	c #5A7B32",
"r#	c #406630",
"s#	c #92AD39",
"t#	c #5E8433",
"u#	c #446433",
"v#	c #466135",
"w#	c #889D3B",
"x#	c #5A7A34",
"y#	c #5A7B33",
"z#	c #416631",
"A#	c #426632",
"B#	c #456333",
"C#	c #5C8033",
"D#	c #436732",
"E#	c #4A6338",
"F#	c #666F45",
"G#	c #676A47",
"H#	c #5E663F",
"I#	c #485036",
"J#	c #454E34",
"K#	c #6F7B37",
"L#	c #556D33",
"M#	c #426631",
"  . . . . . . . . . . . . . .   . . . + +   .   + . . . . . . . ",
".     . . . + + + . . . . . +   . . +     . .     + + . . . .   ",
". . +   . . +         . . . .   . +     . . . .       + . .     ",
". .   . .       .   . . .   + . +     . .     . . .     . .   . ",
"+ . . . . . . . . + + . @ # $ % @ & *         . . . .   . . . . ",
"    . + + + . . .   = $ - ; > , ' ) ! ~ .   . . .   + . + . . . ",
"    +     . . . { ] ^ / ( _ : < [ } | 1 2 3 + . . . . .   . . + ",
". .     .   + + 4 5 6 7 8 9 0 0 a b c d e f   + + . . + . . +   ",
". .   . . . . . g h i j k l m n o p q r s t u     + . + . +     ",
". + . . . + + . v w x y z z A B C D E E F G H .     . .       . ",
".     . & I J K L M N O P Q y R S E E E T U V & .   . . . . . . ",
"+   . W X Y Z `  ...+.@.#.$.%.&.*.=.E E -.;.>.,.'..   . + . . . ",
"  . ).!.~.{.].^./.(._.9 :.<.[.}.|.1.-.2.3.4.5.6.7.8.9.  . . .   ",
". 0.a.b.c.d.e.f.g.h.f.f.f.i.j.k.l.m.n.o.p.q.r.s.t.u.v.w.  + + . ",
". x.y.z.A.B.C.D.f.f.f.f.h.f.E.F.G.M H.I.J.K.K.J.L.M.N.O.&   + + ",
"P.Q.R.S.y T.U.C.V.W.X.J.Y.Z.`. +.+++@+#+$+%+&+*+=+-+;+>+,+.     ",
"'+)+x !+~+Q {+]+^+/+(+_+:+<+[+}+R.|+Q z 1+2+3+4+5+E E 6+7+8+. + ",
"9+p 0+a+~+Q Q b+c+d+e+f+g+h+-.i+j+b+Q Q k+l+m+n+D E E o+p+q+r+{ ",
"s+t+u+v+~+~+~+w+x+y+z+z+A+B+C+D+i z z E+F+G+H+I+J+C+K+L+M+N+O+P+",
"Q+R+a+S+!+!+a+T+U+z+z+z+V+W+X+Y+w+Z+T.`+ @.@+@@@#@2.$@%@&@*@=@-@",
";@>@,@++'@)@!@~@z+z+z+{@]@^@n+m./@0+(@_@:@<@[@}@|@1@2@3@4@5@6@7@",
"8@9@0@a@b@c@T+d@V+V+e@f@g@h@i@j@k@l@m@n@o@p@q@r@s@t@u@v@w@x@y@z@",
"A@B@C@D@E@F@G@U+]@f@H@I@J@K@L@M@N@O@2@P@Q@R@S@T@r U@V@W@X@Y@Z@`@",
" #.#+#@###$#%#&#*#=#-#;#>#,#'#)#!#~#{#]#^#/#(#_#:#<#[#}#|#1#    ",
"2#3#4#5#6#7#8#9#0#a#b#c#d#e#f#g#h#i#j#k#l#m#n#o#p#q#r#r#s#    . ",
"t#u#v#w#x#y#z#A#B#g C#D#E#F#G#H#I#J#K#L#M#= & & u . .       . . ",
". .       . . . . . . . . . . . . .     . . . . . . . . . . . . ",
". .   . . . . . . . . + + + . . . .   . . . . . . + + + . . .   ",
". . . . + . . . +   +     . . .   + . .   . . + +     . . .     ",
". . . .   + . +   .     .   + + .     .   .         .   + + .   ",
"+   . . .   +     .   . . .   + +     . .   . .   . . .   + + . ",
"  . . . . .     . . . . . . .     . . . . . . . . . . . .     . "};
